<?xml version="1.0" encoding="UTF-8" standalone="no"?>
<!-- Created with Inkscape (http://www.inkscape.org/) -->

<svg
   xmlns:dc="http://purl.org/dc/elements/1.1/"
   xmlns:cc="http://creativecommons.org/ns#"
   xmlns:rdf="http://www.w3.org/1999/02/22-rdf-syntax-ns#"
   xmlns:svg="http://www.w3.org/2000/svg"
   xmlns="http://www.w3.org/2000/svg"
   xmlns:sodipodi="http://sodipodi.sourceforge.net/DTD/sodipodi-0.dtd"
   xmlns:inkscape="http://www.inkscape.org/namespaces/inkscape"
   width="48pt"
   height="48pt"
   viewBox="0 0 16.933334 16.933333"
   version="1.1"
   id="svg979"
   inkscape:version="0.92.4 (5da689c313, 2019-01-14)"
   sodipodi:docname="24 - Business Balance.svg"
   inkscape:export-filename="E:\TR Design Studio Creative\Project Design\TR Creative Design\Icon Design\Project Hiring\Icon Icons\003 - Business And Finance\Send\4 - Filled Line\23 - Analytics.png"
   inkscape:export-xdpi="768"
   inkscape:export-ydpi="768">
  <defs
     id="defs973" />
  <sodipodi:namedview
     id="base"
     pagecolor="#ffffff"
     bordercolor="#666666"
     borderopacity="1.0"
     inkscape:pageopacity="0.0"
     inkscape:pageshadow="2"
     inkscape:zoom="4.2734375"
     inkscape:cx="67.68087"
     inkscape:cy="22.661268"
     inkscape:document-units="pt"
     inkscape:current-layer="layer1"
     showgrid="false"
     units="pt"
     inkscape:window-width="1366"
     inkscape:window-height="716"
     inkscape:window-x="-8"
     inkscape:window-y="-8"
     inkscape:window-maximized="1"
     inkscape:snap-bbox="true"
     inkscape:bbox-nodes="true"
     inkscape:snap-nodes="false"
     showguides="false">
    <inkscape:grid
       type="xygrid"
       id="grid1526" />
    <sodipodi:guide
       position="0.97013909,15.963209"
       orientation="56.666615,0"
       id="guide1528"
       inkscape:locked="false" />
    <sodipodi:guide
       position="0.97013909,0.97016731"
       orientation="0,56.666667"
       id="guide1530"
       inkscape:locked="false" />
    <sodipodi:guide
       position="15.963195,0.97016731"
       orientation="-56.666615,0"
       id="guide1532"
       inkscape:locked="false" />
    <sodipodi:guide
       position="15.963195,15.963209"
       orientation="0,-56.666667"
       id="guide1534"
       inkscape:locked="false" />
  </sodipodi:namedview>
  <metadata
     id="metadata976">
    <rdf:RDF>
      <cc:Work
         rdf:about="">
        <dc:format>image/svg+xml</dc:format>
        <dc:type
           rdf:resource="http://purl.org/dc/dcmitype/StillImage" />
        <dc:title></dc:title>
      </cc:Work>
    </rdf:RDF>
  </metadata>
  <g
     inkscape:label="Layer 1"
     inkscape:groupmode="layer"
     id="layer1"
     transform="translate(0,-280.06668)">
    <g
       id="g1681"
       transform="matrix(1.2313132,0,0,1.2313132,-8.3407399,-68.171007)"
       style="stroke-width:0.81214106">
      <g
         id="g2839"
         transform="translate(-58.739367,-44.981215)"
         style="stroke-width:0.81214106">
        <g
           id="g2779"
           style="stroke-width:0.81214106">
          <path
             inkscape:connector-curvature="0"
             id="path2707"
             d="m 67.097656,338.11719 c -0.43516,0 -0.792968,0.35976 -0.792968,0.79492 0,0.43516 0.357808,0.79297 0.792968,0.79297 h 1.324219 c 0.43516,0 0.792969,-0.35781 0.792969,-0.79297 0,-0.43516 -0.357809,-0.79492 -0.792969,-0.79492 z"
             style="color:#000000;font-style:normal;font-variant:normal;font-weight:normal;font-stretch:normal;font-size:medium;line-height:normal;font-family:sans-serif;font-variant-ligatures:normal;font-variant-position:normal;font-variant-caps:normal;font-variant-numeric:normal;font-variant-alternates:normal;font-feature-settings:normal;text-indent:0;text-align:start;text-decoration:none;text-decoration-line:none;text-decoration-style:solid;text-decoration-color:#000000;letter-spacing:normal;word-spacing:normal;text-transform:none;writing-mode:lr-tb;direction:ltr;text-orientation:mixed;dominant-baseline:auto;baseline-shift:baseline;text-anchor:start;white-space:normal;shape-padding:0;clip-rule:nonzero;display:inline;overflow:visible;visibility:visible;opacity:1;isolation:auto;mix-blend-mode:normal;color-interpolation:sRGB;color-interpolation-filters:linearRGB;solid-color:#000000;solid-opacity:1;vector-effect:none;fill:#ffcd40;fill-opacity:1;fill-rule:nonzero;stroke:none;stroke-width:0.42975822;stroke-linecap:round;stroke-linejoin:round;stroke-miterlimit:1.5;stroke-dasharray:none;stroke-dashoffset:0;stroke-opacity:1;paint-order:markers fill stroke;color-rendering:auto;image-rendering:auto;shape-rendering:auto;text-rendering:auto;enable-background:accumulate" />
          <path
             inkscape:connector-curvature="0"
             id="path2699"
             d="m 76.359375,339.17578 c -0.43516,0 -0.794922,0.35976 -0.794922,0.79492 0,0.43516 0.359762,0.79297 0.794922,0.79297 h 1.322266 c 0.43516,0 0.792968,-0.35781 0.792968,-0.79297 0,-0.43516 -0.357808,-0.79492 -0.792968,-0.79492 z"
             style="color:#000000;font-style:normal;font-variant:normal;font-weight:normal;font-stretch:normal;font-size:medium;line-height:normal;font-family:sans-serif;font-variant-ligatures:normal;font-variant-position:normal;font-variant-caps:normal;font-variant-numeric:normal;font-variant-alternates:normal;font-feature-settings:normal;text-indent:0;text-align:start;text-decoration:none;text-decoration-line:none;text-decoration-style:solid;text-decoration-color:#000000;letter-spacing:normal;word-spacing:normal;text-transform:none;writing-mode:lr-tb;direction:ltr;text-orientation:mixed;dominant-baseline:auto;baseline-shift:baseline;text-anchor:start;white-space:normal;shape-padding:0;clip-rule:nonzero;display:inline;overflow:visible;visibility:visible;opacity:1;isolation:auto;mix-blend-mode:normal;color-interpolation:sRGB;color-interpolation-filters:linearRGB;solid-color:#000000;solid-opacity:1;vector-effect:none;fill:#ffcd40;fill-opacity:1;fill-rule:nonzero;stroke:none;stroke-width:0.42975822;stroke-linecap:round;stroke-linejoin:round;stroke-miterlimit:1.5;stroke-dasharray:none;stroke-dashoffset:0;stroke-opacity:1;paint-order:markers fill stroke;color-rendering:auto;image-rendering:auto;shape-rendering:auto;text-rendering:auto;enable-background:accumulate" />
          <path
             inkscape:connector-curvature="0"
             id="path2703"
             d="m 76.359375,338.11719 c -0.43516,0 -0.794922,0.35976 -0.794922,0.79492 0,0.43516 0.359762,0.79297 0.794922,0.79297 h 1.322266 c 0.43516,0 0.792968,-0.35781 0.792968,-0.79297 0,-0.43516 -0.357808,-0.79492 -0.792968,-0.79492 z"
             style="color:#000000;font-style:normal;font-variant:normal;font-weight:normal;font-stretch:normal;font-size:medium;line-height:normal;font-family:sans-serif;font-variant-ligatures:normal;font-variant-position:normal;font-variant-caps:normal;font-variant-numeric:normal;font-variant-alternates:normal;font-feature-settings:normal;text-indent:0;text-align:start;text-decoration:none;text-decoration-line:none;text-decoration-style:solid;text-decoration-color:#000000;letter-spacing:normal;word-spacing:normal;text-transform:none;writing-mode:lr-tb;direction:ltr;text-orientation:mixed;dominant-baseline:auto;baseline-shift:baseline;text-anchor:start;white-space:normal;shape-padding:0;clip-rule:nonzero;display:inline;overflow:visible;visibility:visible;opacity:1;isolation:auto;mix-blend-mode:normal;color-interpolation:sRGB;color-interpolation-filters:linearRGB;solid-color:#000000;solid-opacity:1;vector-effect:none;fill:#ffcd40;fill-opacity:1;fill-rule:nonzero;stroke:none;stroke-width:0.42975822;stroke-linecap:round;stroke-linejoin:round;stroke-miterlimit:1.5;stroke-dasharray:none;stroke-dashoffset:0;stroke-opacity:1;paint-order:markers fill stroke;color-rendering:auto;image-rendering:auto;shape-rendering:auto;text-rendering:auto;enable-background:accumulate" />
          <path
             inkscape:connector-curvature="0"
             id="path2711"
             d="m 67.097656,339.17578 c -0.43516,0 -0.792968,0.35976 -0.792968,0.79492 0,0.43516 0.357808,0.79297 0.792968,0.79297 h 1.324219 c 0.43516,0 0.792969,-0.35781 0.792969,-0.79297 0,-0.43516 -0.357809,-0.79492 -0.792969,-0.79492 z"
             style="color:#000000;font-style:normal;font-variant:normal;font-weight:normal;font-stretch:normal;font-size:medium;line-height:normal;font-family:sans-serif;font-variant-ligatures:normal;font-variant-position:normal;font-variant-caps:normal;font-variant-numeric:normal;font-variant-alternates:normal;font-feature-settings:normal;text-indent:0;text-align:start;text-decoration:none;text-decoration-line:none;text-decoration-style:solid;text-decoration-color:#000000;letter-spacing:normal;word-spacing:normal;text-transform:none;writing-mode:lr-tb;direction:ltr;text-orientation:mixed;dominant-baseline:auto;baseline-shift:baseline;text-anchor:start;white-space:normal;shape-padding:0;clip-rule:nonzero;display:inline;overflow:visible;visibility:visible;opacity:1;isolation:auto;mix-blend-mode:normal;color-interpolation:sRGB;color-interpolation-filters:linearRGB;solid-color:#000000;solid-opacity:1;vector-effect:none;fill:#ffcd40;fill-opacity:1;fill-rule:nonzero;stroke:none;stroke-width:0.42975822;stroke-linecap:round;stroke-linejoin:round;stroke-miterlimit:1.5;stroke-dasharray:none;stroke-dashoffset:0;stroke-opacity:1;paint-order:markers fill stroke;color-rendering:auto;image-rendering:auto;shape-rendering:auto;text-rendering:auto;enable-background:accumulate" />
        </g>
        <g
           id="g2804"
           style="stroke-width:0.81214106">
          <path
             style="color:#000000;font-style:normal;font-variant:normal;font-weight:normal;font-stretch:normal;font-size:medium;line-height:normal;font-family:sans-serif;font-variant-ligatures:normal;font-variant-position:normal;font-variant-caps:normal;font-variant-numeric:normal;font-variant-alternates:normal;font-feature-settings:normal;text-indent:0;text-align:start;text-decoration:none;text-decoration-line:none;text-decoration-style:solid;text-decoration-color:#000000;letter-spacing:normal;word-spacing:normal;text-transform:none;writing-mode:lr-tb;direction:ltr;text-orientation:mixed;dominant-baseline:auto;baseline-shift:baseline;text-anchor:start;white-space:normal;shape-padding:0;clip-rule:nonzero;display:inline;overflow:visible;visibility:visible;opacity:1;isolation:auto;mix-blend-mode:normal;color-interpolation:sRGB;color-interpolation-filters:linearRGB;solid-color:#000000;solid-opacity:1;vector-effect:none;fill:#039be5;fill-opacity:1;fill-rule:nonzero;stroke:none;stroke-width:0.42975906;stroke-linecap:round;stroke-linejoin:round;stroke-miterlimit:1.5;stroke-dasharray:none;stroke-dashoffset:0;stroke-opacity:1;paint-order:markers fill stroke;color-rendering:auto;image-rendering:auto;shape-rendering:auto;text-rendering:auto;enable-background:accumulate"
             d="m 75.035156,335.20703 a 0.26461046,0.26461046 0 0 0 -0.263671,0.26563 v 0.79296 c 0,0.58175 0.476844,1.0586 1.058593,1.0586 h 1.587891 c 0.581749,0 1.05664,-0.47685 1.05664,-1.0586 v -0.79296 a 0.26461046,0.26461046 0 0 0 -0.263671,-0.26563 z"
             id="path2733"
             inkscape:connector-curvature="0" />
          <path
             inkscape:connector-curvature="0"
             id="path2683"
             d="m 71.833984,331.56641 a 0.26460996,0.26460996 0 0 0 -0.238281,0.26367 v 6.55273 a 0.26460996,0.26460996 0 0 0 0.265625,0.26367 h 1.058594 a 0.26460996,0.26460996 0 0 0 0.263672,-0.26367 v -6.55273 a 0.26460996,0.26460996 0 0 0 -0.263672,-0.26367 h -1.058594 a 0.26460996,0.26460996 0 0 0 -0.02734,0 z"
             style="color:#000000;font-style:normal;font-variant:normal;font-weight:normal;font-stretch:normal;font-size:medium;line-height:normal;font-family:sans-serif;font-variant-ligatures:normal;font-variant-position:normal;font-variant-caps:normal;font-variant-numeric:normal;font-variant-alternates:normal;font-feature-settings:normal;text-indent:0;text-align:start;text-decoration:none;text-decoration-line:none;text-decoration-style:solid;text-decoration-color:#000000;letter-spacing:normal;word-spacing:normal;text-transform:none;writing-mode:lr-tb;direction:ltr;text-orientation:mixed;dominant-baseline:auto;baseline-shift:baseline;text-anchor:start;white-space:normal;shape-padding:0;clip-rule:nonzero;display:inline;overflow:visible;visibility:visible;opacity:1;isolation:auto;mix-blend-mode:normal;color-interpolation:sRGB;color-interpolation-filters:linearRGB;solid-color:#000000;solid-opacity:1;vector-effect:none;fill:#efebe9;fill-opacity:1;fill-rule:nonzero;stroke:none;stroke-width:0.42975822;stroke-linecap:round;stroke-linejoin:round;stroke-miterlimit:1.5;stroke-dasharray:none;stroke-dashoffset:0;stroke-opacity:1;paint-order:markers fill stroke;color-rendering:auto;image-rendering:auto;shape-rendering:auto;text-rendering:auto;enable-background:accumulate" />
          <path
             sodipodi:nodetypes="ccccccccccccc"
             inkscape:connector-curvature="0"
             id="path2745"
             d="m 71.833806,331.56653 c -0.135345,0.0136 -0.238361,0.12753 -0.238228,0.26355 v 0.76401 h 0.7953 c 0.145313,5.8e-4 0.262968,0.11824 0.263549,0.26355 v 5.78908 h 0.265618 c 0.145313,-5.8e-4 0.262968,-0.11824 0.263549,-0.26355 v -6.55309 c -5.81e-4,-0.14531 -0.118236,-0.26297 -0.263549,-0.26355 h -1.058852 c -0.0091,-4.7e-4 -0.01827,-4.7e-4 -0.02739,0 z"
             style="color:#000000;font-style:normal;font-variant:normal;font-weight:normal;font-stretch:normal;font-size:medium;line-height:normal;font-family:sans-serif;font-variant-ligatures:normal;font-variant-position:normal;font-variant-caps:normal;font-variant-numeric:normal;font-variant-alternates:normal;font-feature-settings:normal;text-indent:0;text-align:start;text-decoration:none;text-decoration-line:none;text-decoration-style:solid;text-decoration-color:#000000;letter-spacing:normal;word-spacing:normal;text-transform:none;writing-mode:lr-tb;direction:ltr;text-orientation:mixed;dominant-baseline:auto;baseline-shift:baseline;text-anchor:start;white-space:normal;shape-padding:0;clip-rule:nonzero;display:inline;overflow:visible;visibility:visible;opacity:1;isolation:auto;mix-blend-mode:normal;color-interpolation:sRGB;color-interpolation-filters:linearRGB;solid-color:#000000;solid-opacity:1;vector-effect:none;fill:#b7b4b3;fill-opacity:1;fill-rule:nonzero;stroke:none;stroke-width:0.42975822;stroke-linecap:round;stroke-linejoin:round;stroke-miterlimit:1.5;stroke-dasharray:none;stroke-dashoffset:0;stroke-opacity:1;paint-order:markers fill stroke;color-rendering:auto;image-rendering:auto;shape-rendering:auto;text-rendering:auto;enable-background:accumulate" />
          <path
             inkscape:connector-curvature="0"
             id="path2679"
             d="m 72.390625,330.17969 c -0.581368,0 -1.058594,0.47722 -1.058594,1.05859 0,0.58137 0.477226,1.0586 1.058594,1.0586 0.581368,0 1.058594,-0.47723 1.058594,-1.0586 0,-0.58137 -0.477226,-1.05859 -1.058594,-1.05859 z"
             style="color:#000000;font-style:normal;font-variant:normal;font-weight:normal;font-stretch:normal;font-size:medium;line-height:normal;font-family:sans-serif;font-variant-ligatures:normal;font-variant-position:normal;font-variant-caps:normal;font-variant-numeric:normal;font-variant-alternates:normal;font-feature-settings:normal;text-indent:0;text-align:start;text-decoration:none;text-decoration-line:none;text-decoration-style:solid;text-decoration-color:#000000;letter-spacing:normal;word-spacing:normal;text-transform:none;writing-mode:lr-tb;direction:ltr;text-orientation:mixed;dominant-baseline:auto;baseline-shift:baseline;text-anchor:start;white-space:normal;shape-padding:0;clip-rule:nonzero;display:inline;overflow:visible;visibility:visible;opacity:1;isolation:auto;mix-blend-mode:normal;color-interpolation:sRGB;color-interpolation-filters:linearRGB;solid-color:#000000;solid-opacity:1;vector-effect:none;fill:#444444;fill-opacity:1;fill-rule:nonzero;stroke:none;stroke-width:0.42975906;stroke-linecap:round;stroke-linejoin:round;stroke-miterlimit:1.5;stroke-dasharray:none;stroke-dashoffset:0;stroke-opacity:1;paint-order:markers fill stroke;color-rendering:auto;image-rendering:auto;shape-rendering:auto;text-rendering:auto;enable-background:accumulate" />
          <path
             inkscape:connector-curvature="0"
             id="path2719"
             d="m 71.066406,338.11719 c -0.148819,0 -0.289832,0.0818 -0.36914,0.17383 -0.07931,0.092 -0.117928,0.18776 -0.146485,0.27343 l -0.263672,0.79297 a 0.26460996,0.26460996 0 0 0 0.25,0.34766 h 3.705079 a 0.26460996,0.26460996 0 0 0 0.25,-0.34766 l -0.263672,-0.79297 c -0.02856,-0.0857 -0.06522,-0.18142 -0.144532,-0.27343 -0.07931,-0.092 -0.222274,-0.17383 -0.371093,-0.17383 z"
             style="color:#000000;font-style:normal;font-variant:normal;font-weight:normal;font-stretch:normal;font-size:medium;line-height:normal;font-family:sans-serif;font-variant-ligatures:normal;font-variant-position:normal;font-variant-caps:normal;font-variant-numeric:normal;font-variant-alternates:normal;font-feature-settings:normal;text-indent:0;text-align:start;text-decoration:none;text-decoration-line:none;text-decoration-style:solid;text-decoration-color:#000000;letter-spacing:normal;word-spacing:normal;text-transform:none;writing-mode:lr-tb;direction:ltr;text-orientation:mixed;dominant-baseline:auto;baseline-shift:baseline;text-anchor:start;white-space:normal;shape-padding:0;clip-rule:nonzero;display:inline;overflow:visible;visibility:visible;opacity:1;isolation:auto;mix-blend-mode:normal;color-interpolation:sRGB;color-interpolation-filters:linearRGB;solid-color:#000000;solid-opacity:1;vector-effect:none;fill:#b7b4b3;fill-opacity:1;fill-rule:nonzero;stroke:none;stroke-width:0.42975822;stroke-linecap:round;stroke-linejoin:round;stroke-miterlimit:1.5;stroke-dasharray:none;stroke-dashoffset:0;stroke-opacity:1;paint-order:markers fill stroke;color-rendering:auto;image-rendering:auto;shape-rendering:auto;text-rendering:auto;enable-background:accumulate" />
          <path
             inkscape:connector-curvature="0"
             id="path2715"
             d="m 70.273438,339.17578 c -0.28911,0 -0.529294,0.24019 -0.529297,0.5293 v 0.5293 c 3e-6,0.2891 0.240187,0.52929 0.529297,0.52929 h 4.232421 c 0.289109,0 0.529294,-0.24019 0.529297,-0.52929 v -0.5293 c -3e-6,-0.28911 -0.240188,-0.5293 -0.529297,-0.5293 z"
             style="color:#000000;font-style:normal;font-variant:normal;font-weight:normal;font-stretch:normal;font-size:medium;line-height:normal;font-family:sans-serif;font-variant-ligatures:normal;font-variant-position:normal;font-variant-caps:normal;font-variant-numeric:normal;font-variant-alternates:normal;font-feature-settings:normal;text-indent:0;text-align:start;text-decoration:none;text-decoration-line:none;text-decoration-style:solid;text-decoration-color:#000000;letter-spacing:normal;word-spacing:normal;text-transform:none;writing-mode:lr-tb;direction:ltr;text-orientation:mixed;dominant-baseline:auto;baseline-shift:baseline;text-anchor:start;white-space:normal;shape-padding:0;clip-rule:nonzero;display:inline;overflow:visible;visibility:visible;opacity:1;isolation:auto;mix-blend-mode:normal;color-interpolation:sRGB;color-interpolation-filters:linearRGB;solid-color:#000000;solid-opacity:1;vector-effect:none;fill:#444444;fill-opacity:1;fill-rule:nonzero;stroke:none;stroke-width:0.42975822;stroke-linecap:round;stroke-linejoin:round;stroke-miterlimit:1.5;stroke-dasharray:none;stroke-dashoffset:0;stroke-opacity:1;paint-order:markers fill stroke;color-rendering:auto;image-rendering:auto;shape-rendering:auto;text-rendering:auto;enable-background:accumulate" />
          <path
             inkscape:connector-curvature="0"
             id="path2639"
             d="m 66.568359,335.20703 a 0.26461046,0.26461046 0 0 0 -0.263671,0.26563 v 0.79296 c 0,0.58175 0.476844,1.0586 1.058593,1.0586 h 1.587891 c 0.581749,0 1.05664,-0.47685 1.05664,-1.0586 v -0.79296 a 0.26461046,0.26461046 0 0 0 -0.263671,-0.26563 z"
             style="color:#000000;font-style:normal;font-variant:normal;font-weight:normal;font-stretch:normal;font-size:medium;line-height:normal;font-family:sans-serif;font-variant-ligatures:normal;font-variant-position:normal;font-variant-caps:normal;font-variant-numeric:normal;font-variant-alternates:normal;font-feature-settings:normal;text-indent:0;text-align:start;text-decoration:none;text-decoration-line:none;text-decoration-style:solid;text-decoration-color:#000000;letter-spacing:normal;word-spacing:normal;text-transform:none;writing-mode:lr-tb;direction:ltr;text-orientation:mixed;dominant-baseline:auto;baseline-shift:baseline;text-anchor:start;white-space:normal;shape-padding:0;clip-rule:nonzero;display:inline;overflow:visible;visibility:visible;opacity:1;isolation:auto;mix-blend-mode:normal;color-interpolation:sRGB;color-interpolation-filters:linearRGB;solid-color:#000000;solid-opacity:1;vector-effect:none;fill:#039be5;fill-opacity:1;fill-rule:nonzero;stroke:none;stroke-width:0.42975906;stroke-linecap:round;stroke-linejoin:round;stroke-miterlimit:1.5;stroke-dasharray:none;stroke-dashoffset:0;stroke-opacity:1;paint-order:markers fill stroke;color-rendering:auto;image-rendering:auto;shape-rendering:auto;text-rendering:auto;enable-background:accumulate" />
          <path
             inkscape:connector-curvature="0"
             id="path2675"
             d="m 72.390625,329.12305 c -0.435243,0 -0.794922,0.35772 -0.794922,0.79297 0,0.43524 0.359679,0.79296 0.794922,0.79296 0.435243,0 0.792969,-0.35772 0.792969,-0.79296 0,-0.43525 -0.357726,-0.79297 -0.792969,-0.79297 z"
             style="color:#000000;font-style:normal;font-variant:normal;font-weight:normal;font-stretch:normal;font-size:medium;line-height:normal;font-family:sans-serif;font-variant-ligatures:normal;font-variant-position:normal;font-variant-caps:normal;font-variant-numeric:normal;font-variant-alternates:normal;font-feature-settings:normal;text-indent:0;text-align:start;text-decoration:none;text-decoration-line:none;text-decoration-style:solid;text-decoration-color:#000000;letter-spacing:normal;word-spacing:normal;text-transform:none;writing-mode:lr-tb;direction:ltr;text-orientation:mixed;dominant-baseline:auto;baseline-shift:baseline;text-anchor:start;white-space:normal;shape-padding:0;clip-rule:nonzero;display:inline;overflow:visible;visibility:visible;opacity:1;isolation:auto;mix-blend-mode:normal;color-interpolation:sRGB;color-interpolation-filters:linearRGB;solid-color:#000000;solid-opacity:1;vector-effect:none;fill:#efebe9;fill-opacity:1;fill-rule:nonzero;stroke:none;stroke-width:0.42975906;stroke-linecap:round;stroke-linejoin:round;stroke-miterlimit:1.5;stroke-dasharray:none;stroke-dashoffset:0;stroke-opacity:1;paint-order:markers fill stroke;color-rendering:auto;image-rendering:auto;shape-rendering:auto;text-rendering:auto;enable-background:accumulate" />
        </g>
      </g>
      <path
         sodipodi:nodetypes="cccsccccsssccsscccccccccsssssscccccccccccccscccsccssccscccsccccccccccccccssssssccccccccssccsssccccsccccssssssssssccccscccccccccccsssscccsssscsscsssscssssscsssscsssssssssscccccsssssssssssssscccccsssssss"
         inkscape:connector-curvature="0"
         id="path1961"
         d="m 13.646396,283.60599 c -0.146179,0.003 -0.262673,0.12357 -0.259932,0.26975 v 0.31213 c -0.306509,0.10994 -0.529166,0.40163 -0.529166,0.74414 0,0.17969 0.06313,0.34458 0.165364,0.47852 -0.190415,0.14203 -0.330755,0.34491 -0.392739,0.58033 H 9.946881 c -0.1503941,0 -0.2656151,0.12268 -0.2656151,0.26564 v 0.26355 c 0,0.15116 -0.112398,0.26562 -0.263552,0.26562 -0.151153,0 -0.265615,-0.11446 -0.265615,-0.26562 v -0.26355 c 0,-0.16049 -0.133458,-0.26562 -0.308509,-0.26562 h -0.484209 c -0.352867,0 -0.352867,0.52916 0,0.52916 h 0.263552 c 0,0.34174 0.223141,0.63416 0.529166,0.74518 v 0.78858 l -0.02429,0.0543 h -0.239262 c -0.0091,-5.3e-4 -0.01826,-5.3e-4 -0.02739,0 -0.344625,0.0255 -0.318032,0.53935 0.02739,0.52917 h 0.0041 l -0.706417,1.58801 h -0.353985 c -0.145135,-4e-5 -0.268203,0.1015 -0.268203,0.26351 v 0.7953 c 0,0.58175 0.477102,1.05627 1.058852,1.05627 H 10.21091 c 0.581749,0 1.058333,-0.47452 1.058333,-1.05627 v -0.7953 c -5.29e-4,-0.14549 -0.11806,-0.26304 -0.263549,-0.26355 h -0.358111 l -0.7048661,-1.58801 h 0.0041 c 0.3607861,0.008 0.3607861,-0.53727 0,-0.52917 h -0.239262 l -0.02635,-0.0594 v -0.7829 c 0.3065411,-0.11045 0.5296821,-0.40321 0.5296821,-0.74569 h 2.418456 c 0.0421,0.16115 0.121028,0.30627 0.227894,0.4284 v 6.1867 H 12.32807 c -0.148817,0 -0.291727,0.0801 -0.371035,0.17208 -0.07931,0.092 -0.116137,0.18769 -0.144696,0.27337 l -0.205155,0.6134 h -0.07441 c -0.289108,0 -0.527095,0.24007 -0.527098,0.52917 v 0.52916 c 3e-6,0.28911 0.23799,0.52969 0.527098,0.52969 h 4.234368 c 0.289107,0 0.52968,-0.24058 0.529683,-0.52969 v -0.52916 c -3e-6,-0.2891 -0.240576,-0.52917 -0.529683,-0.52917 h -0.07338 l -0.203608,-0.6134 c -0.02856,-0.0857 -0.06746,-0.18135 -0.146759,-0.27337 -0.07931,-0.092 -0.220152,-0.17208 -0.368969,-0.17208 h -0.529167 v -6.18928 c 0.10573,-0.12161 0.184023,-0.26581 0.225824,-0.42582 h 2.418459 c 0,0.34169 0.22321,0.63412 0.529167,0.74518 v 0.78858 l -0.02429,0.0543 h -0.239261 c -0.0091,-5.3e-4 -0.01826,-5.3e-4 -0.02739,0 -0.344625,0.0255 -0.318032,0.53935 0.02739,0.52917 h 0.0041 l -0.706416,1.58801 h -0.356055 c -0.146169,-5.3e-4 -0.265099,0.11738 -0.265615,0.26355 v 0.79478 c 0,0.58175 0.476584,1.05679 1.058335,1.05679 h 1.588015 c 0.58175,0 1.058333,-0.47504 1.058333,-1.05679 v -0.79478 c 0,-0.17179 -0.08645,-0.26355 -0.30644,-0.26355 h -0.315217 l -0.706416,-1.58801 h 0.0062 c 0.360786,0.008 0.360786,-0.53727 0,-0.52917 h -0.241329 l -0.02429,-0.0543 v -0.78807 c 0.306303,-0.11058 0.529167,-0.40338 0.529167,-0.74569 h 0.265618 c 0.352867,0 0.352867,-0.52916 0,-0.52916 h -0.529167 c -0.176916,0 -0.265618,0.13499 -0.265618,0.26564 v 0.26355 c 0,0.15116 -0.112911,0.26561 -0.264067,0.26561 -0.151154,0 -0.265615,-0.11445 -0.265615,-0.26561 v -0.26355 c 0,-0.15548 -0.127424,-0.26563 -0.307994,-0.26563 h -2.640158 c -0.06192,-0.23517 -0.202102,-0.4378 -0.392223,-0.57981 0.102851,-0.13402 0.166915,-0.29912 0.166915,-0.47904 0,-0.34194 -0.223451,-0.63325 -0.529686,-0.74362 v -0.31264 c 0.0028,-0.15001 -0.119223,-0.27257 -0.269234,-0.26975 z m 0.0036,1.06247 c 0.149257,0 0.265616,0.11429 0.265616,0.26355 0,0.14926 -0.116359,0.26561 -0.265616,0.26561 -0.149259,0 -0.263551,-0.11635 -0.263551,-0.26561 0,-0.14926 0.114292,-0.26355 0.263551,-0.26355 z m 0,1.05885 c 0.295384,0 0.529683,0.23377 0.529683,0.52916 0,0.29538 -0.234299,0.52917 -0.529683,0.52917 -0.295386,0 -0.529166,-0.23379 -0.529166,-0.52917 0,-0.29539 0.23378,-0.52916 0.529166,-0.52916 z m 0.265616,1.54926 v 5.85855 h -0.529163 v -5.85804 c 0.08485,0.0222 0.172095,0.0377 0.263551,0.0377 0.09215,0 0.180181,-0.0157 0.265615,-0.0382 z m 3.96875,1.48156 0.651639,1.46709 h -1.302757 z m -8.466667,0.002 0.65164,1.46502 H 8.7660599 Z m -1.3239501,1.99418 H 10.7401 v 0.52917 c 0,0.29774 -0.231425,0.52968 -0.529166,0.52968 H 8.6229179 c -0.297744,0 -0.529167,-0.23194 -0.529167,-0.52968 z m 8.4666671,0 h 2.64635 v 0.52917 c 0,0.29774 -0.231425,0.52968 -0.529166,0.52968 h -1.588012 c -0.297743,0 -0.529166,-0.23194 -0.529166,-0.52968 z m -8.2010511,2.38073 c -0.435161,0 -0.795301,0.35808 -0.795301,0.79324 0,0.20323 0.0808,0.38831 0.208775,0.52968 -0.127975,0.14093 -0.208774,0.32543 -0.208774,0.52866 0,0.43516 0.36014,0.7953 0.795301,0.7953 H 9.681251 c 0.43516,0 0.795301,-0.36014 0.795301,-0.7953 0,-0.20323 -0.0808,-0.38773 -0.208775,-0.52865 0.127976,-0.14137 0.208775,-0.32645 0.208775,-0.52968 0,-0.43516 -0.360141,-0.79324 -0.795301,-0.79324 z m 9.2593841,0 c -0.43516,0 -0.792718,0.35808 -0.792718,0.79324 0,0.20332 0.08012,0.38828 0.20774,0.52968 -0.127616,0.14094 -0.20774,0.32533 -0.20774,0.52865 0,0.43516 0.357558,0.7953 0.792718,0.7953 h 1.324468 c 0.435157,0 0.792715,-0.36014 0.792715,-0.7953 0,-0.20332 -0.08012,-0.38771 -0.20774,-0.52865 0.127619,-0.1414 0.20774,-0.32636 0.20774,-0.52968 0,-0.43516 -0.357558,-0.79324 -0.792715,-0.79324 z m -9.2593841,0.52969 H 9.681251 c 0.151154,0 0.265615,0.1124 0.265615,0.26355 0,0.15116 -0.114461,0.26561 -0.265615,0.26561 H 8.3593659 c -0.151153,0 -0.265615,-0.11445 -0.265615,-0.26561 0,-0.15115 0.114462,-0.26355 0.265615,-0.26355 z m 3.9920041,0 h 2.597774 l 0.186553,0.52916 h -2.970871 z m 5.26738,0 h 1.324468 c 0.151153,0 0.263548,0.1124 0.263548,0.26355 0,0.15116 -0.112395,0.26561 -0.263548,0.26561 h -1.324468 c -0.151153,0 -0.263551,-0.11445 -0.263551,-0.26561 0,-0.15115 0.112398,-0.26355 0.263551,-0.26355 z m -9.2593841,1.05833 H 9.681251 c 0.151154,0 0.265615,0.11239 0.265615,0.26355 0,0.15115 -0.114461,0.26562 -0.265615,0.26562 H 8.3593659 c -0.151153,0 -0.265615,-0.11447 -0.265615,-0.26562 0,-0.15116 0.114462,-0.26355 0.265615,-0.26355 z m 3.1734491,0 h 4.234368 v 0.52917 h -4.234367 z m 6.085935,0 h 1.324468 c 0.151153,0 0.263548,0.11239 0.263548,0.26355 0,0.15115 -0.112395,0.26562 -0.263548,0.26562 h -1.324468 c -0.151153,0 -0.263551,-0.11447 -0.263551,-0.26562 0,-0.15116 0.112398,-0.26355 0.263551,-0.26355 z"
         style="color:#000000;font-style:normal;font-variant:normal;font-weight:normal;font-stretch:normal;font-size:medium;line-height:normal;font-family:sans-serif;font-variant-ligatures:normal;font-variant-position:normal;font-variant-caps:normal;font-variant-numeric:normal;font-variant-alternates:normal;font-feature-settings:normal;text-indent:0;text-align:start;text-decoration:none;text-decoration-line:none;text-decoration-style:solid;text-decoration-color:#000000;letter-spacing:normal;word-spacing:normal;text-transform:none;writing-mode:lr-tb;direction:ltr;text-orientation:mixed;dominant-baseline:auto;baseline-shift:baseline;text-anchor:start;white-space:normal;shape-padding:0;clip-rule:nonzero;display:inline;overflow:visible;visibility:visible;opacity:1;isolation:auto;mix-blend-mode:normal;color-interpolation:sRGB;color-interpolation-filters:linearRGB;solid-color:#000000;solid-opacity:1;vector-effect:none;fill:#000000;fill-opacity:1;fill-rule:nonzero;stroke:none;stroke-width:0.42975906;stroke-linecap:round;stroke-linejoin:round;stroke-miterlimit:1.5;stroke-dasharray:none;stroke-dashoffset:0;stroke-opacity:1;paint-order:markers fill stroke;color-rendering:auto;image-rendering:auto;shape-rendering:auto;text-rendering:auto;enable-background:accumulate" />
    </g>
  </g>
</svg>
