<?xml version="1.0" encoding="iso-8859-1"?>
<!-- Generator: Adobe Illustrator 21.1.0, SVG Export Plug-In . SVG Version: 6.00 Build 0)  -->
<svg version="1.1" id="Layer_1" xmlns="http://www.w3.org/2000/svg" xmlns:xlink="http://www.w3.org/1999/xlink" x="0px" y="0px"
	 viewBox="0 0 24 24" enable-background="new 0 0 24 24" xml:space="preserve">
<g>
	<path fill="#303C42" d="M20.5,9H19V7c0-3.8598633-3.1401367-7-7-7S5,3.1401367,5,7v0.5C5,7.7763672,5.2236328,8,5.5,8h2
		C7.7763672,8,8,7.7763672,8,7.5V7c0-2.2055664,1.7944336-4,4-4s4,1.7944336,4,4v2H3.5C3.2236328,9,3,9.2236328,3,9.5V22
		c0,1.1030273,0.8969727,2,2,2h14c1.1030273,0,2-0.8969727,2-2V9.5C21,9.2236328,20.7763672,9,20.5,9z"/>
	<path fill="#F3F3F3" d="M12,2C9.2431641,2,7,4.2431641,7,7H6c0-3.3085938,2.6914063-6,6-6s6,2.6914063,6,6v2h-1V7
		C17,4.2431641,14.7568359,2,12,2z"/>
	<path fill="#FFCB29" d="M20,22c0,0.5512695-0.4487305,1-1,1H5c-0.5512695,0-1-0.4487305-1-1V10h16V22z"/>
	<path opacity="0.2" fill="#FFFFFF" d="M6,22V10H4v12c0,0.5512695,0.4487305,1,1,1h1.75C6.3365479,23,6,22.5512695,6,22z"/>
	<path opacity="0.1" fill="#010101" d="M18,10v12c0,0.5512695-0.3365479,1-0.75,1H19c0.5512695,0,1-0.4487305,1-1V10H18z"/>
	<path fill="#303C42" d="M10.8183594,16.6083984l-0.3154297,2.8364258c-0.015625,0.1411133,0.0297852,0.2827148,0.1245117,0.3886719
		S10.8579102,20,11,20h2c0.1420898,0,0.277832-0.0605469,0.3725586-0.1665039s0.1401367-0.2475586,0.1245117-0.3886719
		l-0.3154297-2.8364258C13.6938477,16.2358398,14,15.6464844,14,15c0-1.1030273-0.8969727-2-2-2s-2,0.8969727-2,2
		C10,15.6464844,10.3061523,16.2358398,10.8183594,16.6083984z"/>
	<path fill="#5C6771" d="M12,14c0.5512695,0,1,0.4487305,1,1c0,0.3833008-0.2177734,0.7265625-0.5683594,0.8964844
		c-0.190918,0.0927734-0.3027344,0.2949219-0.2792969,0.5053711L12.4414063,19h-0.8828125l0.2890625-2.5981445
		c0.0234375-0.2104492-0.0883789-0.4125977-0.2792969-0.5053711C11.2177734,15.7265625,11,15.3833008,11,15
		C11,14.4487305,11.4487305,14,12,14z"/>
	<path opacity="0.1" fill="#010101" d="M11.6116943,15.937561C11.5444946,15.8032227,11.5,15.6569214,11.5,15.5
		c0-0.5512695,0.4487305-1,1-1c0.1462402,0,0.2828369,0.0350952,0.4082031,0.0917969C12.7512207,14.2446289,12.4050293,14,12,14
		c-0.5512695,0-1,0.4487305-1,1c0,0.3833008,0.2177734,0.7265625,0.5683594,0.8964844
		C11.5871582,15.9056396,11.5944824,15.9263916,11.6116943,15.937561z"/>
	<path opacity="0.1" fill="#010101" d="M12.277832,17.5296021l-0.116272-1.0447388
		c-0.0328369-0.0285034-0.0527344-0.0687256-0.0932007-0.0883789c-0.0982666-0.0476074-0.1828003-0.1113892-0.2583618-0.1833496
		c0.0180664,0.0620117,0.045105,0.1218262,0.0376587,0.1887207L11.5585938,19h0.555603L12.277832,17.5296021z"/>
	<linearGradient id="SVGID_1_" gradientUnits="userSpaceOnUse" x1="3.0810683" y1="9.2148428" x2="22.8663654" y2="18.4408798">
		<stop  offset="0" style="stop-color:#FFFFFF;stop-opacity:0.2"/>
		<stop  offset="1" style="stop-color:#FFFFFF;stop-opacity:0"/>
	</linearGradient>
	<path fill="url(#SVGID_1_)" d="M20.5,9H19V7c0-3.8598633-3.1401367-7-7-7S5,3.1401367,5,7v0.5C5,7.7763672,5.2236328,8,5.5,8h2
		C7.7763672,8,8,7.7763672,8,7.5V7c0-2.2055664,1.7944336-4,4-4s4,1.7944336,4,4v2H3.5C3.2236328,9,3,9.2236328,3,9.5V22
		c0,1.1030273,0.8969727,2,2,2h14c1.1030273,0,2-0.8969727,2-2V9.5C21,9.2236328,20.7763672,9,20.5,9z"/>
</g>
<g>
</g>
<g>
</g>
<g>
</g>
<g>
</g>
<g>
</g>
<g>
</g>
<g>
</g>
<g>
</g>
<g>
</g>
<g>
</g>
<g>
</g>
<g>
</g>
<g>
</g>
<g>
</g>
<g>
</g>
</svg>
