<?xml version="1.0" encoding="UTF-8" standalone="no"?>
<!-- Created with Inkscape (http://www.inkscape.org/) -->

<svg
   xmlns:dc="http://purl.org/dc/elements/1.1/"
   xmlns:cc="http://creativecommons.org/ns#"
   xmlns:rdf="http://www.w3.org/1999/02/22-rdf-syntax-ns#"
   xmlns:svg="http://www.w3.org/2000/svg"
   xmlns="http://www.w3.org/2000/svg"
   xmlns:sodipodi="http://sodipodi.sourceforge.net/DTD/sodipodi-0.dtd"
   xmlns:inkscape="http://www.inkscape.org/namespaces/inkscape"
   width="48pt"
   height="48pt"
   viewBox="0 0 16.933334 16.933333"
   version="1.1"
   id="svg979"
   inkscape:version="0.92.4 (5da689c313, 2019-01-14)"
   sodipodi:docname="29 - Certificate.svg"
   inkscape:export-filename="E:\TR Design Studio Creative\Project Design\TR Creative Design\Icon Design\Project Hiring\Icon Icons\003 - Business And Finance\Send\4 - Filled Line\29 - Certificate.png"
   inkscape:export-xdpi="768"
   inkscape:export-ydpi="768">
  <defs
     id="defs973" />
  <sodipodi:namedview
     id="base"
     pagecolor="#ffffff"
     bordercolor="#666666"
     borderopacity="1.0"
     inkscape:pageopacity="0.0"
     inkscape:pageshadow="2"
     inkscape:zoom="4.2734375"
     inkscape:cx="67.68087"
     inkscape:cy="22.661268"
     inkscape:document-units="pt"
     inkscape:current-layer="layer1"
     showgrid="false"
     units="pt"
     inkscape:window-width="1366"
     inkscape:window-height="716"
     inkscape:window-x="-8"
     inkscape:window-y="-8"
     inkscape:window-maximized="1"
     inkscape:snap-bbox="true"
     inkscape:bbox-nodes="true"
     inkscape:snap-nodes="false"
     showguides="false">
    <inkscape:grid
       type="xygrid"
       id="grid1526" />
    <sodipodi:guide
       position="0.97013909,15.963209"
       orientation="56.666615,0"
       id="guide1528"
       inkscape:locked="false" />
    <sodipodi:guide
       position="0.97013909,0.97016731"
       orientation="0,56.666667"
       id="guide1530"
       inkscape:locked="false" />
    <sodipodi:guide
       position="15.963195,0.97016731"
       orientation="-56.666615,0"
       id="guide1532"
       inkscape:locked="false" />
    <sodipodi:guide
       position="15.963195,15.963209"
       orientation="0,-56.666667"
       id="guide1534"
       inkscape:locked="false" />
  </sodipodi:namedview>
  <metadata
     id="metadata976">
    <rdf:RDF>
      <cc:Work
         rdf:about="">
        <dc:format>image/svg+xml</dc:format>
        <dc:type
           rdf:resource="http://purl.org/dc/dcmitype/StillImage" />
        <dc:title></dc:title>
      </cc:Work>
    </rdf:RDF>
  </metadata>
  <g
     inkscape:label="Layer 1"
     inkscape:groupmode="layer"
     id="layer1"
     transform="translate(0,-280.06668)">
    <g
       id="g1900"
       transform="matrix(1.2317081,0,0,1.2317081,-5.1837517,-65.006225)"
       style="stroke-width:0.81188065">
      <path
         inkscape:connector-curvature="0"
         id="path2102"
         d="m 5.5125468,282.26909 c -0.280433,0 -0.515625,0.23324 -0.515625,0.51368 v 8.49609 c 0,0.28043 0.235192,0.51562 0.515625,0.51562 H 16.653172 c 0.280432,0 0.515625,-0.23519 0.515625,-0.51562 v -8.49609 c 0,-0.28044 -0.235193,-0.51368 -0.515625,-0.51368 z"
         style="color:#000000;font-style:normal;font-variant:normal;font-weight:normal;font-stretch:normal;font-size:medium;line-height:normal;font-family:sans-serif;font-variant-ligatures:normal;font-variant-position:normal;font-variant-caps:normal;font-variant-numeric:normal;font-variant-alternates:normal;font-feature-settings:normal;text-indent:0;text-align:start;text-decoration:none;text-decoration-line:none;text-decoration-style:solid;text-decoration-color:#000000;letter-spacing:normal;word-spacing:normal;text-transform:none;writing-mode:lr-tb;direction:ltr;text-orientation:mixed;dominant-baseline:auto;baseline-shift:baseline;text-anchor:start;white-space:normal;shape-padding:0;clip-rule:nonzero;display:inline;overflow:visible;visibility:visible;opacity:1;isolation:auto;mix-blend-mode:normal;color-interpolation:sRGB;color-interpolation-filters:linearRGB;solid-color:#000000;solid-opacity:1;vector-effect:none;fill:#444444;fill-opacity:1;fill-rule:nonzero;stroke:none;stroke-width:0.42962044;stroke-linecap:round;stroke-linejoin:round;stroke-miterlimit:1.5;stroke-dasharray:none;stroke-dashoffset:0;stroke-opacity:1;paint-order:markers fill stroke;color-rendering:auto;image-rendering:auto;shape-rendering:auto;text-rendering:auto;enable-background:accumulate" />
      <path
         inkscape:connector-curvature="0"
         id="path2106"
         d="m 7.3777808,283.32769 c -0.289114,0 -0.529293,0.24018 -0.529297,0.52929 v 0.26368 h -0.263672 c -0.289114,0 -0.529293,0.24018 -0.529297,0.52929 v 4.76172 c -7e-6,0.28912 0.240176,0.5293 0.529297,0.5293 h 0.263672 v 0.26562 c -7e-6,0.28913 0.240176,0.5293 0.529297,0.5293 h 7.4082032 c 0.289122,0 0.529304,-0.24017 0.529297,-0.5293 v -0.26562 h 0.265625 c 0.289121,0 0.529304,-0.24018 0.529297,-0.5293 v -4.76172 c -4e-6,-0.28911 -0.240183,-0.52929 -0.529297,-0.52929 h -0.265625 v -0.26368 c -4e-6,-0.28911 -0.240183,-0.52929 -0.529297,-0.52929 z"
         style="color:#000000;font-style:normal;font-variant:normal;font-weight:normal;font-stretch:normal;font-size:medium;line-height:normal;font-family:sans-serif;font-variant-ligatures:normal;font-variant-position:normal;font-variant-caps:normal;font-variant-numeric:normal;font-variant-alternates:normal;font-feature-settings:normal;text-indent:0;text-align:start;text-decoration:none;text-decoration-line:none;text-decoration-style:solid;text-decoration-color:#000000;letter-spacing:normal;word-spacing:normal;text-transform:none;writing-mode:lr-tb;direction:ltr;text-orientation:mixed;dominant-baseline:auto;baseline-shift:baseline;text-anchor:start;white-space:normal;shape-padding:0;clip-rule:nonzero;display:inline;overflow:visible;visibility:visible;opacity:1;isolation:auto;mix-blend-mode:normal;color-interpolation:sRGB;color-interpolation-filters:linearRGB;solid-color:#000000;solid-opacity:1;vector-effect:none;fill:#efebe9;fill-opacity:1;fill-rule:nonzero;stroke:none;stroke-width:0.42962018;stroke-linecap:round;stroke-linejoin:round;stroke-miterlimit:1.5;stroke-dasharray:none;stroke-dashoffset:0;stroke-opacity:1;paint-order:markers fill stroke;color-rendering:auto;image-rendering:auto;shape-rendering:auto;text-rendering:auto;enable-background:accumulate" />
      <path
         inkscape:connector-curvature="0"
         id="path2114"
         d="m 7.9071593,283.32761 v 1.46502 c 0,0.35286 0.5291667,0.35286 0.5291667,0 h 0.5291666 c 0,0.35286 0.5296826,0.35286 0.5296826,0 v -1.46502 z"
         style="color:#000000;font-style:normal;font-variant:normal;font-weight:normal;font-stretch:normal;font-size:medium;line-height:normal;font-family:sans-serif;font-variant-ligatures:normal;font-variant-position:normal;font-variant-caps:normal;font-variant-numeric:normal;font-variant-alternates:normal;font-feature-settings:normal;text-indent:0;text-align:start;text-decoration:none;text-decoration-line:none;text-decoration-style:solid;text-decoration-color:#000000;letter-spacing:normal;word-spacing:normal;text-transform:none;writing-mode:lr-tb;direction:ltr;text-orientation:mixed;dominant-baseline:auto;baseline-shift:baseline;text-anchor:start;white-space:normal;shape-padding:0;clip-rule:nonzero;display:inline;overflow:visible;visibility:visible;opacity:1;isolation:auto;mix-blend-mode:normal;color-interpolation:sRGB;color-interpolation-filters:linearRGB;solid-color:#000000;solid-opacity:1;vector-effect:none;fill:#ffb03b;fill-opacity:1;fill-rule:nonzero;stroke:none;stroke-width:0.42962044;stroke-linecap:round;stroke-linejoin:round;stroke-miterlimit:1.5;stroke-dasharray:none;stroke-dashoffset:0;stroke-opacity:1;paint-order:markers fill stroke;color-rendering:auto;image-rendering:auto;shape-rendering:auto;text-rendering:auto;enable-background:accumulate" />
      <path
         inkscape:connector-curvature="0"
         id="path2112"
         d="m 8.6983243,287.29636 c -0.050858,0.001 -0.1004067,0.0166 -0.1426263,0.0449 l -0.5296826,0.35141 c -0.074271,0.0489 -0.1187476,0.13174 -0.1188561,0.22065 v 2.82257 h 1.5880159 v -2.82257 c 2.646e-4,-0.0885 -0.043778,-0.17133 -0.1173056,-0.22065 l -0.1328076,-0.0879 -0.3963591,-0.26356 c -0.044439,-0.0298 -0.096859,-0.0455 -0.1503786,-0.0449 z"
         style="color:#000000;font-style:normal;font-variant:normal;font-weight:normal;font-stretch:normal;font-size:medium;line-height:normal;font-family:sans-serif;font-variant-ligatures:normal;font-variant-position:normal;font-variant-caps:normal;font-variant-numeric:normal;font-variant-alternates:normal;font-feature-settings:normal;text-indent:0;text-align:start;text-decoration:none;text-decoration-line:none;text-decoration-style:solid;text-decoration-color:#000000;letter-spacing:normal;word-spacing:normal;text-transform:none;writing-mode:lr-tb;direction:ltr;text-orientation:mixed;dominant-baseline:auto;baseline-shift:baseline;text-anchor:start;white-space:normal;shape-padding:0;clip-rule:nonzero;display:inline;overflow:visible;visibility:visible;opacity:1;isolation:auto;mix-blend-mode:normal;color-interpolation:sRGB;color-interpolation-filters:linearRGB;solid-color:#000000;solid-opacity:1;vector-effect:none;fill:#ffb03b;fill-opacity:1;fill-rule:nonzero;stroke:none;stroke-width:0.42962044;stroke-linecap:round;stroke-linejoin:round;stroke-miterlimit:1.5;stroke-dasharray:none;stroke-dashoffset:0;stroke-opacity:1;paint-order:markers fill stroke;color-rendering:auto;image-rendering:auto;shape-rendering:auto;text-rendering:auto;enable-background:accumulate" />
      <path
         inkscape:connector-curvature="0"
         id="path2125"
         d="m 7.9070778,286.14409 a 0.26460995,0.26460995 0 0 0 -0.2636719,0.26368 v 1.68164 a 0.26460995,0.26460995 0 0 0 0.4101561,0.2207 l 0.6484379,-0.43164 0.646484,0.43164 a 0.26460995,0.26460995 0 0 0 0.41211,-0.2207 v -1.68164 a 0.26460995,0.26460995 0 0 0 -0.2656261,-0.26368 z"
         style="color:#000000;font-style:normal;font-variant:normal;font-weight:normal;font-stretch:normal;font-size:medium;line-height:normal;font-family:sans-serif;font-variant-ligatures:normal;font-variant-position:normal;font-variant-caps:normal;font-variant-numeric:normal;font-variant-alternates:normal;font-feature-settings:normal;text-indent:0;text-align:start;text-decoration:none;text-decoration-line:none;text-decoration-style:solid;text-decoration-color:#000000;letter-spacing:normal;word-spacing:normal;text-transform:none;writing-mode:lr-tb;direction:ltr;text-orientation:mixed;dominant-baseline:auto;baseline-shift:baseline;text-anchor:start;white-space:normal;shape-padding:0;clip-rule:nonzero;display:inline;overflow:visible;visibility:visible;opacity:1;isolation:auto;mix-blend-mode:normal;color-interpolation:sRGB;color-interpolation-filters:linearRGB;solid-color:#000000;solid-opacity:1;vector-effect:none;fill:#444444;fill-opacity:1;fill-rule:nonzero;stroke:none;stroke-width:0.42962044;stroke-linecap:round;stroke-linejoin:round;stroke-miterlimit:1.5;stroke-dasharray:none;stroke-dashoffset:0;stroke-opacity:1;paint-order:markers fill stroke;color-rendering:auto;image-rendering:auto;shape-rendering:auto;text-rendering:auto;enable-background:accumulate" />
      <path
         inkscape:connector-curvature="0"
         id="path2130"
         d="m 8.7019999,284.38628 c -0.727493,0 -1.3242191,0.59477 -1.3242191,1.32227 0,0.72749 0.5967261,1.32226 1.3242191,1.32226 0.7274931,0 1.3222651,-0.59477 1.3222651,-1.32226 0,-0.7275 -0.594772,-1.32227 -1.3222651,-1.32227 z"
         style="color:#000000;font-style:normal;font-variant:normal;font-weight:normal;font-stretch:normal;font-size:medium;line-height:normal;font-family:sans-serif;font-variant-ligatures:normal;font-variant-position:normal;font-variant-caps:normal;font-variant-numeric:normal;font-variant-alternates:normal;font-feature-settings:normal;text-indent:0;text-align:start;text-decoration:none;text-decoration-line:none;text-decoration-style:solid;text-decoration-color:#000000;letter-spacing:normal;word-spacing:normal;text-transform:none;writing-mode:lr-tb;direction:ltr;text-orientation:mixed;dominant-baseline:auto;baseline-shift:baseline;text-anchor:start;white-space:normal;shape-padding:0;clip-rule:nonzero;display:inline;overflow:visible;visibility:visible;opacity:1;isolation:auto;mix-blend-mode:normal;color-interpolation:sRGB;color-interpolation-filters:linearRGB;solid-color:#000000;solid-opacity:1;vector-effect:none;fill:#ffcd40;fill-opacity:1;fill-rule:nonzero;stroke:none;stroke-width:0.42962044;stroke-linecap:round;stroke-linejoin:round;stroke-miterlimit:1.5;stroke-dasharray:none;stroke-dashoffset:0;stroke-opacity:1;paint-order:markers fill stroke;color-rendering:auto;image-rendering:auto;shape-rendering:auto;text-rendering:auto;enable-background:accumulate" />
      <path
         sodipodi:nodetypes="ccccccccc"
         inkscape:connector-curvature="0"
         id="path2134"
         d="m 10.553291,284.65035 v 1.0586 c 5.29e-4,0.14541 0.118264,0.26316 0.263672,0.26367 h 3.439453 c 0.14617,5.6e-4 0.265107,-0.1175 0.265625,-0.26367 v -1.0586 c -5.29e-4,-0.14617 -0.119455,-0.26423 -0.265625,-0.26367 h -3.439453 c -0.144926,0 -0.263672,0.0975 -0.263672,0.26367 z"
         style="color:#000000;font-style:normal;font-variant:normal;font-weight:normal;font-stretch:normal;font-size:medium;line-height:normal;font-family:sans-serif;font-variant-ligatures:normal;font-variant-position:normal;font-variant-caps:normal;font-variant-numeric:normal;font-variant-alternates:normal;font-feature-settings:normal;text-indent:0;text-align:start;text-decoration:none;text-decoration-line:none;text-decoration-style:solid;text-decoration-color:#000000;letter-spacing:normal;word-spacing:normal;text-transform:none;writing-mode:lr-tb;direction:ltr;text-orientation:mixed;dominant-baseline:auto;baseline-shift:baseline;text-anchor:start;white-space:normal;shape-padding:0;clip-rule:nonzero;display:inline;overflow:visible;visibility:visible;opacity:1;isolation:auto;mix-blend-mode:normal;color-interpolation:sRGB;color-interpolation-filters:linearRGB;solid-color:#000000;solid-opacity:1;vector-effect:none;fill:#039be5;fill-opacity:1;fill-rule:nonzero;stroke:none;stroke-width:0.42962044;stroke-linecap:round;stroke-linejoin:round;stroke-miterlimit:1.5;stroke-dasharray:none;stroke-dashoffset:0;stroke-opacity:1;paint-order:markers fill stroke;color-rendering:auto;image-rendering:auto;shape-rendering:auto;text-rendering:auto;enable-background:accumulate" />
      <path
         inkscape:connector-curvature="0"
         id="path2151"
         d="m 5.5124737,282.26927 c -0.2804346,0 -0.5157312,0.23323 -0.5157312,0.51367 v 1.44332 c 1.0959228,-0.23039 1.7918695,-0.90526 1.9885079,-1.95699 z"
         style="color:#000000;font-style:normal;font-variant:normal;font-weight:normal;font-stretch:normal;font-size:medium;line-height:normal;font-family:sans-serif;font-variant-ligatures:normal;font-variant-position:normal;font-variant-caps:normal;font-variant-numeric:normal;font-variant-alternates:normal;font-feature-settings:normal;text-indent:0;text-align:start;text-decoration:none;text-decoration-line:none;text-decoration-style:solid;text-decoration-color:#000000;letter-spacing:normal;word-spacing:normal;text-transform:none;writing-mode:lr-tb;direction:ltr;text-orientation:mixed;dominant-baseline:auto;baseline-shift:baseline;text-anchor:start;white-space:normal;shape-padding:0;clip-rule:nonzero;display:inline;overflow:visible;visibility:visible;opacity:1;isolation:auto;mix-blend-mode:normal;color-interpolation:sRGB;color-interpolation-filters:linearRGB;solid-color:#000000;solid-opacity:1;vector-effect:none;fill:#efebe9;fill-opacity:1;fill-rule:nonzero;stroke:none;stroke-width:0.42962044;stroke-linecap:round;stroke-linejoin:round;stroke-miterlimit:1.5;stroke-dasharray:none;stroke-dashoffset:0;stroke-opacity:1;paint-order:markers fill stroke;color-rendering:auto;image-rendering:auto;shape-rendering:auto;text-rendering:auto;enable-background:accumulate" />
      <path
         inkscape:connector-curvature="0"
         id="path2155"
         d="m 15.175965,282.26927 c 0.201054,1.155 0.956818,1.75761 1.992643,1.96319 v -1.44952 c 0,-0.28044 -0.234781,-0.51367 -0.515212,-0.51367 z"
         style="color:#000000;font-style:normal;font-variant:normal;font-weight:normal;font-stretch:normal;font-size:medium;line-height:normal;font-family:sans-serif;font-variant-ligatures:normal;font-variant-position:normal;font-variant-caps:normal;font-variant-numeric:normal;font-variant-alternates:normal;font-feature-settings:normal;text-indent:0;text-align:start;text-decoration:none;text-decoration-line:none;text-decoration-style:solid;text-decoration-color:#000000;letter-spacing:normal;word-spacing:normal;text-transform:none;writing-mode:lr-tb;direction:ltr;text-orientation:mixed;dominant-baseline:auto;baseline-shift:baseline;text-anchor:start;white-space:normal;shape-padding:0;clip-rule:nonzero;display:inline;overflow:visible;visibility:visible;opacity:1;isolation:auto;mix-blend-mode:normal;color-interpolation:sRGB;color-interpolation-filters:linearRGB;solid-color:#000000;solid-opacity:1;vector-effect:none;fill:#efebe9;fill-opacity:1;fill-rule:nonzero;stroke:none;stroke-width:0.42962044;stroke-linecap:round;stroke-linejoin:round;stroke-miterlimit:1.5;stroke-dasharray:none;stroke-dashoffset:0;stroke-opacity:1;paint-order:markers fill stroke;color-rendering:auto;image-rendering:auto;shape-rendering:auto;text-rendering:auto;enable-background:accumulate" />
      <path
         inkscape:connector-curvature="0"
         id="path2159"
         d="m 4.9967425,289.83057 v 1.44849 c 0,0.28043 0.2352966,0.51521 0.5157312,0.51521 h 1.477428 c -0.2006917,-1.1586 -0.957027,-1.75914 -1.9931592,-1.9637 z"
         style="color:#000000;font-style:normal;font-variant:normal;font-weight:normal;font-stretch:normal;font-size:medium;line-height:normal;font-family:sans-serif;font-variant-ligatures:normal;font-variant-position:normal;font-variant-caps:normal;font-variant-numeric:normal;font-variant-alternates:normal;font-feature-settings:normal;text-indent:0;text-align:start;text-decoration:none;text-decoration-line:none;text-decoration-style:solid;text-decoration-color:#000000;letter-spacing:normal;word-spacing:normal;text-transform:none;writing-mode:lr-tb;direction:ltr;text-orientation:mixed;dominant-baseline:auto;baseline-shift:baseline;text-anchor:start;white-space:normal;shape-padding:0;clip-rule:nonzero;display:inline;overflow:visible;visibility:visible;opacity:1;isolation:auto;mix-blend-mode:normal;color-interpolation:sRGB;color-interpolation-filters:linearRGB;solid-color:#000000;solid-opacity:1;vector-effect:none;fill:#efebe9;fill-opacity:1;fill-rule:nonzero;stroke:none;stroke-width:0.42962044;stroke-linecap:round;stroke-linejoin:round;stroke-miterlimit:1.5;stroke-dasharray:none;stroke-dashoffset:0;stroke-opacity:1;paint-order:markers fill stroke;color-rendering:auto;image-rendering:auto;shape-rendering:auto;text-rendering:auto;enable-background:accumulate" />
      <path
         inkscape:connector-curvature="0"
         id="path2163"
         d="m 17.168608,289.83729 c -1.09723,0.23003 -1.792372,0.90472 -1.988508,1.95698 h 1.473296 c 0.280431,0 0.515212,-0.23478 0.515212,-0.51521 z"
         style="color:#000000;font-style:normal;font-variant:normal;font-weight:normal;font-stretch:normal;font-size:medium;line-height:normal;font-family:sans-serif;font-variant-ligatures:normal;font-variant-position:normal;font-variant-caps:normal;font-variant-numeric:normal;font-variant-alternates:normal;font-feature-settings:normal;text-indent:0;text-align:start;text-decoration:none;text-decoration-line:none;text-decoration-style:solid;text-decoration-color:#000000;letter-spacing:normal;word-spacing:normal;text-transform:none;writing-mode:lr-tb;direction:ltr;text-orientation:mixed;dominant-baseline:auto;baseline-shift:baseline;text-anchor:start;white-space:normal;shape-padding:0;clip-rule:nonzero;display:inline;overflow:visible;visibility:visible;opacity:1;isolation:auto;mix-blend-mode:normal;color-interpolation:sRGB;color-interpolation-filters:linearRGB;solid-color:#000000;solid-opacity:1;vector-effect:none;fill:#efebe9;fill-opacity:1;fill-rule:nonzero;stroke:none;stroke-width:0.42962044;stroke-linecap:round;stroke-linejoin:round;stroke-miterlimit:1.5;stroke-dasharray:none;stroke-dashoffset:0;stroke-opacity:1;paint-order:markers fill stroke;color-rendering:auto;image-rendering:auto;shape-rendering:auto;text-rendering:auto;enable-background:accumulate" />
      <path
         sodipodi:nodetypes="ccccccccccccccccccccccccccccscsssscsccscsssscscccccscccccssccssccccsccccssccsscccccscccccccccccscccsccccccccccccccccsccccccccssccccccccccccccccccccccccccccccccsc"
         inkscape:connector-curvature="0"
         id="rect2174"
         d="m 5.5119558,282.26927 c -0.340122,0 -0.515731,0.22307 -0.515731,0.51366 v 8.49613 c 0,0.14035 0.05895,0.26889 0.152963,0.36276 0.09383,0.0937 0.222692,0.15245 0.362768,0.15245 3.7134161,-7.9e-4 7.4274812,5.3e-4 11.1403932,5.3e-4 0.322058,0 0.515731,-0.24498 0.515731,-0.51573 v -8.49612 c 0,-0.30463 -0.208762,-0.51369 -0.513676,-0.51369 -3.824449,1e-5 -7.8410172,-10e-6 -11.1424482,1e-5 z m 0.01344,0.52916 h 0.654224 c -0.169656,0.2705 -0.383426,0.48502 -0.654224,0.65423 z m 1.434023,0 h 8.2475572 c 0.267917,0.64994 0.781916,1.16486 1.431954,1.43247 v 5.60173 c -0.650038,0.26761 -1.164037,0.78254 -1.431954,1.43247 H 6.9594188 c -0.268058,-0.65027 -0.783593,-1.16574 -1.434023,-1.4335 v -5.6007 c 0.650277,-0.26761 1.165868,-0.78253 1.434023,-1.43247 z m 9.0252872,0 h 0.654224 v 0.65216 c -0.26998,-0.16914 -0.484989,-0.38224 -0.654224,-0.65216 z m -8.6061932,0.52865 c -0.289118,0 -0.529166,0.24006 -0.529166,0.52917 v 0.26458 h -0.264584 c -0.289118,0 -0.529166,0.24006 -0.529166,0.52917 v 4.7625 c 0,0.28912 0.240048,0.52916 0.529166,0.52916 h 0.264584 v 0.26459 c 0,0.28912 0.240048,0.52916 0.529166,0.52916 2.4685371,7.9e-4 4.9382132,0 7.4083422,0 0.289116,0 0.529167,-0.24004 0.529167,-0.52916 v -0.26459 h 0.264584 c 0.289116,0 0.529167,-0.24004 0.529167,-0.52916 V 284.65 c 0,-0.28911 -0.240051,-0.52917 -0.529167,-0.52917 h -0.264583 v -0.26458 c 0,-0.28911 -0.240051,-0.52917 -0.529167,-0.52917 -2.474161,-0.006 -4.9448591,0 -7.4083432,0 z m 0,0.52917 h 0.5296831 v 0.80202 c -0.318971,0.24194 -0.529167,0.62101 -0.529167,1.05007 0,0.29367 0.1001,0.56339 0.2635521,0.78341 v 1.59784 c -5.292e-4,0.14692 0.1186868,0.26617 0.2656149,0.26561 v 1.85105 H 7.3785128 v -0.26458 c 0,-0.28912 -0.2400509,-0.52917 -0.529166,-0.52917 H 6.5847628 V 284.65 h 0.264584 c 0.2891151,0 0.529166,-0.24005 0.529166,-0.52916 z m 1.0593681,0 h 0.5270979 v 0.55656 c -0.08524,-0.0174 -0.173342,-0.0264 -0.2635488,-0.0264 -0.09021,0 -0.1783051,0.009 -0.2635491,0.0264 z m 1.0562651,0 h 5.292701 v 0.26459 c 0,0.28911 0.240049,0.52916 0.529167,0.52916 h 0.264583 v 4.7625 h -0.264583 c -0.289118,0 -0.529167,0.24005 -0.529167,0.52917 v 0.26458 H 9.494146 v -1.85105 c 0.1469279,5.3e-4 0.266178,-0.11869 0.2656168,-0.26561 v -1.59784 c 0.1634792,-0.22003 0.2640682,-0.48971 0.2640682,-0.78341 0,-0.4292 -0.2105321,-0.80814 -0.529685,-1.05007 z m 1.058158,0.79395 v 1.05885 c 5.29e-4,0.14612 0.119497,0.26411 0.265618,0.26355 h 3.439584 c 0.145314,-5.3e-4 0.262969,-0.11824 0.263548,-0.26355 v -1.05885 c -5.29e-4,-0.14531 -0.118237,-0.26297 -0.263548,-0.26355 h -3.439584 c -0.171788,0 -0.265618,0.11886 -0.265618,0.26355 z m -1.058158,1.05814 c 0,0.44151 -0.3512061,0.79323 -0.792716,0.79323 -0.520877,0 -0.7932312,-0.32966 -0.7932312,-0.79323 0,-0.44151 0.3517242,-0.79271 0.7932312,-0.79272 0.4415099,0 0.792716,0.35121 0.792716,0.79272 z m 1.588018,-0.79272 h 2.910417 v 0.5271 h -2.910417 z m -0.263551,1.58595 c -0.360477,-0.008 -0.360477,0.53695 0,0.52917 h 0.792718 c 0.360476,0.008 0.360476,-0.53695 0,-0.52917 z m 1.588018,0 c -0.360476,-0.008 -0.360476,0.53695 0,0.52917 h 1.851565 c 0.360476,0.008 0.360476,-0.53695 0,-0.52917 z m -4.2343682,0.41651 c 0.1623912,0.0716 0.3410349,0.11266 0.5291672,0.11266 0.188132,0 0.3667789,-0.0411 0.5291669,-0.11266 v 0.67696 l -0.382924,-0.2558 c -0.08875,-0.059 -0.2042499,-0.059 -0.2930049,0 l -0.3824052,0.2558 z m 3.1481292,0.90744 c -0.35306,0.0183 -0.325673,0.548 0.02739,0.52968 h 2.380734 c 0.353124,0 0.353124,-0.52968 0,-0.52968 h -2.380734 c -0.0091,-5.3e-4 -0.01826,-5.3e-4 -0.02739,0 z m -2.618962,0.0532 0.2635488,0.17571 v 2.1518 H 8.4378809 v -2.1518 z m 2.089796,1.26918 c -0.344625,0.0255 -0.318032,0.53935 0.02739,0.52917 h 0.529166 c 0.360786,0.008 0.360786,-0.53727 0,-0.52917 h -0.529166 c -0.0091,-5.3e-4 -0.01826,-5.3e-4 -0.02739,0 z m 1.455208,0 c -0.344625,0.0255 -0.318032,0.53935 0.02739,0.52917 h 0.529167 c 0.360786,0.008 0.360786,-0.53727 0,-0.52917 h -0.529167 c -0.0091,-5.3e-4 -0.01826,-5.3e-4 -0.02739,0 z m 1.454692,0 c -0.344625,0.0255 -0.318031,0.53935 0.02739,0.52917 h 0.529683 c 0.360786,0.008 0.360786,-0.53727 0,-0.52917 h -0.529683 c -0.0091,-5.3e-4 -0.01826,-5.3e-4 -0.02739,0 z m -8.1746962,1.3286 c 0.335965,0.18911 0.598776,0.45221 0.788067,0.78807 h -0.788067 z m 11.1125002,0.13436 v 0.65422 h -0.656291 c 0.169387,-0.27098 0.385504,-0.48457 0.656291,-0.65422 z"
         style="color:#000000;font-style:normal;font-variant:normal;font-weight:normal;font-stretch:normal;font-size:medium;line-height:normal;font-family:sans-serif;font-variant-ligatures:normal;font-variant-position:normal;font-variant-caps:normal;font-variant-numeric:normal;font-variant-alternates:normal;font-feature-settings:normal;text-indent:0;text-align:start;text-decoration:none;text-decoration-line:none;text-decoration-style:solid;text-decoration-color:#000000;letter-spacing:normal;word-spacing:normal;text-transform:none;writing-mode:lr-tb;direction:ltr;text-orientation:mixed;dominant-baseline:auto;baseline-shift:baseline;text-anchor:start;white-space:normal;shape-padding:0;clip-rule:nonzero;display:inline;overflow:visible;visibility:visible;opacity:1;isolation:auto;mix-blend-mode:normal;color-interpolation:sRGB;color-interpolation-filters:linearRGB;solid-color:#000000;solid-opacity:1;vector-effect:none;fill:#000000;fill-opacity:1;fill-rule:nonzero;stroke:none;stroke-width:0.42962044;stroke-linecap:round;stroke-linejoin:round;stroke-miterlimit:1.5;stroke-dasharray:none;stroke-dashoffset:0;stroke-opacity:1;paint-order:markers fill stroke;color-rendering:auto;image-rendering:auto;shape-rendering:auto;text-rendering:auto;enable-background:accumulate" />
    </g>
  </g>
</svg>
