<?xml version="1.0" ?><svg id="Capa_1" style="enable-background:new 0 0 512 512;" version="1.1" viewBox="0 0 512 512" xml:space="preserve" xmlns="http://www.w3.org/2000/svg" xmlns:xlink="http://www.w3.org/1999/xlink"><path d="M500.95,207.42c-0.89-2.64-2.33-5.08-4.25-7.16L439,141v27.52V226v32.54l0.8,0.94  C326.218,356.969,403.116,290.967,339,346H173.81l-0.46,0.4L173,346c-99.838-85.724-100.378-86.189-100.81-86.56L73,258.5V226  v-57.48V141l-57.7,59.26c-1.92,2.08-3.36,4.52-4.25,7.16c-0.69,2.05-1.05,4.21-1.05,6.41v242.71C10,472.73,23.117,486,39.46,486  h433.08c16.232,0,29.46-13.156,29.46-29.46V213.83C502,211.63,501.64,209.47,500.95,207.42z" style="fill:#C0E3F0;"/><path d="M439,258.54V141V83.48V26h-57.48H73v115v117.5l-0.81,0.94c3.279,2.816,97.268,83.519,100.81,86.56  l0.35,0.4l0.46-0.4H339c74.412-63.871-11.749,10.082,100.8-86.52L439,258.54z" style="fill:#3BCD92;"/><g><path d="M439,168.52V226h-57.48C388.76,197.89,410.89,175.76,439,168.52z" style="fill:#FEB756;"/><path d="M439,26v57.48c-28.11-7.24-50.24-29.37-57.48-57.48C381.52,26,439,26,439,26z" style="fill:#FEB756;"/><path d="M256,26c33.14,0,60,44.77,60,100s-26.86,100-60,100s-60-44.77-60-100S222.86,26,256,26z" style="fill:#FEB756;"/><path d="M73,26h57.48C123.24,54.11,101.11,76.24,73,83.48V26z" style="fill:#FEB756;"/><path d="M130.48,226H73v-57.48C101.11,175.76,123.24,197.89,130.48,226z" style="fill:#FEB756;"/></g><path d="M379,136c5.52,0,10-4.48,10-10s-4.48-10-10-10s-10,4.48-10,10C369,131.52,373.48,136,379,136z"/><path d="M173,416c-5.52,0-10,4.48-10,10s4.48,10,10,10s10-4.48,10-10S178.52,416,173,416z"/><path d="M133,136c5.52,0,10-4.48,10-10s-4.48-10-10-10s-10,4.48-10,10C123,131.52,127.48,136,133,136z"/><path d="M226,106c0,16.542,13.458,30,30,30c5.514,0,10,4.486,10,10s-4.486,10-10,10c-4.272,0-8.885-2.687-12.985-7.564  c-3.554-4.229-9.863-4.773-14.089-1.22c-4.228,3.554-4.773,9.861-1.22,14.089c5.346,6.36,11.632,10.791,18.294,13.025V186  c0,5.522,4.478,10,10,10s10-4.478,10-10v-11.72c11.639-4.128,20-15.243,20-28.28c0-16.542-13.458-30-30-30c-5.514,0-10-4.486-10-10  s4.486-10,10-10c3.542,0,7.282,1.808,10.815,5.227c3.971,3.841,10.299,3.737,14.141-0.232c3.84-3.969,3.736-10.3-0.232-14.141  c-5.075-4.911-10.153-7.689-14.724-9.205V66c0-5.522-4.478-10-10-10s-10,4.478-10,10v11.72C234.361,81.848,226,92.964,226,106z"/><path d="M510.426,204.223c-1.354-4.013-3.5-7.628-6.377-10.745c-0.061-0.065-0.122-0.13-0.184-0.194L449,136.935V26  c0-5.522-4.478-10-10-10H73c-5.522,0-10,4.478-10,10v110.935L8.135,193.283c-0.062,0.064-0.123,0.129-0.184,0.194  c-2.877,3.117-5.022,6.732-6.38,10.754C0.528,207.332,0,210.562,0,213.83v242.71c0,12.319,5.598,23.708,15.356,31.244  c0.052,0.04,0.105,0.076,0.156,0.116c0.039,0.029,0.078,0.059,0.117,0.087c6.903,5.24,15.133,8.013,23.83,8.013h433.08  c9.366,0,18.441-3.338,25.543-9.388c0.098-0.083,0.188-0.172,0.285-0.256c0.032-0.029,0.064-0.056,0.096-0.086  c8.605-7.498,13.537-18.301,13.537-29.73V213.83C512,210.562,511.472,207.332,510.426,204.223z M492,456.54  c0,2.802-0.604,5.528-1.731,8.017L354.287,346.058L492,227.852V456.54z M22.335,465.796C20.82,462.998,20,459.838,20,456.54V227.799  l138.161,118.64L22.335,465.796z M137.865,36h77.481c-3.702,4.123-7.168,8.843-10.348,14.144C192.747,70.563,186,97.502,186,126  s6.747,55.438,18.998,75.856c3.18,5.3,6.647,10.021,10.348,14.144h-77.481C128.82,190.37,108.63,170.18,83,161.135v-70.27  C108.63,81.82,128.82,61.63,137.865,36z M374.135,36C383.18,61.63,403.37,81.82,429,90.865v70.27  c-25.63,9.045-45.82,29.235-54.865,54.865h-77.481c3.702-4.123,7.168-8.843,10.348-14.144C319.253,181.438,326,154.498,326,126  s-6.747-55.438-18.998-75.856c-3.18-5.3-6.647-10.021-10.348-14.144C296.654,36,374.135,36,374.135,36z M381.898,296H130.122  l-23.291-20h298.367L381.898,296z M429,216h-33.267c6.911-14.589,18.678-26.356,33.267-33.267V216z M306,126  c0,48.785-22.897,90-50,90s-50-41.215-50-90s22.897-90,50-90S306,77.215,306,126z M83,182.733  c14.589,6.911,26.356,18.678,33.267,33.267H83V182.733z M83,236h47.427c0.016,0,0.031,0.002,0.047,0.002  c0.01,0,0.021-0.002,0.031-0.002h250.99c0.01,0,0.021,0.002,0.031,0.002c0.016,0,0.031-0.002,0.047-0.002H429v19.57l-0.501,0.43  H83.54L83,255.536V236z M176.704,336l-23.291-20h205.184l-23.301,20H176.704z M487.612,205.261L449,238.403V226v-60.395  L487.612,205.261z M429,69.267C414.411,62.356,402.644,50.589,395.733,36H429V69.267z M116.267,36  C109.356,50.589,97.589,62.356,83,69.267V36H116.267z M63,226v12.362l-38.583-33.131L63,165.605V226z M41.023,476l136.551-120  h157.68l137.684,119.982c-0.133,0.003-0.265,0.018-0.398,0.018H41.023z"/><path d="M339,416H216c-5.522,0-10,4.478-10,10s4.478,10,10,10h123c5.522,0,10-4.478,10-10S344.522,416,339,416z"/><g/><g/><g/><g/><g/><g/><g/><g/><g/><g/><g/><g/><g/><g/><g/></svg>