<?xml version="1.0" encoding="UTF-8" standalone="no"?>
<!-- Created with Inkscape (http://www.inkscape.org/) -->

<svg
   xmlns:dc="http://purl.org/dc/elements/1.1/"
   xmlns:cc="http://creativecommons.org/ns#"
   xmlns:rdf="http://www.w3.org/1999/02/22-rdf-syntax-ns#"
   xmlns:svg="http://www.w3.org/2000/svg"
   xmlns="http://www.w3.org/2000/svg"
   xmlns:sodipodi="http://sodipodi.sourceforge.net/DTD/sodipodi-0.dtd"
   xmlns:inkscape="http://www.inkscape.org/namespaces/inkscape"
   width="48pt"
   height="48pt"
   viewBox="0 0 16.933334 16.933333"
   version="1.1"
   id="svg979"
   inkscape:version="0.92.4 (5da689c313, 2019-01-14)"
   sodipodi:docname="13 - Notebook.svg"
   inkscape:export-filename="E:\TR Design Studio Creative\Project Design\TR Creative Design\Icon Design\Project Hiring\Icon Icons\003 - Business And Finance\Send\4 - Filled Line\13 - Notebook.png"
   inkscape:export-xdpi="768"
   inkscape:export-ydpi="768">
  <defs
     id="defs973" />
  <sodipodi:namedview
     id="base"
     pagecolor="#ffffff"
     bordercolor="#666666"
     borderopacity="1.0"
     inkscape:pageopacity="0.0"
     inkscape:pageshadow="2"
     inkscape:zoom="4.2734375"
     inkscape:cx="67.68087"
     inkscape:cy="16.319711"
     inkscape:document-units="pt"
     inkscape:current-layer="layer1"
     showgrid="false"
     units="pt"
     inkscape:window-width="1366"
     inkscape:window-height="716"
     inkscape:window-x="-8"
     inkscape:window-y="-8"
     inkscape:window-maximized="1"
     inkscape:snap-bbox="true"
     inkscape:bbox-nodes="true"
     inkscape:snap-nodes="false"
     showguides="false">
    <inkscape:grid
       type="xygrid"
       id="grid1526" />
    <sodipodi:guide
       position="0.97013909,15.963209"
       orientation="56.666615,0"
       id="guide1528"
       inkscape:locked="false" />
    <sodipodi:guide
       position="0.97013909,0.97016731"
       orientation="0,56.666667"
       id="guide1530"
       inkscape:locked="false" />
    <sodipodi:guide
       position="15.963195,0.97016731"
       orientation="-56.666615,0"
       id="guide1532"
       inkscape:locked="false" />
    <sodipodi:guide
       position="15.963195,15.963209"
       orientation="0,-56.666667"
       id="guide1534"
       inkscape:locked="false" />
  </sodipodi:namedview>
  <metadata
     id="metadata976">
    <rdf:RDF>
      <cc:Work
         rdf:about="">
        <dc:format>image/svg+xml</dc:format>
        <dc:type
           rdf:resource="http://purl.org/dc/dcmitype/StillImage" />
        <dc:title></dc:title>
      </cc:Work>
    </rdf:RDF>
  </metadata>
  <g
     inkscape:label="Layer 1"
     inkscape:groupmode="layer"
     id="layer1"
     transform="translate(0,-280.06668)">
    <g
       transform="matrix(1.2315901,0,0,1.2315901,54.870012,-96.538697)"
       id="g2091"
       style="stroke-width:0.81195849">
      <path
         inkscape:connector-curvature="0"
         style="color:#000000;font-style:normal;font-variant:normal;font-weight:normal;font-stretch:normal;font-size:medium;line-height:normal;font-family:sans-serif;font-variant-ligatures:normal;font-variant-position:normal;font-variant-caps:normal;font-variant-numeric:normal;font-variant-alternates:normal;font-feature-settings:normal;text-indent:0;text-align:start;text-decoration:none;text-decoration-line:none;text-decoration-style:solid;text-decoration-color:#000000;letter-spacing:normal;word-spacing:normal;text-transform:none;writing-mode:lr-tb;direction:ltr;text-orientation:mixed;dominant-baseline:auto;baseline-shift:baseline;text-anchor:start;white-space:normal;shape-padding:0;clip-rule:nonzero;display:inline;overflow:visible;visibility:visible;isolation:auto;mix-blend-mode:normal;color-interpolation:sRGB;color-interpolation-filters:linearRGB;solid-color:#000000;solid-opacity:1;vector-effect:none;fill:#efebe9;fill-opacity:1;fill-rule:nonzero;stroke:none;stroke-width:0.42966163;stroke-linecap:round;stroke-linejoin:round;stroke-miterlimit:4;stroke-dasharray:none;stroke-dashoffset:0;stroke-opacity:1;color-rendering:auto;image-rendering:auto;shape-rendering:auto;text-rendering:auto;enable-background:accumulate"
         d="m -40.058624,316.10269 c 0,0 -0.37256,-0.004 -0.759766,0.15039 -0.193603,0.0774 -0.399488,0.19741 -0.560547,0.39063 -0.161058,0.19322 -0.267578,0.46157 -0.267578,0.78125 0,0.31967 0.106547,0.58798 0.267578,0.78125 0.161032,0.19327 0.366959,0.31313 0.560547,0.39062 0.387176,0.15499 0.759766,0.15235 0.759766,0.15235 h 6.349609 a 0.26460996,0.26460996 0 0 0 0.265625,-0.26563 v -1.05859 a 0.26460996,0.26460996 0 0 0 -0.265625,-0.26367 v -0.79492 a 0.26460996,0.26460996 0 0 0 -0.263671,-0.26368 z"
         id="path1367" />
      <path
         inkscape:connector-curvature="0"
         id="path1346"
         style="color:#000000;font-style:normal;font-variant:normal;font-weight:normal;font-stretch:normal;font-size:medium;line-height:normal;font-family:sans-serif;font-variant-ligatures:normal;font-variant-position:normal;font-variant-caps:normal;font-variant-numeric:normal;font-variant-alternates:normal;font-feature-settings:normal;text-indent:0;text-align:start;text-decoration:none;text-decoration-line:none;text-decoration-style:solid;text-decoration-color:#000000;letter-spacing:normal;word-spacing:normal;text-transform:none;writing-mode:lr-tb;direction:ltr;text-orientation:mixed;dominant-baseline:auto;baseline-shift:baseline;text-anchor:start;white-space:normal;shape-padding:0;clip-rule:nonzero;display:inline;overflow:visible;visibility:visible;isolation:auto;mix-blend-mode:normal;color-interpolation:sRGB;color-interpolation-filters:linearRGB;solid-color:#000000;solid-opacity:1;vector-effect:none;fill:#6d4c41;fill-opacity:1;fill-rule:nonzero;stroke:none;stroke-width:0.42966163;stroke-linecap:round;stroke-linejoin:round;stroke-miterlimit:4;stroke-dasharray:none;stroke-dashoffset:0;stroke-opacity:1;color-rendering:auto;image-rendering:auto;shape-rendering:auto;text-rendering:auto;enable-background:accumulate"
         d="m -33.972691,316.10242 -6.085933,5.2e-4 c -0.132292,0 -0.503006,-0.008 -0.867131,0.154 -0.364124,0.16183 -0.720886,0.55052 -0.720886,1.16788 0,0.61736 0.354675,1.00595 0.718819,1.16789 0.364145,0.16193 0.735873,0.15689 0.869198,0.15658 h 6.349483 0.529167 a 0.26460995,0.26460995 0 0 0 0.04341,-0.006 0.26460995,0.26460995 0 0 0 0.04289,-0.01 0.26460995,0.26460995 0 0 0 0.0739,-0.0429 0.26460995,0.26460995 0 0 0 0.07855,-0.1018 0.26460995,0.26460995 0 0 0 0.0155,-0.0408 0.26460995,0.26460995 0 0 0 0.0057,-0.0413 0.26460995,0.26460995 0 0 0 -0.0057,-0.0858 0.26460995,0.26460995 0 0 0 -0.03514,-0.0801 0.26460995,0.26460995 0 0 0 -0.02532,-0.0351 0.26460995,0.26460995 0 0 0 -0.03152,-0.0289 0.26460995,0.26460995 0 0 0 -0.03514,-0.0238 0.26460995,0.26460995 0 0 0 -0.08217,-0.0289 0.26460995,0.26460995 0 0 0 -0.04496,-0.004 h -0.26355 v -0.79479 a 0.26460995,0.26460995 0 0 0 -0.265617,-0.26406 v -0.79479 a 0.26460995,0.26460995 0 0 0 -0.26355,-0.26355 z m -6.085933,0.52969 h 5.820316 v 0.79271 a 0.26460995,0.26460995 0 0 0 0.265617,0.26562 v 0.52968 h -6.085933 c -0.131258,3.2e-4 -0.420988,-0.007 -0.652157,-0.10955 -0.231168,-0.1028 -0.406693,-0.24478 -0.406693,-0.68575 0,-0.44097 0.175506,-0.58093 0.406693,-0.68368 0.231188,-0.10275 0.519865,-0.10903 0.652157,-0.10903 z" />
      <path
         inkscape:connector-curvature="0"
         style="color:#000000;font-style:normal;font-variant:normal;font-weight:normal;font-stretch:normal;font-size:medium;line-height:normal;font-family:sans-serif;font-variant-ligatures:normal;font-variant-position:normal;font-variant-caps:normal;font-variant-numeric:normal;font-variant-alternates:normal;font-feature-settings:normal;text-indent:0;text-align:start;text-decoration:none;text-decoration-line:none;text-decoration-style:solid;text-decoration-color:#000000;letter-spacing:normal;word-spacing:normal;text-transform:none;writing-mode:lr-tb;direction:ltr;text-orientation:mixed;dominant-baseline:auto;baseline-shift:baseline;text-anchor:start;white-space:normal;shape-padding:0;clip-rule:nonzero;display:inline;overflow:visible;visibility:visible;isolation:auto;mix-blend-mode:normal;color-interpolation:sRGB;color-interpolation-filters:linearRGB;solid-color:#000000;solid-opacity:1;vector-effect:none;fill:#6d4c41;fill-opacity:1;fill-rule:nonzero;stroke:none;stroke-width:0.42966163;stroke-linecap:round;stroke-linejoin:round;stroke-miterlimit:4;stroke-dasharray:none;stroke-dashoffset:0;stroke-opacity:1;color-rendering:auto;image-rendering:auto;shape-rendering:auto;text-rendering:auto;enable-background:accumulate"
         d="m -40.587921,306.5773 c -0.308682,0 -0.58696,0.0807 -0.78125,0.27539 -0.194289,0.19466 -0.27619,0.47307 -0.277344,0.78125 a 0.26460996,0.26460996 0 0 0 0,0.002 v 0.52929 1.0586 2.11523 1.0586 1.85351 1.05664 2.11719 a 0.26460996,0.26460996 0 0 0 0.527344,0.0273 c 0.02775,-0.27661 0.09946,-0.47547 0.236328,-0.60547 0.136871,-0.12999 0.368923,-0.2268 0.816406,-0.21484 a 0.26460996,0.26460996 0 0 0 0.0078,0 h 6.34961 c 0.220489,0 0.409941,-0.10334 0.550782,-0.24414 0.14084,-0.1408 0.244332,-0.33014 0.24414,-0.55078 v -8.20117 c 0,-0.30869 -0.08269,-0.58855 -0.277343,-0.78321 -0.194654,-0.19465 -0.472569,-0.27539 -0.78125,-0.27539 z"
         id="path1315" />
      <path
         inkscape:connector-curvature="0"
         style="color:#000000;font-style:normal;font-variant:normal;font-weight:normal;font-stretch:normal;font-size:medium;line-height:normal;font-family:sans-serif;font-variant-ligatures:normal;font-variant-position:normal;font-variant-caps:normal;font-variant-numeric:normal;font-variant-alternates:normal;font-feature-settings:normal;text-indent:0;text-align:start;text-decoration:none;text-decoration-line:none;text-decoration-style:solid;text-decoration-color:#000000;letter-spacing:normal;word-spacing:normal;text-transform:none;writing-mode:lr-tb;direction:ltr;text-orientation:mixed;dominant-baseline:auto;baseline-shift:baseline;text-anchor:start;white-space:normal;shape-padding:0;clip-rule:nonzero;display:inline;overflow:visible;visibility:visible;isolation:auto;mix-blend-mode:normal;color-interpolation:sRGB;color-interpolation-filters:linearRGB;solid-color:#000000;solid-opacity:1;vector-effect:none;fill:#ffcd40;fill-opacity:1;fill-rule:nonzero;stroke:none;stroke-width:0.42966163;stroke-linecap:round;stroke-linejoin:round;stroke-miterlimit:4;stroke-dasharray:none;stroke-dashoffset:0;stroke-opacity:1;color-rendering:auto;image-rendering:auto;shape-rendering:auto;text-rendering:auto;enable-background:accumulate"
         d="m -37.41214,307.6359 a 0.26460996,0.26460996 0 0 0 -0.265625,0.26367 v 1.32422 a 0.2645835,0.2645835 0 0 0 0.0039,0.043 0.2645835,0.2645835 0 0 0 0.0098,0.041 0.2645835,0.2645835 0 0 0 0.103516,0.13477 0.2645835,0.2645835 0 0 0 0.148438,0.0449 h 2.644531 a 0.26460996,0.26460996 0 0 0 0.265625,-0.26367 v -1.32422 A 0.26460996,0.26460996 0 0 0 -34.7676,307.6359 Z"
         id="path1253" />
      <path
         inkscape:connector-curvature="0"
         style="color:#000000;font-style:normal;font-variant:normal;font-weight:normal;font-stretch:normal;font-size:medium;line-height:normal;font-family:sans-serif;font-variant-ligatures:normal;font-variant-position:normal;font-variant-caps:normal;font-variant-numeric:normal;font-variant-alternates:normal;font-feature-settings:normal;text-indent:0;text-align:start;text-decoration:none;text-decoration-line:none;text-decoration-style:solid;text-decoration-color:#000000;letter-spacing:normal;word-spacing:normal;text-transform:none;writing-mode:lr-tb;direction:ltr;text-orientation:mixed;dominant-baseline:auto;baseline-shift:baseline;text-anchor:start;white-space:normal;shape-padding:0;clip-rule:nonzero;display:inline;overflow:visible;visibility:visible;isolation:auto;mix-blend-mode:normal;color-interpolation:sRGB;color-interpolation-filters:linearRGB;solid-color:#000000;solid-opacity:1;vector-effect:none;fill:#b3b3b3;fill-opacity:1;fill-rule:nonzero;stroke:none;stroke-width:0.42966163;stroke-linecap:round;stroke-linejoin:round;stroke-miterlimit:4;stroke-dasharray:none;stroke-dashoffset:0;stroke-opacity:1;color-rendering:auto;image-rendering:auto;shape-rendering:auto;text-rendering:auto;enable-background:accumulate"
         d="m -41.646515,307.89957 c -0.435162,0 -0.792968,0.35976 -0.792968,0.79492 0,0.43516 0.357812,0.79297 0.792968,0.79297 h 0.529297 c 0.435157,0 0.794922,-0.35781 0.794922,-0.79297 0,-0.43516 -0.359759,-0.79492 -0.794922,-0.79492 z"
         id="path1268-6" />
      <path
         inkscape:connector-curvature="0"
         style="color:#000000;font-style:normal;font-variant:normal;font-weight:normal;font-stretch:normal;font-size:medium;line-height:normal;font-family:sans-serif;font-variant-ligatures:normal;font-variant-position:normal;font-variant-caps:normal;font-variant-numeric:normal;font-variant-alternates:normal;font-feature-settings:normal;text-indent:0;text-align:start;text-decoration:none;text-decoration-line:none;text-decoration-style:solid;text-decoration-color:#000000;letter-spacing:normal;word-spacing:normal;text-transform:none;writing-mode:lr-tb;direction:ltr;text-orientation:mixed;dominant-baseline:auto;baseline-shift:baseline;text-anchor:start;white-space:normal;shape-padding:0;clip-rule:nonzero;display:inline;overflow:visible;visibility:visible;isolation:auto;mix-blend-mode:normal;color-interpolation:sRGB;color-interpolation-filters:linearRGB;solid-color:#000000;solid-opacity:1;vector-effect:none;fill:#b3b3b3;fill-opacity:1;fill-rule:nonzero;stroke:none;stroke-width:0.42966163;stroke-linecap:round;stroke-linejoin:round;stroke-miterlimit:4;stroke-dasharray:none;stroke-dashoffset:0;stroke-opacity:1;color-rendering:auto;image-rendering:auto;shape-rendering:auto;text-rendering:auto;enable-background:accumulate"
         d="m -41.646515,313.98551 c -0.435162,0 -0.792968,0.3578 -0.792968,0.79296 0,0.43516 0.357806,0.79493 0.792968,0.79493 h 0.529297 c 0.435163,0 0.794922,-0.35977 0.794922,-0.79493 0,-0.43516 -0.359759,-0.79296 -0.794922,-0.79296 z"
         id="path1300" />
      <path
         inkscape:connector-curvature="0"
         style="color:#000000;font-style:normal;font-variant:normal;font-weight:normal;font-stretch:normal;font-size:medium;line-height:normal;font-family:sans-serif;font-variant-ligatures:normal;font-variant-position:normal;font-variant-caps:normal;font-variant-numeric:normal;font-variant-alternates:normal;font-feature-settings:normal;text-indent:0;text-align:start;text-decoration:none;text-decoration-line:none;text-decoration-style:solid;text-decoration-color:#000000;letter-spacing:normal;word-spacing:normal;text-transform:none;writing-mode:lr-tb;direction:ltr;text-orientation:mixed;dominant-baseline:auto;baseline-shift:baseline;text-anchor:start;white-space:normal;shape-padding:0;clip-rule:nonzero;display:inline;overflow:visible;visibility:visible;isolation:auto;mix-blend-mode:normal;color-interpolation:sRGB;color-interpolation-filters:linearRGB;solid-color:#000000;solid-opacity:1;vector-effect:none;fill:#b3b3b3;fill-opacity:1;fill-rule:nonzero;stroke:none;stroke-width:0.42966163;stroke-linecap:round;stroke-linejoin:round;stroke-miterlimit:4;stroke-dasharray:none;stroke-dashoffset:0;stroke-opacity:1;color-rendering:auto;image-rendering:auto;shape-rendering:auto;text-rendering:auto;enable-background:accumulate"
         d="m -41.646515,311.07535 c -0.435162,0 -0.792968,0.35781 -0.792968,0.79297 0,0.43516 0.357806,0.79492 0.792968,0.79492 h 0.529297 c 0.435163,0 0.794922,-0.35976 0.794922,-0.79492 0,-0.43516 -0.359759,-0.79297 -0.794922,-0.79297 z"
         id="path1283" />
      <path
         inkscape:connector-curvature="0"
         style="color:#000000;font-style:normal;font-variant:normal;font-weight:normal;font-stretch:normal;font-size:medium;line-height:normal;font-family:sans-serif;font-variant-ligatures:normal;font-variant-position:normal;font-variant-caps:normal;font-variant-numeric:normal;font-variant-alternates:normal;font-feature-settings:normal;text-indent:0;text-align:start;text-decoration:none;text-decoration-line:none;text-decoration-style:solid;text-decoration-color:#000000;letter-spacing:normal;word-spacing:normal;text-transform:none;writing-mode:lr-tb;direction:ltr;text-orientation:mixed;dominant-baseline:auto;baseline-shift:baseline;text-anchor:start;white-space:normal;shape-padding:0;clip-rule:nonzero;display:inline;overflow:visible;visibility:visible;isolation:auto;mix-blend-mode:normal;color-interpolation:sRGB;color-interpolation-filters:linearRGB;solid-color:#000000;solid-opacity:1;vector-effect:none;fill:#ffcd40;fill-opacity:1;fill-rule:nonzero;stroke:none;stroke-width:0.42966163;stroke-linecap:round;stroke-linejoin:round;stroke-miterlimit:4;stroke-dasharray:none;stroke-dashoffset:0;stroke-opacity:1;paint-order:markers fill stroke;color-rendering:auto;image-rendering:auto;shape-rendering:auto;text-rendering:auto;enable-background:accumulate"
         d="m -39.529327,307.6359 a 0.2645835,0.2645835 0 0 0 -0.125,0.0312 0.2645835,0.2645835 0 0 0 -0.13086,0.16406 0.2645835,0.2645835 0 0 0 -0.0078,0.043 0.2645835,0.2645835 0 0 0 -0.002,0.0254 v 7.4082 a 0.26460996,0.26460996 0 0 0 0.265625,0.26563 h 1.058594 a 0.26460996,0.26460996 0 0 0 0.263672,-0.26563 v -7.4082 a 0.26460996,0.26460996 0 0 0 -0.263672,-0.26367 z"
         id="path1236" />
      <path
         inkscape:connector-curvature="0"
         id="path1391"
         style="color:#000000;font-style:normal;font-variant:normal;font-weight:normal;font-stretch:normal;font-size:medium;line-height:normal;font-family:sans-serif;font-variant-ligatures:normal;font-variant-position:normal;font-variant-caps:normal;font-variant-numeric:normal;font-variant-alternates:normal;font-feature-settings:normal;text-indent:0;text-align:start;text-decoration:none;text-decoration-line:none;text-decoration-style:solid;text-decoration-color:#000000;letter-spacing:normal;word-spacing:normal;text-transform:none;writing-mode:lr-tb;direction:ltr;text-orientation:mixed;dominant-baseline:auto;baseline-shift:baseline;text-anchor:start;white-space:normal;shape-padding:0;clip-rule:nonzero;display:inline;overflow:visible;visibility:visible;isolation:auto;mix-blend-mode:normal;color-interpolation:sRGB;color-interpolation-filters:linearRGB;solid-color:#000000;solid-opacity:1;vector-effect:none;fill:#543a32;fill-opacity:1;fill-rule:nonzero;stroke:none;stroke-width:0.42966163;stroke-linecap:round;stroke-linejoin:round;stroke-miterlimit:4;stroke-dasharray:none;stroke-dashoffset:0;stroke-opacity:1;color-rendering:auto;image-rendering:auto;shape-rendering:auto;text-rendering:auto;enable-background:accumulate"
         d="m -40.587791,306.57743 c -0.308682,0 -0.587058,0.0808 -0.781348,0.27544 -0.09191,0.0921 -0.157096,0.20377 -0.202054,0.32763 0.138057,-0.0498 0.291386,-0.0739 0.454235,-0.0739 h 6.615099 c 0.308681,0 0.586694,0.0808 0.781348,0.27544 0.194653,0.19466 0.277502,0.4742 0.277502,0.78289 v 8.20105 c 7e-5,0.0798 -0.01741,0.15399 -0.04134,0.2248 0.124818,-0.0422 0.236249,-0.11329 0.326078,-0.20309 0.14084,-0.1408 0.244622,-0.33023 0.24443,-0.55087 v -8.20105 c 0,-0.30869 -0.08285,-0.58824 -0.277503,-0.7829 -0.194654,-0.19465 -0.472667,-0.27544 -0.781347,-0.27544 z m -0.486792,10.62933 c -0.15287,0.0388 -0.262168,0.098 -0.337447,0.1695 -0.06545,0.0622 -0.114996,0.14102 -0.152962,0.23564 a 0.26460995,0.26460995 0 0 0 0.445967,-0.15968 c 0.0091,-0.0912 0.02496,-0.17082 0.04444,-0.24546 z" />
      <path
         inkscape:connector-curvature="0"
         id="path1398"
         style="color:#000000;font-style:normal;font-variant:normal;font-weight:normal;font-stretch:normal;font-size:medium;line-height:normal;font-family:sans-serif;font-variant-ligatures:normal;font-variant-position:normal;font-variant-caps:normal;font-variant-numeric:normal;font-variant-alternates:normal;font-feature-settings:normal;text-indent:0;text-align:start;text-decoration:none;text-decoration-line:none;text-decoration-style:solid;text-decoration-color:#000000;letter-spacing:normal;word-spacing:normal;text-transform:none;writing-mode:lr-tb;direction:ltr;text-orientation:mixed;dominant-baseline:auto;baseline-shift:baseline;text-anchor:start;white-space:normal;shape-padding:0;clip-rule:nonzero;display:inline;overflow:visible;visibility:visible;isolation:auto;mix-blend-mode:normal;color-interpolation:sRGB;color-interpolation-filters:linearRGB;solid-color:#000000;solid-opacity:1;vector-effect:none;fill:#e5b936;fill-opacity:1;fill-rule:nonzero;stroke:none;stroke-width:0.42966163;stroke-linecap:round;stroke-linejoin:round;stroke-miterlimit:4;stroke-dasharray:none;stroke-dashoffset:0;stroke-opacity:1;color-rendering:auto;image-rendering:auto;shape-rendering:auto;text-rendering:auto;enable-background:accumulate"
         d="m -37.412274,307.63575 a 0.26460995,0.26460995 0 0 0 -0.265617,0.26407 v 0.2651 h 2.38125 a 0.26460995,0.26460995 0 0 1 0.265617,0.26407 v 1.05833 h 0.26355 a 0.26460995,0.26460995 0 0 0 0.265616,-0.26355 v -1.32395 a 0.26460995,0.26460995 0 0 0 -0.265616,-0.26407 z" />
      <path
         inkscape:connector-curvature="0"
         id="path1404"
         style="color:#000000;font-style:normal;font-variant:normal;font-weight:normal;font-stretch:normal;font-size:medium;line-height:normal;font-family:sans-serif;font-variant-ligatures:normal;font-variant-position:normal;font-variant-caps:normal;font-variant-numeric:normal;font-variant-alternates:normal;font-feature-settings:normal;text-indent:0;text-align:start;text-decoration:none;text-decoration-line:none;text-decoration-style:solid;text-decoration-color:#000000;letter-spacing:normal;word-spacing:normal;text-transform:none;writing-mode:lr-tb;direction:ltr;text-orientation:mixed;dominant-baseline:auto;baseline-shift:baseline;text-anchor:start;white-space:normal;shape-padding:0;clip-rule:nonzero;display:inline;overflow:visible;visibility:visible;isolation:auto;mix-blend-mode:normal;color-interpolation:sRGB;color-interpolation-filters:linearRGB;solid-color:#000000;solid-opacity:1;vector-effect:none;fill:#e5b936;fill-opacity:1;fill-rule:nonzero;stroke:none;stroke-width:0.42966163;stroke-linecap:round;stroke-linejoin:round;stroke-miterlimit:4;stroke-dasharray:none;stroke-dashoffset:0;stroke-opacity:1;paint-order:markers fill stroke;color-rendering:auto;image-rendering:auto;shape-rendering:auto;text-rendering:auto;enable-background:accumulate"
         d="m -39.529458,307.63577 a 0.26458349,0.26458349 0 0 0 -0.125057,0.0315 0.26458349,0.26458349 0 0 0 -0.130741,0.16381 0.26458349,0.26458349 0 0 0 -0.0078,0.0429 0.26458349,0.26458349 0 0 0 -0.0021,0.0253 v 0.26561 h 0.795294 a 0.26460995,0.26460995 0 0 1 0.26355,0.26355 v 7.14479 h 0.265617 a 0.26460995,0.26460995 0 0 0 0.26355,-0.26562 v -7.40833 a 0.26460995,0.26460995 0 0 0 -0.263552,-0.26355 z" />
      <path
         inkscape:connector-curvature="0"
         id="path1409"
         style="color:#000000;font-style:normal;font-variant:normal;font-weight:normal;font-stretch:normal;font-size:medium;line-height:normal;font-family:sans-serif;font-variant-ligatures:normal;font-variant-position:normal;font-variant-caps:normal;font-variant-numeric:normal;font-variant-alternates:normal;font-feature-settings:normal;text-indent:0;text-align:start;text-decoration:none;text-decoration-line:none;text-decoration-style:solid;text-decoration-color:#000000;letter-spacing:normal;word-spacing:normal;text-transform:none;writing-mode:lr-tb;direction:ltr;text-orientation:mixed;dominant-baseline:auto;baseline-shift:baseline;text-anchor:start;white-space:normal;shape-padding:0;clip-rule:nonzero;display:inline;overflow:visible;visibility:visible;isolation:auto;mix-blend-mode:normal;color-interpolation:sRGB;color-interpolation-filters:linearRGB;solid-color:#000000;solid-opacity:1;vector-effect:none;fill:#999999;fill-opacity:1;fill-rule:nonzero;stroke:none;stroke-width:0.42966163;stroke-linecap:round;stroke-linejoin:round;stroke-miterlimit:4;stroke-dasharray:none;stroke-dashoffset:0;stroke-opacity:1;color-rendering:auto;image-rendering:auto;shape-rendering:auto;text-rendering:auto;enable-background:accumulate"
         d="m -41.646641,307.89932 c -0.355452,0 -0.655608,0.24179 -0.754993,0.56689 0.0722,-0.022 0.146858,-0.0377 0.225826,-0.0377 h 0.529167 c 0.435163,0 0.7953,0.36014 0.7953,0.7953 0,0.079 -0.01573,0.15363 -0.03772,0.22583 0.325093,-0.0994 0.566891,-0.39954 0.566891,-0.75499 0,-0.43516 -0.360138,-0.7953 -0.795301,-0.7953 z" />
      <path
         inkscape:connector-curvature="0"
         d="m -41.646641,311.07433 c -0.355452,0 -0.655608,0.24179 -0.754993,0.56689 0.0722,-0.022 0.146858,-0.0377 0.225826,-0.0377 h 0.529167 c 0.435163,0 0.7953,0.36014 0.7953,0.7953 0,0.079 -0.01573,0.15363 -0.03772,0.22583 0.325093,-0.0994 0.566891,-0.39954 0.566891,-0.75499 0,-0.43516 -0.360138,-0.7953 -0.795301,-0.7953 z"
         style="color:#000000;font-style:normal;font-variant:normal;font-weight:normal;font-stretch:normal;font-size:medium;line-height:normal;font-family:sans-serif;font-variant-ligatures:normal;font-variant-position:normal;font-variant-caps:normal;font-variant-numeric:normal;font-variant-alternates:normal;font-feature-settings:normal;text-indent:0;text-align:start;text-decoration:none;text-decoration-line:none;text-decoration-style:solid;text-decoration-color:#000000;letter-spacing:normal;word-spacing:normal;text-transform:none;writing-mode:lr-tb;direction:ltr;text-orientation:mixed;dominant-baseline:auto;baseline-shift:baseline;text-anchor:start;white-space:normal;shape-padding:0;clip-rule:nonzero;display:inline;overflow:visible;visibility:visible;isolation:auto;mix-blend-mode:normal;color-interpolation:sRGB;color-interpolation-filters:linearRGB;solid-color:#000000;solid-opacity:1;vector-effect:none;fill:#999999;fill-opacity:1;fill-rule:nonzero;stroke:none;stroke-width:0.42966163;stroke-linecap:round;stroke-linejoin:round;stroke-miterlimit:4;stroke-dasharray:none;stroke-dashoffset:0;stroke-opacity:1;color-rendering:auto;image-rendering:auto;shape-rendering:auto;text-rendering:auto;enable-background:accumulate"
         id="path1415" />
      <path
         inkscape:connector-curvature="0"
         id="path1417"
         style="color:#000000;font-style:normal;font-variant:normal;font-weight:normal;font-stretch:normal;font-size:medium;line-height:normal;font-family:sans-serif;font-variant-ligatures:normal;font-variant-position:normal;font-variant-caps:normal;font-variant-numeric:normal;font-variant-alternates:normal;font-feature-settings:normal;text-indent:0;text-align:start;text-decoration:none;text-decoration-line:none;text-decoration-style:solid;text-decoration-color:#000000;letter-spacing:normal;word-spacing:normal;text-transform:none;writing-mode:lr-tb;direction:ltr;text-orientation:mixed;dominant-baseline:auto;baseline-shift:baseline;text-anchor:start;white-space:normal;shape-padding:0;clip-rule:nonzero;display:inline;overflow:visible;visibility:visible;isolation:auto;mix-blend-mode:normal;color-interpolation:sRGB;color-interpolation-filters:linearRGB;solid-color:#000000;solid-opacity:1;vector-effect:none;fill:#999999;fill-opacity:1;fill-rule:nonzero;stroke:none;stroke-width:0.42966163;stroke-linecap:round;stroke-linejoin:round;stroke-miterlimit:4;stroke-dasharray:none;stroke-dashoffset:0;stroke-opacity:1;color-rendering:auto;image-rendering:auto;shape-rendering:auto;text-rendering:auto;enable-background:accumulate"
         d="m -41.646762,313.98314 c -0.355452,0 -0.655608,0.24179 -0.754993,0.56689 0.0722,-0.022 0.146857,-0.0377 0.225826,-0.0377 h 0.529167 c 0.435162,0 0.7953,0.36014 0.7953,0.7953 0,0.079 -0.01573,0.15363 -0.03772,0.22583 0.325092,-0.0994 0.56689,-0.39954 0.56689,-0.75499 0,-0.43516 -0.360138,-0.7953 -0.7953,-0.7953 z" />
      <path
         sodipodi:nodetypes="cccsccsccsccccssccccccscccccccsccsccscccccsccccccccccccccccccccccccccccccccccsccsccccccccccccsssccssccccccccsccscccccccccccccccccccccccccccc"
         inkscape:connector-curvature="0"
         id="rect1364"
         d="m -40.588221,306.57564 c -0.625581,0 -1.050086,0.45522 -1.058333,1.05678 0,0.0884 0,0.17712 0,0.26562 -0.435161,0 -0.794782,0.36014 -0.794782,0.7953 0,0.43516 0.359621,0.79271 0.794782,0.79271 v 1.58802 c -0.435161,0 -0.794782,0.35756 -0.794782,0.79272 0,0.43516 0.359621,0.7953 0.794782,0.7953 v 1.32188 c -0.435161,0 -0.794782,0.36014 -0.794782,0.7953 0,0.43516 0.359621,0.79272 0.794782,0.79272 v 1.85157 c 0,0.54922 0.327758,0.98435 0.71888,1.16788 0.363353,0.16158 0.733063,0.15692 0.86713,0.15658 h 6.880717 c 0.353124,0 0.353124,-0.52968 0,-0.52968 h -0.265615 v -0.79478 c -5.29e-4,-0.14532 -0.118237,-0.26298 -0.263552,-0.26356 v -0.52916 c 0.220491,0 0.410031,-0.10363 0.550871,-0.24443 0.14084,-0.1408 0.242041,-0.33023 0.241848,-0.55087 v -8.20105 c 0,-0.30869 -0.08078,-0.58824 -0.275437,-0.7829 -0.194654,-0.19465 -0.474215,-0.27543 -0.782897,-0.27543 z m 0.527616,9.52556 c -0.132291,0 -0.503004,-0.008 -0.867129,0.15452 -0.06438,0.0286 -0.127773,0.0667 -0.189654,0.10955 v -0.79323 c 0.435163,0 0.793234,-0.35756 0.793234,-0.79272 0,-0.43516 -0.358071,-0.7953 -0.793234,-0.7953 v -1.32188 c 0.435163,0 0.793234,-0.36014 0.793234,-0.7953 0,-0.43516 -0.358071,-0.79272 -0.793234,-0.79272 v -1.58802 c 0.435163,0 0.793234,-0.35755 0.793234,-0.79271 0,-0.43516 -0.358071,-0.7953 -0.793234,-0.7953 v -0.26355 c 0,-0.32854 0.302438,-0.52917 0.529167,-0.52917 2.204413,-9e-5 4.409054,-5e-5 6.613551,-5e-5 0.220486,0 0.338315,0.051 0.408245,0.12093 0.06993,0.0699 0.120922,0.18775 0.120922,0.40824 v 8.20105 c -3e-6,7.9e-4 -3e-6,0.001 0,0.002 0,0.14441 -0.117001,0.26354 -0.263551,0.26354 z m 0.265491,-8.20264 v 7.40832 c -5.29e-4,0.14612 0.11743,0.26503 0.263549,0.26562 h 1.058333 c 0.146929,5.3e-4 0.266176,-0.11869 0.265618,-0.26562 v -7.40832 c -5.29e-4,-0.14612 -0.119496,-0.26411 -0.265618,-0.26355 h -1.060188 c -0.131265,0 -0.261694,0.11178 -0.261694,0.26355 z m 2.380861,-0.26407 c -0.145314,5.8e-4 -0.262969,0.11824 -0.263551,0.26355 v 1.32498 c 0,0.16199 0.104544,0.26355 0.263551,0.26355 h 2.647027 c 0.145314,-5.8e-4 0.262969,-0.11823 0.263551,-0.26355 v -1.32447 c -5.29e-4,-0.14531 -0.118237,-0.26297 -0.263551,-0.26355 z m -1.851567,0.52917 h 0.529166 v 6.87917 h -0.529166 z m 2.117182,0 h 2.115117 v 0.79323 h -2.115117 z m -4.497916,0.26406 c 0.176392,10e-6 0.352777,2.7e-4 0.529166,0 0.151159,0 0.263552,0.11446 0.263552,0.26562 0,0.15116 -0.112393,0.26355 -0.263552,0.26355 -0.176429,2e-5 -0.352747,-10e-4 -0.529166,0 -0.151157,0 -0.265616,-0.11239 -0.265616,-0.26355 0,-0.15116 0.114459,-0.26562 0.265616,-0.26562 z m 5.820317,1.5875 c -0.360476,-0.008 -0.360476,0.53696 0,0.52917 h 1.058333 c 0.360477,0.008 0.360477,-0.53695 0,-0.52917 z m -1.613339,1.05886 c -0.344485,0.0243 -0.319913,0.53783 0.02532,0.52916 h 2.646349 c 0.360786,0.008 0.360786,-0.53726 0,-0.52916 h -2.64635 c -0.0084,-5.3e-4 -0.01688,-5.3e-4 -0.02532,0 z m -4.206978,0.52916 h 0.529166 c 0.151159,0 0.263552,0.11239 0.263552,0.26355 0,0.15116 -0.112393,0.26562 -0.263552,0.26562 -0.176424,2e-5 -0.352753,-10e-4 -0.529166,0 -0.151157,0 -0.265616,-0.11446 -0.265616,-0.26562 0,-0.15116 0.114459,-0.26355 0.265616,-0.26355 z m 4.206978,0.52917 c -0.351925,0.018 -0.326713,0.54537 0.02532,0.52968 h 2.646349 c 0.354237,0.001 0.354237,-0.5308 0,-0.52968 h -2.64635 c -0.0084,-5.3e-4 -0.01688,-5.3e-4 -0.02532,0 z m -4.206978,2.38073 c 0.178882,8e-4 0.351094,0 0.529166,0 0.151159,0 0.263552,0.11498 0.263552,0.26614 0,0.15115 -0.112393,0.26355 -0.263552,0.26355 -0.182015,-0.005 -0.348218,0 -0.529166,0 -0.151157,0 -0.265616,-0.1124 -0.265616,-0.26355 0,-0.15116 0.114459,-0.26614 0.265616,-0.26614 z m 6.322094,0.52969 c -0.34463,0.0255 -0.318034,0.53935 0.02739,0.52916 h 0.529167 c 0.360786,0.008 0.360786,-0.53726 0,-0.52916 h -0.529167 c -0.0091,-5.3e-4 -0.01826,-5.3e-4 -0.02739,0 z m -4.736145,1.58801 h 5.822384 v 0.52917 h -0.529683 c -0.345241,0.007 -0.345241,0.52171 0,0.52916 0.265446,2.3e-4 0.528897,0 0.793237,0 v 0.52917 h -6.085935 c -0.60679,0 -1.056783,-0.20363 -1.056783,-0.79478 0,-0.57959 0.565026,-0.79272 1.05678,-0.79272 z m -0.290938,0.52917 c -0.344943,0.0252 -0.318318,0.53966 0.02739,0.52916 h 2.380734 c 0.360476,0.008 0.360476,-0.53695 0,-0.52916 z m 3.441133,0 c -0.344789,0.024 -0.32019,0.53813 0.02532,0.52916 h 1.05885 c 0.360476,0.008 0.360476,-0.53695 0,-0.52916 h -1.05885 c -0.0084,-5.3e-4 -0.01688,-5.3e-4 -0.02532,0 z"
         style="color:#000000;font-style:normal;font-variant:normal;font-weight:normal;font-stretch:normal;font-size:medium;line-height:normal;font-family:sans-serif;font-variant-ligatures:normal;font-variant-position:normal;font-variant-caps:normal;font-variant-numeric:normal;font-variant-alternates:normal;font-feature-settings:normal;text-indent:0;text-align:start;text-decoration:none;text-decoration-line:none;text-decoration-style:solid;text-decoration-color:#000000;letter-spacing:normal;word-spacing:normal;text-transform:none;writing-mode:lr-tb;direction:ltr;text-orientation:mixed;dominant-baseline:auto;baseline-shift:baseline;text-anchor:start;white-space:normal;shape-padding:0;clip-rule:nonzero;display:inline;overflow:visible;visibility:visible;isolation:auto;mix-blend-mode:normal;color-interpolation:sRGB;color-interpolation-filters:linearRGB;solid-color:#000000;solid-opacity:1;vector-effect:none;fill:#000000;fill-opacity:1;fill-rule:nonzero;stroke:none;stroke-width:0.42966163;stroke-linecap:round;stroke-linejoin:round;stroke-miterlimit:4;stroke-dasharray:none;stroke-dashoffset:0;stroke-opacity:1;color-rendering:auto;image-rendering:auto;shape-rendering:auto;text-rendering:auto;enable-background:accumulate" />
    </g>
  </g>
</svg>
