<?xml version="1.0" encoding="UTF-8" standalone="no"?>
<!-- Created with Inkscape (http://www.inkscape.org/) -->

<svg
   xmlns:dc="http://purl.org/dc/elements/1.1/"
   xmlns:cc="http://creativecommons.org/ns#"
   xmlns:rdf="http://www.w3.org/1999/02/22-rdf-syntax-ns#"
   xmlns:svg="http://www.w3.org/2000/svg"
   xmlns="http://www.w3.org/2000/svg"
   xmlns:sodipodi="http://sodipodi.sourceforge.net/DTD/sodipodi-0.dtd"
   xmlns:inkscape="http://www.inkscape.org/namespaces/inkscape"
   width="48pt"
   height="48pt"
   viewBox="0 0 16.933334 16.933333"
   version="1.1"
   id="svg979"
   inkscape:version="0.92.4 (5da689c313, 2019-01-14)"
   sodipodi:docname="21 - Invoice.svg"
   inkscape:export-filename="E:\TR Design Studio Creative\Project Design\TR Creative Design\Icon Design\Project Hiring\Icon Icons\003 - Business And Finance\Send\4 - Filled Line\20 - Stamp.png"
   inkscape:export-xdpi="768"
   inkscape:export-ydpi="768">
  <defs
     id="defs973" />
  <sodipodi:namedview
     id="base"
     pagecolor="#ffffff"
     bordercolor="#666666"
     borderopacity="1.0"
     inkscape:pageopacity="0.0"
     inkscape:pageshadow="2"
     inkscape:zoom="4.2734375"
     inkscape:cx="67.68087"
     inkscape:cy="22.661268"
     inkscape:document-units="pt"
     inkscape:current-layer="layer1"
     showgrid="false"
     units="pt"
     inkscape:window-width="1366"
     inkscape:window-height="716"
     inkscape:window-x="-8"
     inkscape:window-y="-8"
     inkscape:window-maximized="1"
     inkscape:snap-bbox="true"
     inkscape:bbox-nodes="true"
     inkscape:snap-nodes="false"
     showguides="false">
    <inkscape:grid
       type="xygrid"
       id="grid1526" />
    <sodipodi:guide
       position="0.97013909,15.963209"
       orientation="56.666615,0"
       id="guide1528"
       inkscape:locked="false" />
    <sodipodi:guide
       position="0.97013909,0.97016731"
       orientation="0,56.666667"
       id="guide1530"
       inkscape:locked="false" />
    <sodipodi:guide
       position="15.963195,0.97016731"
       orientation="-56.666615,0"
       id="guide1532"
       inkscape:locked="false" />
    <sodipodi:guide
       position="15.963195,15.963209"
       orientation="0,-56.666667"
       id="guide1534"
       inkscape:locked="false" />
  </sodipodi:namedview>
  <metadata
     id="metadata976">
    <rdf:RDF>
      <cc:Work
         rdf:about="">
        <dc:format>image/svg+xml</dc:format>
        <dc:type
           rdf:resource="http://purl.org/dc/dcmitype/StillImage" />
        <dc:title></dc:title>
      </cc:Work>
    </rdf:RDF>
  </metadata>
  <g
     inkscape:label="Layer 1"
     inkscape:groupmode="layer"
     id="layer1"
     transform="translate(0,-280.06668)">
    <g
       transform="matrix(1.2317743,0,0,1.2317743,0.64530221,-123.71289)"
       id="g2480"
       style="stroke-width:0.81183708">
      <path
         inkscape:connector-curvature="0"
         id="path1729"
         d="m 1.5839844,337.05859 a 0.26461046,0.26461046 0 0 0 -0.2617188,0.26368 v 2.38085 c 0,0.58174 0.4768543,1.0586 1.0585938,1.0586 0.5817394,0 1.0585937,-0.47686 1.0585937,-1.0586 v -1.85156 a 0.26461046,0.26461046 0 0 0 -0.078125,-0.1875 l -0.5292969,-0.52929 a 0.26461046,0.26461046 0 0 0 -0.3730468,0 l -0.3417969,0.34179 -0.3417969,-0.34179 a 0.26461046,0.26461046 0 0 0 -0.1914062,-0.0762 z"
         style="color:#000000;font-style:normal;font-variant:normal;font-weight:normal;font-stretch:normal;font-size:medium;line-height:normal;font-family:sans-serif;font-variant-ligatures:normal;font-variant-position:normal;font-variant-caps:normal;font-variant-numeric:normal;font-variant-alternates:normal;font-feature-settings:normal;text-indent:0;text-align:start;text-decoration:none;text-decoration-line:none;text-decoration-style:solid;text-decoration-color:#000000;letter-spacing:normal;word-spacing:normal;text-transform:none;writing-mode:lr-tb;direction:ltr;text-orientation:mixed;dominant-baseline:auto;baseline-shift:baseline;text-anchor:start;white-space:normal;shape-padding:0;clip-rule:nonzero;display:inline;overflow:visible;visibility:visible;opacity:1;isolation:auto;mix-blend-mode:normal;color-interpolation:sRGB;color-interpolation-filters:linearRGB;solid-color:#000000;solid-opacity:1;vector-effect:none;fill:#b7b4b3;fill-opacity:1;fill-rule:nonzero;stroke:none;stroke-width:0.42959821;stroke-linecap:round;stroke-linejoin:round;stroke-miterlimit:1.5;stroke-dasharray:none;stroke-dashoffset:0;stroke-opacity:1;paint-order:markers fill stroke;color-rendering:auto;image-rendering:auto;shape-rendering:auto;text-rendering:auto;enable-background:accumulate" />
      <path
         inkscape:connector-curvature="0"
         id="path1721"
         d="m 2.3808594,328.5918 c -0.5817395,0 -1.0585938,0.47686 -1.0585938,1.05859 v 1.58594 a 0.26461046,0.26461046 0 0 0 0.265625,0.26562 h 1.5878906 a 0.26461046,0.26461046 0 0 0 0.2636719,-0.26562 v -1.58594 c -1e-7,-0.58173 -0.4768543,-1.05859 -1.0585937,-1.05859 z"
         style="color:#000000;font-style:normal;font-variant:normal;font-weight:normal;font-stretch:normal;font-size:medium;line-height:normal;font-family:sans-serif;font-variant-ligatures:normal;font-variant-position:normal;font-variant-caps:normal;font-variant-numeric:normal;font-variant-alternates:normal;font-feature-settings:normal;text-indent:0;text-align:start;text-decoration:none;text-decoration-line:none;text-decoration-style:solid;text-decoration-color:#000000;letter-spacing:normal;word-spacing:normal;text-transform:none;writing-mode:lr-tb;direction:ltr;text-orientation:mixed;dominant-baseline:auto;baseline-shift:baseline;text-anchor:start;white-space:normal;shape-padding:0;clip-rule:nonzero;display:inline;overflow:visible;visibility:visible;opacity:1;isolation:auto;mix-blend-mode:normal;color-interpolation:sRGB;color-interpolation-filters:linearRGB;solid-color:#000000;solid-opacity:1;vector-effect:none;fill:#b7b4b3;fill-opacity:1;fill-rule:nonzero;stroke:none;stroke-width:0.42959821;stroke-linecap:round;stroke-linejoin:round;stroke-miterlimit:1.5;stroke-dasharray:none;stroke-dashoffset:0;stroke-opacity:1;paint-order:markers fill stroke;color-rendering:auto;image-rendering:auto;shape-rendering:auto;text-rendering:auto;enable-background:accumulate" />
      <path
         sodipodi:nodetypes="ccccssscscsscccccssssc"
         inkscape:connector-curvature="0"
         id="path1705"
         transform="matrix(0.26458333,0,0,0.26458333,0,284.3)"
         d="m 8.9980469,167.40234 c -2.3959774,0 -4,2.04947 -4,4.00001 v 5.8243 c 0.028933,1.30408 1.9710665,1.30408 2,0 v -5.8243 c 0,-1.12524 0.8747001,-2 2,-2 0.9050524,0 2.0000001,0.8423 2.0000001,2 v 30.99805 6.99805 c 0,0.11085 -0.05039,0.48187 -0.185547,0.84375 -0.312328,0.68808 -0.9940905,1.15625 -1.8144531,1.15625 -1.1252999,0 -2,-0.87472 -2,-2 v -6.61953 c 0.011007,-0.5645 -0.4471514,-1.0262 -1.0117188,-1.01953 -0.5553777,0.006 -0.999108,0.46422 -0.9882812,1.01953 v 6.61953 c 0,2.45835 1.8879124,3.99997 4,3.99997 H 38.998047 c 2.198721,0 4.001953,-1.80126 4.001953,-4 v -37.9961 c 0,-2.1987 -1.803232,-4 -4.001953,-4 z"
         style="color:#000000;font-style:normal;font-variant:normal;font-weight:normal;font-stretch:normal;font-size:medium;line-height:normal;font-family:sans-serif;font-variant-ligatures:normal;font-variant-position:normal;font-variant-caps:normal;font-variant-numeric:normal;font-variant-alternates:normal;font-feature-settings:normal;text-indent:0;text-align:start;text-decoration:none;text-decoration-line:none;text-decoration-style:solid;text-decoration-color:#000000;letter-spacing:normal;word-spacing:normal;text-transform:none;writing-mode:lr-tb;direction:ltr;text-orientation:mixed;dominant-baseline:auto;baseline-shift:baseline;text-anchor:start;white-space:normal;shape-padding:0;clip-rule:nonzero;display:inline;overflow:visible;visibility:visible;opacity:1;isolation:auto;mix-blend-mode:normal;color-interpolation:sRGB;color-interpolation-filters:linearRGB;solid-color:#000000;solid-opacity:1;vector-effect:none;fill:#efebe9;fill-opacity:1;fill-rule:nonzero;stroke:none;stroke-width:1.62367511;stroke-linecap:round;stroke-linejoin:round;stroke-miterlimit:1.5;stroke-dasharray:none;stroke-dashoffset:0;stroke-opacity:1;paint-order:markers fill stroke;color-rendering:auto;image-rendering:auto;shape-rendering:auto;text-rendering:auto;enable-background:accumulate" />
      <g
         id="g2596"
         style="stroke-width:0.81183708">
        <path
           style="color:#000000;font-style:normal;font-variant:normal;font-weight:normal;font-stretch:normal;font-size:medium;line-height:normal;font-family:sans-serif;font-variant-ligatures:normal;font-variant-position:normal;font-variant-caps:normal;font-variant-numeric:normal;font-variant-alternates:normal;font-feature-settings:normal;text-indent:0;text-align:start;text-decoration:none;text-decoration-line:none;text-decoration-style:solid;text-decoration-color:#000000;letter-spacing:normal;word-spacing:normal;text-transform:none;writing-mode:lr-tb;direction:ltr;text-orientation:mixed;dominant-baseline:auto;baseline-shift:baseline;text-anchor:start;white-space:normal;shape-padding:0;clip-rule:nonzero;display:inline;overflow:visible;visibility:visible;opacity:1;isolation:auto;mix-blend-mode:normal;color-interpolation:sRGB;color-interpolation-filters:linearRGB;solid-color:#000000;solid-opacity:1;vector-effect:none;fill:#8281a0;fill-opacity:1;fill-rule:nonzero;stroke:none;stroke-width:0.42959738;stroke-linecap:round;stroke-linejoin:round;stroke-miterlimit:1.5;stroke-dasharray:none;stroke-dashoffset:0;stroke-opacity:1;paint-order:markers fill stroke;color-rendering:auto;image-rendering:auto;shape-rendering:auto;text-rendering:auto;enable-background:accumulate"
           d="m 7.7890955,329.74331 a 0.23359711,0.23359711 0 0 0 -0.2103542,0.23276 v 0.93453 a 0.23359711,0.23359711 0 0 0 0.2344932,0.23277 h 2.1018181 a 0.23359711,0.23359711 0 0 0 0.2327684,-0.23277 v -0.93453 A 0.23359711,0.23359711 0 0 0 9.9150526,329.74331 H 7.8132345 a 0.23359711,0.23359711 0 0 0 -0.024139,0 z"
           id="path1788"
           inkscape:connector-curvature="0" />
        <path
           style="color:#000000;font-style:normal;font-variant:normal;font-weight:normal;font-stretch:normal;font-size:medium;line-height:normal;font-family:sans-serif;font-variant-ligatures:normal;font-variant-position:normal;font-variant-caps:normal;font-variant-numeric:normal;font-variant-alternates:normal;font-feature-settings:normal;text-indent:0;text-align:start;text-decoration:none;text-decoration-line:none;text-decoration-style:solid;text-decoration-color:#000000;letter-spacing:normal;word-spacing:normal;text-transform:none;writing-mode:lr-tb;direction:ltr;text-orientation:mixed;dominant-baseline:auto;baseline-shift:baseline;text-anchor:start;white-space:normal;shape-padding:0;clip-rule:nonzero;display:inline;overflow:visible;visibility:visible;opacity:1;isolation:auto;mix-blend-mode:normal;color-interpolation:sRGB;color-interpolation-filters:linearRGB;solid-color:#000000;solid-opacity:1;vector-effect:none;fill:#039be5;fill-opacity:1;fill-rule:nonzero;stroke:none;stroke-width:0.42959738;stroke-linecap:round;stroke-linejoin:round;stroke-miterlimit:1.5;stroke-dasharray:none;stroke-dashoffset:0;stroke-opacity:1;paint-order:markers fill stroke;color-rendering:auto;image-rendering:auto;shape-rendering:auto;text-rendering:auto;enable-background:accumulate"
           d="M 4.2324219,331.76562 A 0.26460996,0.26460996 0 0 0 3.96875,332.03125 v 1.05859 a 0.26460996,0.26460996 0 0 0 0.2636719,0.26368 h 5.8222661 a 0.26460996,0.26460996 0 0 0 0.263671,-0.26368 v -1.05859 a 0.26460996,0.26460996 0 0 0 -0.263671,-0.26563 z"
           id="path1793"
           inkscape:connector-curvature="0" />
        <path
           style="color:#000000;font-style:normal;font-variant:normal;font-weight:normal;font-stretch:normal;font-size:medium;line-height:normal;font-family:sans-serif;font-variant-ligatures:normal;font-variant-position:normal;font-variant-caps:normal;font-variant-numeric:normal;font-variant-alternates:normal;font-feature-settings:normal;text-indent:0;text-align:start;text-decoration:none;text-decoration-line:none;text-decoration-style:solid;text-decoration-color:#000000;letter-spacing:normal;word-spacing:normal;text-transform:none;writing-mode:lr-tb;direction:ltr;text-orientation:mixed;dominant-baseline:auto;baseline-shift:baseline;text-anchor:start;white-space:normal;shape-padding:0;clip-rule:nonzero;display:inline;overflow:visible;visibility:visible;opacity:1;isolation:auto;mix-blend-mode:normal;color-interpolation:sRGB;color-interpolation-filters:linearRGB;solid-color:#000000;solid-opacity:1;vector-effect:none;fill:#b7b4b3;fill-opacity:1;fill-rule:nonzero;stroke:none;stroke-width:0.42959738;stroke-linecap:round;stroke-linejoin:round;stroke-miterlimit:1.5;stroke-dasharray:none;stroke-dashoffset:0;stroke-opacity:1;paint-order:markers fill stroke;color-rendering:auto;image-rendering:auto;shape-rendering:auto;text-rendering:auto;enable-background:accumulate"
           d="m 7.9375,333.88281 a 0.26460996,0.26460996 0 0 0 -0.2636719,0.26563 v 1.05664 A 0.26460996,0.26460996 0 0 0 7.9375,335.4707 h 2.117188 a 0.26460996,0.26460996 0 0 0 0.263671,-0.26562 v -1.05664 a 0.26460996,0.26460996 0 0 0 -0.263671,-0.26563 z"
           id="path1798"
           inkscape:connector-curvature="0" />
        <path
           style="color:#000000;font-style:normal;font-variant:normal;font-weight:normal;font-stretch:normal;font-size:medium;line-height:normal;font-family:sans-serif;font-variant-ligatures:normal;font-variant-position:normal;font-variant-caps:normal;font-variant-numeric:normal;font-variant-alternates:normal;font-feature-settings:normal;text-indent:0;text-align:start;text-decoration:none;text-decoration-line:none;text-decoration-style:solid;text-decoration-color:#000000;letter-spacing:normal;word-spacing:normal;text-transform:none;writing-mode:lr-tb;direction:ltr;text-orientation:mixed;dominant-baseline:auto;baseline-shift:baseline;text-anchor:start;white-space:normal;shape-padding:0;clip-rule:nonzero;display:inline;overflow:visible;visibility:visible;opacity:1;isolation:auto;mix-blend-mode:normal;color-interpolation:sRGB;color-interpolation-filters:linearRGB;solid-color:#000000;solid-opacity:1;vector-effect:none;fill:#b7b4b3;fill-opacity:1;fill-rule:nonzero;stroke:none;stroke-width:0.42959738;stroke-linecap:round;stroke-linejoin:round;stroke-miterlimit:1.5;stroke-dasharray:none;stroke-dashoffset:0;stroke-opacity:1;paint-order:markers fill stroke;color-rendering:auto;image-rendering:auto;shape-rendering:auto;text-rendering:auto;enable-background:accumulate"
           d="m 7.9101562,336 a 0.26460996,0.26460996 0 0 0 -0.2363281,0.26367 v 1.0586 A 0.26460996,0.26460996 0 0 0 7.9375,337.58789 h 2.117188 a 0.26460996,0.26460996 0 0 0 0.263671,-0.26562 v -1.0586 A 0.26460996,0.26460996 0 0 0 10.054688,336 H 7.9375 a 0.26460996,0.26460996 0 0 0 -0.027344,0 z"
           id="path1804"
           inkscape:connector-curvature="0" />
        <path
           style="color:#000000;font-style:normal;font-variant:normal;font-weight:normal;font-stretch:normal;font-size:medium;line-height:normal;font-family:sans-serif;font-variant-ligatures:normal;font-variant-position:normal;font-variant-caps:normal;font-variant-numeric:normal;font-variant-alternates:normal;font-feature-settings:normal;text-indent:0;text-align:start;text-decoration:none;text-decoration-line:none;text-decoration-style:solid;text-decoration-color:#000000;letter-spacing:normal;word-spacing:normal;text-transform:none;writing-mode:lr-tb;direction:ltr;text-orientation:mixed;dominant-baseline:auto;baseline-shift:baseline;text-anchor:start;white-space:normal;shape-padding:0;clip-rule:nonzero;display:inline;overflow:visible;visibility:visible;opacity:1;isolation:auto;mix-blend-mode:normal;color-interpolation:sRGB;color-interpolation-filters:linearRGB;solid-color:#000000;solid-opacity:1;vector-effect:none;fill:#8281a0;fill-opacity:1;fill-rule:nonzero;stroke:none;stroke-width:0.42959738;stroke-linecap:round;stroke-linejoin:round;stroke-miterlimit:1.5;stroke-dasharray:none;stroke-dashoffset:0;stroke-opacity:1;paint-order:markers fill stroke;color-rendering:auto;image-rendering:auto;shape-rendering:auto;text-rendering:auto;enable-background:accumulate"
           d="m 7.1171875,338.11719 a 0.26460996,0.26460996 0 0 0 -0.2382813,0.26367 v 1.05859 a 0.26460996,0.26460996 0 0 0 0.265625,0.26367 h 2.9101568 a 0.26460996,0.26460996 0 0 0 0.263671,-0.26367 v -1.05859 a 0.26460996,0.26460996 0 0 0 -0.263671,-0.26367 H 7.1445312 a 0.26460996,0.26460996 0 0 0 -0.027344,0 z"
           id="path1808"
           inkscape:connector-curvature="0" />
      </g>
    </g>
    <path
       style="color:#000000;font-style:normal;font-variant:normal;font-weight:normal;font-stretch:normal;font-size:medium;line-height:normal;font-family:sans-serif;font-variant-ligatures:normal;font-variant-position:normal;font-variant-caps:normal;font-variant-numeric:normal;font-variant-alternates:normal;font-feature-settings:normal;text-indent:0;text-align:start;text-decoration:none;text-decoration-line:none;text-decoration-style:solid;text-decoration-color:#000000;letter-spacing:normal;word-spacing:normal;text-transform:none;writing-mode:lr-tb;direction:ltr;text-orientation:mixed;dominant-baseline:auto;baseline-shift:baseline;text-anchor:start;white-space:normal;shape-padding:0;clip-rule:nonzero;display:inline;overflow:visible;visibility:visible;opacity:1;isolation:auto;mix-blend-mode:normal;color-interpolation:sRGB;color-interpolation-filters:linearRGB;solid-color:#000000;solid-opacity:1;vector-effect:none;fill:#000000;fill-opacity:1;fill-rule:nonzero;stroke:none;stroke-width:0.52916801;stroke-linecap:round;stroke-linejoin:round;stroke-miterlimit:1.5;stroke-dasharray:none;stroke-dashoffset:0;stroke-opacity:1;paint-order:markers fill stroke;color-rendering:auto;image-rendering:auto;shape-rendering:auto;text-rendering:auto;enable-background:accumulate"
       d="m 3.5541952,281.0371 v 0.002 c -0.7055664,0.0132 -1.2800756,0.59273 -1.2800756,1.30122 v 1.95609 a 0.32594036,0.32594036 0 0 0 0.32718,0.32463 h 1.6282615 v 7.03692 l -0.096115,-0.0961 a 0.32594036,0.32594036 0 0 0 -0.4595799,0 l -0.4207523,0.42071 -0.4207509,-0.42075 a 0.32594036,0.32594036 0 0 0 -0.2361553,-0.0961 0.32594036,0.32594036 0 0 0 -0.3220877,0.32464 v 2.93507 c 0,0.70478 0.5687616,1.28157 1.2692545,1.30044 v 0.004 h 0.034366 9.7772095 c 0.716579,-5e-5 1.304264,-0.58773 1.304264,-1.30431 v -12.38511 c 0,-0.71659 -0.587685,-1.30363 -1.304264,-1.30363 z m 0.023552,0.65182 c 0.3667435,0 0.6518143,0.28507 0.6518143,0.6518 v 1.6289 H 2.9259336 v -1.6289 c 0,-0.36673 0.2850707,-0.6518 0.6518136,-0.6518 z m 1.1215785,0 h 8.6556313 c 0.366742,0 0.651813,0.28505 0.651813,0.6518 v 12.38511 c 0,0.36675 -0.285071,0.65181 -0.651813,0.65181 H 4.6993253 c 0.1128798,-0.19275 0.1826869,-0.41373 0.1826869,-0.65181 v -2.28327 -8.14576 -1.95608 c 0,-0.23808 -0.069805,-0.45906 -0.1826865,-0.6518 z m 1.1279431,0.6518 a 0.32635778,0.32635778 0 0 0 0.031188,0.65182 h 0.6518143 a 0.32598292,0.32598292 0 1 0 0,-0.65182 H 5.8584569 a 0.32593974,0.32593974 0 0 0 -0.031188,0 z m 4.5951612,0 c -0.355459,0 -0.6518131,0.29637 -0.6518131,0.65182 v 0.65245 c 0,0.35546 0.2963541,0.65181 0.6518131,0.65181 h 2.280712 c 0.355461,0 0.651815,-0.29635 0.651815,-0.65181 v -0.65245 c 0,-0.35545 -0.296354,-0.65182 -0.651815,-0.65182 z m 0,0.65182 h 2.280712 v 0.65245 h -2.280711 z m -4.5951612,0.65245 a 0.32636393,0.32636393 0 0 0 0.031188,0.65181 h 2.9350731 a 0.32598908,0.32598908 0 1 0 0,-0.65181 h -2.935073 a 0.32593974,0.32593974 0 0 0 -0.031188,0 z m 0.031188,1.30426 c -0.1424707,0 -0.3246328,0.11985 -0.3246328,0.32463 v 1.30427 c 6.195e-4,0.17911 0.1455255,0.324 0.3246341,0.32463 h 7.1718629 c 0.179109,-6.5e-4 0.323999,-0.14552 0.324634,-0.32463 v -1.30427 c -6.19e-4,-0.17911 -0.14552,-0.32399 -0.324634,-0.32463 z m 0.3271815,0.65118 h 6.5175027 v 0.65246 H 6.1856384 Z m -0.3271802,1.95353 a 0.32623,0.32623 0 1 0 0,0.65246 h 1.9560785 a 0.32623,0.32623 0 1 0 0,-0.65246 z m 2.9350718,0 a 0.32623,0.32623 0 1 0 0,0.65246 H 9.118164 a 0.32623,0.32623 0 1 0 0,-0.65246 z m 1.6288991,0 c -0.242736,0 -0.324634,0.17975 -0.324634,0.32718 v 1.30427 c 8.14e-4,0.17899 0.14565,0.324 0.324634,0.32463 h 2.607891 c 0.179109,-6.5e-4 0.323999,-0.14552 0.324634,-0.32463 v -1.30427 c 6.85e-4,-0.18004 -0.144588,-0.32654 -0.324634,-0.32718 z m 0.324633,0.65246 h 1.956079 v 0.6518 h -1.956079 z m -4.8886039,0.6518 a 0.32598908,0.32598908 0 1 0 0,0.65182 h 1.9560785 a 0.32598908,0.32598908 0 1 0 0,-0.65182 z m 2.9350718,0 a 0.32598908,0.32598908 0 1 0 0,0.65182 H 9.118164 a 0.32598908,0.32598908 0 1 0 0,-0.65182 z m -2.9350718,1.30364 a 0.326225,0.326225 0 0 0 0,0.65245 h 1.9560785 a 0.326225,0.326225 0 1 0 0,-0.65245 z m 2.9350718,0 a 0.326225,0.326225 0 0 0 0,0.65245 H 9.118164 a 0.326225,0.326225 0 1 0 0,-0.65245 z m 1.6288991,0 c -0.203162,0 -0.324634,0.15901 -0.324634,0.32717 v 1.30173 c -6.19e-4,0.17999 0.144644,0.32653 0.324634,0.32717 h 2.607891 c 0.180051,-6.5e-4 0.325329,-0.14712 0.324634,-0.32717 v -1.30173 c 6.85e-4,-0.18005 -0.144588,-0.32653 -0.324634,-0.32717 z m 0.324633,0.65245 h 1.956079 v 0.65181 h -1.956077 z m -4.9197937,0.65181 a 0.32636393,0.32636393 0 0 0 0.031188,0.65181 h 1.9560786 a 0.32598908,0.32598908 0 1 0 0,-0.65181 H 5.8584557 a 0.32593974,0.32593974 0 0 0 -0.031187,0 z m 2.932527,0 a 0.32642377,0.32642377 0 0 0 0.033738,0.65181 h 0.3246341 a 0.32598908,0.32598908 0 1 0 0,-0.65181 h -0.324635 a 0.32593974,0.32593974 0 0 0 -0.033737,0 z m -4.8548685,0.78676 0.3246342,0.32464 v 2.14831 c 0,0.36674 -0.285072,0.65181 -0.6518143,0.65181 -0.3667432,0 -0.651814,-0.28507 -0.651814,-0.65181 v -2.14831 l 0.096117,0.0961 a 0.32594036,0.32594036 0 0 0 0.4621257,0 z m 5.5410542,0.51751 c -0.1726282,0 -0.3271802,0.15486 -0.3271802,0.32526 v 1.30364 c -6.836e-4,0.18098 0.1461931,0.32786 0.3271802,0.32717 h 3.58434 c 0.180046,-6.5e-4 0.325323,-0.14712 0.324634,-0.32717 v -1.30364 c -6.19e-4,-0.17911 -0.14552,-0.32462 -0.324634,-0.32526 z m 0.3246341,0.6518 h 2.9325259 v 0.65182 H 9.7706152 Z m -3.9433468,0.65182 a 0.32635778,0.32635778 0 0 0 0.031188,0.65182 h 2.2832588 a 0.32598292,0.32598292 0 1 0 0,-0.65182 H 5.8584569 a 0.32593974,0.32593974 0 0 0 -0.031189,0 z"
       id="rect1720"
       inkscape:connector-curvature="0" />
  </g>
</svg>
