<?xml version="1.0" encoding="UTF-8" standalone="no"?>
<!-- Created with Inkscape (http://www.inkscape.org/) -->

<svg
   width="64pt"
   height="64pt"
   viewBox="0 0 22.577778 22.577778"
   version="1.1"
   id="svg831"
   inkscape:version="1.1.1 (3bf5ae0d25, 2021-09-20)"
   sodipodi:docname="TEMPLATE.svg"
   inkscape:export-filename="C:\Users\User\Desktop\CARLOS PROJECT\4. APRIL 2\Export\Filedline\23 - Wheelbarrow.png"
   inkscape:export-xdpi="576"
   inkscape:export-ydpi="576"
   xmlns:inkscape="http://www.inkscape.org/namespaces/inkscape"
   xmlns:sodipodi="http://sodipodi.sourceforge.net/DTD/sodipodi-0.dtd"
   xmlns="http://www.w3.org/2000/svg"
   xmlns:svg="http://www.w3.org/2000/svg"
   xmlns:rdf="http://www.w3.org/1999/02/22-rdf-syntax-ns#"
   xmlns:cc="http://creativecommons.org/ns#"
   xmlns:dc="http://purl.org/dc/elements/1.1/">
  <defs
     id="defs825">
    <pattern
       id="EMFhbasepattern"
       patternUnits="userSpaceOnUse"
       width="6"
       height="6"
       x="0"
       y="0" />
    <pattern
       id="EMFhbasepattern-9"
       patternUnits="userSpaceOnUse"
       width="6"
       height="6"
       x="0"
       y="0" />
    <pattern
       id="EMFhbasepattern-0"
       patternUnits="userSpaceOnUse"
       width="6"
       height="6"
       x="0"
       y="0" />
    <pattern
       id="EMFhbasepattern-7"
       patternUnits="userSpaceOnUse"
       width="6"
       height="6"
       x="0"
       y="0" />
    <pattern
       id="EMFhbasepattern-2"
       patternUnits="userSpaceOnUse"
       width="6"
       height="6"
       x="0"
       y="0" />
    <pattern
       id="EMFhbasepattern-98"
       patternUnits="userSpaceOnUse"
       width="6"
       height="6"
       x="0"
       y="0" />
    <pattern
       id="EMFhbasepattern-6"
       patternUnits="userSpaceOnUse"
       width="6"
       height="6"
       x="0"
       y="0" />
    <pattern
       id="EMFhbasepattern-01"
       patternUnits="userSpaceOnUse"
       width="6"
       height="6"
       x="0"
       y="0" />
    <pattern
       id="EMFhbasepattern-07"
       patternUnits="userSpaceOnUse"
       width="6"
       height="6"
       x="0"
       y="0" />
    <pattern
       id="EMFhbasepattern-8"
       patternUnits="userSpaceOnUse"
       width="6"
       height="6"
       x="0"
       y="0" />
    <pattern
       id="EMFhbasepattern-4"
       patternUnits="userSpaceOnUse"
       width="6"
       height="6"
       x="0"
       y="0" />
    <pattern
       id="EMFhbasepattern-40"
       patternUnits="userSpaceOnUse"
       width="6"
       height="6"
       x="0"
       y="0" />
    <pattern
       id="EMFhbasepattern-08"
       patternUnits="userSpaceOnUse"
       width="6"
       height="6"
       x="0"
       y="0" />
    <pattern
       id="EMFhbasepattern-04"
       patternUnits="userSpaceOnUse"
       width="6"
       height="6"
       x="0"
       y="0" />
    <pattern
       id="EMFhbasepattern-014"
       patternUnits="userSpaceOnUse"
       width="6"
       height="6"
       x="0"
       y="0" />
    <pattern
       id="EMFhbasepattern-27"
       patternUnits="userSpaceOnUse"
       width="6"
       height="6"
       x="0"
       y="0" />
    <pattern
       id="EMFhbasepattern-09"
       patternUnits="userSpaceOnUse"
       width="6"
       height="6"
       x="0"
       y="0" />
    <pattern
       id="EMFhbasepattern-5"
       patternUnits="userSpaceOnUse"
       width="6"
       height="6"
       x="0"
       y="0" />
    <pattern
       id="EMFhbasepattern-018"
       patternUnits="userSpaceOnUse"
       width="6"
       height="6"
       x="0"
       y="0" />
  </defs>
  <sodipodi:namedview
     id="base"
     pagecolor="#ffffff"
     bordercolor="#666666"
     borderopacity="1.0"
     inkscape:pageopacity="0.0"
     inkscape:pageshadow="2"
     inkscape:zoom="4.5878907"
     inkscape:cx="33.130693"
     inkscape:cy="66.806299"
     inkscape:document-units="pt"
     inkscape:current-layer="layer1"
     showgrid="false"
     units="pt"
     inkscape:window-width="1920"
     inkscape:window-height="1001"
     inkscape:window-x="-9"
     inkscape:window-y="-9"
     inkscape:window-maximized="1"
     inkscape:pagecheckerboard="true"
     inkscape:showpageshadow="false"
     inkscape:object-paths="true"
     inkscape:snap-intersection-paths="true"
     inkscape:snap-smooth-nodes="true"
     inkscape:snap-midpoints="true"
     showguides="true"
     inkscape:snap-bbox="true"
     inkscape:bbox-nodes="true"
     inkscape:snap-nodes="false"
     inkscape:snap-global="true">
    <inkscape:grid
       type="xygrid"
       id="grid1378" />
    <sodipodi:guide
       position="0.97013831,21.607643"
       orientation="78.000048,0"
       id="guide1380"
       inkscape:locked="false" />
    <sodipodi:guide
       position="0.97013831,0.97013129"
       orientation="0,78.000005"
       id="guide1382"
       inkscape:locked="false" />
    <sodipodi:guide
       position="21.607639,0.97013129"
       orientation="-78.000048,0"
       id="guide1384"
       inkscape:locked="false" />
    <sodipodi:guide
       position="21.607639,21.607643"
       orientation="0,-78.000005"
       id="guide1386"
       inkscape:locked="false" />
  </sodipodi:namedview>
  <metadata
     id="metadata828">
    <rdf:RDF>
      <cc:Work
         rdf:about="">
        <dc:format>image/svg+xml</dc:format>
        <dc:type
           rdf:resource="http://purl.org/dc/dcmitype/StillImage" />
      </cc:Work>
    </rdf:RDF>
  </metadata>
  <g
     inkscape:label="Icon"
     inkscape:groupmode="layer"
     id="layer1"
     transform="translate(0,-274.42223)">
    <g
       id="g19701"
       style="display:inline;stroke-width:0.797059"
       transform="matrix(1.2546126,0,0,1.2546126,-37.61165,-38.026673)">
      <g
         id="g250345"
         transform="translate(0,21.166667)"
         style="display:inline;stroke-width:0.797059">
        <path
           style="color:#000000;fill:#cccccc;fill-opacity:1;stroke-width:0.797059;stroke-linecap:round;stroke-linejoin:round;-inkscape-stroke:none"
           d="m 36.044922,228.66926 c -0.392619,-1e-5 -0.717908,0.0963 -0.960938,0.2832 -0.243029,0.1869 -0.391945,0.45127 -0.480468,0.73633 -0.177048,0.57011 -0.146484,1.25217 -0.146485,1.91406 a 0.26461046,0.26461046 0 0 0 0.263672,0.26367 h 2.701172 a 0.26461046,0.26461046 0 0 0 0.255859,-0.19336 l 0.738282,-2.66992 a 0.26461046,0.26461046 0 0 0 -0.253907,-0.33398 z"
           id="path330779" />
        <path
           style="color:#000000;fill:#ececec;stroke-width:0.797059;stroke-linecap:round;stroke-linejoin:round;-inkscape-stroke:none"
           d="m 35.779297,228.66926 a 0.26464844,0.26464844 0 0 0 0,0.52929 c 0.318431,0 0.509429,0.0698 0.638672,0.17188 0.129242,0.10209 0.214314,0.2503 0.271484,0.46484 0.11434,0.4291 0.07813,1.08816 0.07813,1.76758 v 2.62305 a 0.26461046,0.26461046 0 0 0 0.0059,0.0566 l 1.921875,8.71875 a 0.26461046,0.26461046 0 0 0 0.259766,0.20703 h 7.380859 c 0.49029,0 0.865238,-0.43464 0.865235,-0.93164 v -10.67383 c -10e-7,-0.72348 -0.226826,-1.43561 -0.603516,-1.98437 -0.376689,-0.54877 -0.92395,-0.94923 -1.558594,-0.94922 -2.998608,1e-5 -6.261159,1e-5 -9.259765,0 z"
           id="path330781" />
        <path
           id="path330783"
           style="fill:#cccccc;fill-opacity:1;stroke-width:0.797059;stroke-linecap:round;stroke-linejoin:round"
           d="m 36.767782,233.39972 v 0.82631 a 0.26461046,0.26461046 0 0 0 0.0057,0.0563 l 1.921846,8.71885 a 0.26461046,0.26461046 0 0 0 0.259932,0.20722 h 0.824241 v -8.45323 c 0,-0.74264 -0.609592,-1.35548 -1.353924,-1.35548 z" />
        <path
           style="color:#000000;fill:#5b6571;stroke-width:0.797059;stroke-linecap:round;stroke-linejoin:round;-inkscape-stroke:none"
           d="m 31.546875,233.96027 c -0.435245,0 -0.794922,0.35968 -0.794922,0.79492 v 9.52344 c 0,0.43524 0.359677,0.79492 0.794922,0.79492 h 6.878906 c 0.435245,0 0.792969,-0.35967 0.792969,-0.79492 v -9.52344 c 0,-0.43524 -0.357724,-0.79492 -0.792969,-0.79492 z"
           id="path330785" />
        <path
           style="color:#000000;fill:#ececec;stroke-width:0.797059;stroke-linecap:round;stroke-linejoin:round;-inkscape-stroke:none"
           d="m 32.605469,235.01887 c -0.435238,0 -0.794919,0.35773 -0.794922,0.79297 v 1.05859 c -6e-6,0.43524 0.359678,0.79492 0.794922,0.79492 h 4.761718 c 0.435244,0 0.792975,-0.35968 0.792969,-0.79492 v -1.05859 c -3e-6,-0.43524 -0.357731,-0.79297 -0.792969,-0.79297 z"
           id="path330787" />
        <path
           style="color:#000000;fill:#a8c2e1;stroke-width:0.797059;stroke-linecap:round;stroke-linejoin:round;-inkscape-stroke:none"
           d="m 34.720703,238.19465 c -0.289122,0 -0.529308,0.24017 -0.529297,0.52929 v 0.5293 c 1.1e-5,0.28911 0.24019,0.52735 0.529297,0.52735 H 35.25 c 0.289115,0 0.529297,-0.23823 0.529297,-0.52735 v -0.5293 c 0,-0.28911 -0.240182,-0.52929 -0.529297,-0.52929 z"
           id="path330789" />
        <path
           style="color:#000000;fill:#a8c2e1;stroke-width:0.797059;stroke-linecap:round;stroke-linejoin:round;-inkscape-stroke:none"
           d="m 36.837891,238.19465 c -0.289115,0 -0.529297,0.24018 -0.529297,0.52929 v 0.5293 c 0,0.28912 0.240182,0.52735 0.529297,0.52735 h 0.529296 c 0.289115,0 0.529297,-0.23823 0.529297,-0.52735 v -0.5293 c 0,-0.28911 -0.240182,-0.52929 -0.529297,-0.52929 z"
           id="path330791" />
        <path
           style="color:#000000;fill:#a8c2e1;stroke-width:0.797059;stroke-linecap:round;stroke-linejoin:round;-inkscape-stroke:none"
           d="m 32.605469,240.30988 c -0.289115,0 -0.529297,0.24018 -0.529297,0.5293 v 0.5293 c 0,0.28911 0.240182,0.52929 0.529297,0.52929 h 0.527343 c 0.289116,0 0.529297,-0.24018 0.529297,-0.52929 v -0.5293 c 0,-0.28912 -0.240181,-0.5293 -0.529297,-0.5293 z"
           id="path330793" />
        <path
           style="color:#000000;fill:#a8c2e1;stroke-width:0.797059;stroke-linecap:round;stroke-linejoin:round;-inkscape-stroke:none"
           d="m 34.720703,240.30988 c -0.289122,0 -0.529308,0.24018 -0.529297,0.5293 v 0.5293 c 1.1e-5,0.2891 0.24019,0.52929 0.529297,0.52929 H 35.25 c 0.289115,0 0.529297,-0.24018 0.529297,-0.52929 v -0.5293 c 0,-0.28912 -0.240182,-0.5293 -0.529297,-0.5293 z"
           id="path330795" />
        <path
           style="color:#000000;fill:#f0517a;stroke-width:0.797059;stroke-linecap:round;stroke-linejoin:round;-inkscape-stroke:none"
           d="m 36.837891,240.30988 c -0.289119,0 -0.529297,0.24019 -0.529297,0.5293 v 2.64648 c 0,0.28912 0.240178,0.5293 0.529297,0.5293 h 0.529296 c 0.289119,0 0.529297,-0.24018 0.529297,-0.5293 v -2.64648 c 0,-0.28911 -0.240178,-0.5293 -0.529297,-0.5293 z"
           id="path330797" />
        <path
           style="color:#000000;fill:#a8c2e1;stroke-width:0.797059;stroke-linecap:round;stroke-linejoin:round;-inkscape-stroke:none"
           d="m 32.605469,242.42707 c -0.289115,0 -0.529297,0.24018 -0.529297,0.5293 v 0.52929 c 0,0.28912 0.240182,0.5293 0.529297,0.5293 h 0.527343 c 0.289116,0 0.529297,-0.24018 0.529297,-0.5293 v -0.52929 c 0,-0.28912 -0.240181,-0.5293 -0.529297,-0.5293 z"
           id="path330799" />
        <path
           style="color:#000000;fill:#a8c2e1;stroke-width:0.797059;stroke-linecap:round;stroke-linejoin:round;-inkscape-stroke:none"
           d="m 34.720703,242.42707 c -0.289122,0 -0.529308,0.24017 -0.529297,0.5293 v 0.52929 c 1.1e-5,0.28911 0.24019,0.5293 0.529297,0.5293 H 35.25 c 0.289115,0 0.529297,-0.24018 0.529297,-0.5293 v -0.52929 c 0,-0.28912 -0.240182,-0.5293 -0.529297,-0.5293 z"
           id="path330801" />
        <path
           style="color:#000000;fill:#5b6571;stroke-width:0.797059;stroke-linecap:round;stroke-linejoin:round;-inkscape-stroke:none"
           d="m 40.806641,236.60676 c -0.289132,0 -0.529297,0.24018 -0.529297,0.52929 v 4.49805 c 0,0.28912 0.240177,0.5293 0.529297,0.5293 h 1.851562 a 0.26461046,0.26461046 0 0 0 0.265625,-0.26563 v -5.02734 a 0.26461046,0.26461046 0 0 0 -0.265625,-0.26367 z"
           id="path330805" />
        <path
           style="color:#000000;fill:#7d8e9e;stroke-width:0.797059;stroke-linecap:round;stroke-linejoin:round;-inkscape-stroke:none"
           d="m 42.394531,235.01887 c -0.289122,0 -0.529307,0.24017 -0.529297,0.52929 v 6.08594 c -1e-5,0.28912 0.240175,0.5293 0.529297,0.5293 h 3.173828 c 0.289123,0 0.529308,-0.24018 0.529297,-0.5293 v -6.08594 c 1.1e-5,-0.28912 -0.240174,-0.52929 -0.529297,-0.52929 z"
           id="path330817" />
        <path
           id="path330821"
           style="color:#000000;fill:#ececec;stroke-width:0.797059;stroke-linecap:round;stroke-linejoin:round;-inkscape-stroke:none"
           d="m 43.453162,240.04635 c -0.146119,-5.6e-4 -0.26503,0.11743 -0.265615,0.26355 v 1.89327 h 1.588016 v -1.89327 c -5.29e-4,-0.14552 -0.118552,-0.26326 -0.264067,-0.26355 z"
           sodipodi:nodetypes="ccccccc" />
      </g>
      <path
         id="rect22073"
         style="color:#000000;display:inline;fill:#000000;stroke-width:0.797059;stroke-linecap:round;stroke-linejoin:round;-inkscape-stroke:none"
         d="m 36.767782,255.12705 h -5.22087 c -0.435245,0 -0.794782,0.35954 -0.794782,0.79478 v 9.52345 c 0,0.43524 0.359537,0.79478 0.794782,0.79478 h 6.878651 c 0.435245,0 0.793234,-0.35953 0.793234,-0.79478 v -1.07022 h 7.117395 c 0.490289,0 0.865066,-0.43473 0.865063,-0.93173 v -10.67376 c -3e-6,-0.72348 -0.226891,-1.43562 -0.603581,-1.98438 -0.37669,-0.54877 -0.923917,-0.9493 -1.558562,-0.94929 h -9.38289 c -0.528317,0.0526 -0.859806,0.41653 -1.052648,1.01962 -0.177048,0.57011 -0.146761,1.25221 -0.146761,1.9141 5.29e-4,0.14551 0.118552,0.26325 0.264067,0.26355 h 2.046902 z m 0.126608,-4.76194 c 2.686762,1e-5 5.507262,1e-5 8.144722,0 0.409154,0 0.810609,0.26684 1.120862,0.71882 0.310253,0.45199 0.512112,1.07484 0.512114,1.68569 v 10.67376 c 0,0.23993 -0.16375,0.40256 -0.335896,0.40256 h -7.117395 v -7.92406 c 0,-0.43524 -0.357989,-0.79478 -0.793234,-0.79478 h -1.128615 v -2.35748 c 0,-0.65491 0.05673,-1.33262 -0.0956,-1.90428 -0.05122,-0.1922 -0.187457,-0.34236 -0.306958,-0.50023 z m -1.888773,2.13886 c 2.64e-4,-0.56192 -0.0097,-1.12687 0.10387,-1.49242 0.139837,-0.44038 0.451845,-0.62477 0.806289,-0.62477 0.365508,0.006 0.642717,0.28091 0.773459,0.61499 0.09933,0.37276 0.08608,0.92135 0.08062,1.50379 z m 3.154328,-0.81645 c -0.146127,5.3e-4 -0.26412,0.11949 -0.263549,0.26561 5.29e-4,0.14532 0.118232,0.26299 0.263549,0.26355 h 3.176035 c 0.145317,-5.3e-4 0.262982,-0.11823 0.263548,-0.26355 5.3e-4,-0.14612 -0.117422,-0.26504 -0.263548,-0.26561 z m 4.234368,0 c -0.146934,-5.3e-4 -0.266195,0.11868 -0.265618,0.26561 5.29e-4,0.14613 0.119491,0.26413 0.265618,0.26355 h 2.644799 c 0.146127,5.3e-4 0.265046,-0.11742 0.265618,-0.26355 5.29e-4,-0.14693 -0.118684,-0.26619 -0.265618,-0.26561 z m -4.234368,1.05833 c -0.145521,5.3e-4 -0.263266,0.11855 -0.263549,0.26407 -5.29e-4,0.14612 0.117422,0.26504 0.263549,0.26562 h 5.822384 c 0.146127,-5.3e-4 0.264123,-0.1195 0.263551,-0.26562 -2.64e-4,-0.14552 -0.11803,-0.2635 -0.263551,-0.26407 z m 0,1.05885 c -0.14532,5.6e-4 -0.262983,0.11823 -0.263549,0.26355 -5.29e-4,0.14613 0.117422,0.26505 0.263549,0.26562 h 2.117185 c 0.146934,5.8e-4 0.26619,-0.11869 0.265615,-0.26562 -5.29e-4,-0.14612 -0.119491,-0.26412 -0.265615,-0.26355 z m 3.176035,0 c -0.146127,-5.8e-4 -0.265049,0.11743 -0.265618,0.26355 -5.29e-4,0.14694 0.118684,0.26619 0.265618,0.26562 h 4.497916 c 0.146127,-5.8e-4 0.264121,-0.11949 0.263549,-0.26562 -5.29e-4,-0.14532 -0.118229,-0.26298 -0.263549,-0.26355 z m -9.789068,1.85157 h 6.878651 c 0.149259,0 0.264067,0.11637 0.264067,0.26562 v 9.52345 c 0,0.14926 -0.114808,0.26561 -0.264067,0.26561 h -6.878651 c -0.149259,0 -0.265615,-0.11635 -0.265615,-0.26561 v -9.52345 c 0,-0.14925 0.116356,-0.26562 0.265615,-0.26562 z m 1.058333,0.52916 c -0.435237,0 -0.794779,0.358 -0.794782,0.79324 v 1.05833 c -8e-6,0.43524 0.35954,0.79479 0.794782,0.79479 h 4.761984 c 0.435245,0 0.792724,-0.35955 0.792716,-0.79479 v -1.05833 c -3e-6,-0.43524 -0.357479,-0.79324 -0.792716,-0.79324 z m 12.963047,7.14479 c 0.289123,0 0.529177,-0.24056 0.529166,-0.52968 v -6.08594 c 1.1e-5,-0.28912 -0.240043,-0.52917 -0.529166,-0.52917 h -3.173979 c -0.289124,0 -0.529177,0.24005 -0.529167,0.52917 v 1.05885 h -1.058333 c -0.289131,0 -0.529683,0.24006 -0.529683,0.52917 v 4.49792 c 0,0.28912 0.240562,0.52968 0.529683,0.52968 1.587159,0 3.17432,0 4.761479,0 z M 32.605245,256.7146 h 4.761984 c 0.149257,0 0.263549,0.11481 0.263549,0.26407 v 1.05833 c 3e-6,0.14926 -0.114289,0.26562 -0.263549,0.26562 h -4.761984 c -0.149259,0 -0.265618,-0.11636 -0.265615,-0.26562 v -1.05833 c 0,-0.14926 0.116359,-0.26407 0.265615,-0.26407 z m 9.789068,0 h 3.173965 v 6.08594 h -0.792715 v -1.32395 c -5.29e-4,-0.14552 -0.118552,-0.26326 -0.264067,-0.26355 h -1.058334 c -0.146119,-5.6e-4 -0.26503,0.11743 -0.265615,0.26355 v 1.32395 h -0.793234 c 2.6e-5,-2.02925 0,-4.05651 0,-6.08594 z m 0.793234,0.52969 c -0.14532,5.5e-4 -0.262985,0.11823 -0.263551,0.26354 -5.3e-4,0.14613 0.117424,0.26505 0.263551,0.26562 h 0.265615 c 0.146127,-5.8e-4 0.264123,-0.11949 0.263552,-0.26562 -5.29e-4,-0.14531 -0.118232,-0.26298 -0.263552,-0.26354 z m 1.323949,0 c -0.146125,-5.9e-4 -0.265047,0.11742 -0.265616,0.26354 -5.29e-4,0.14694 0.118682,0.2662 0.265616,0.26562 h 0.264067 c 0.146127,-5.8e-4 0.26412,-0.11949 0.263549,-0.26562 -5.29e-4,-0.14531 -0.118229,-0.26298 -0.263549,-0.26354 z m -3.704683,1.05833 h 1.058333 v 0.52917 h -0.265618 c -0.14552,5.8e-4 -0.263265,0.11854 -0.263548,0.26406 -5.3e-4,0.14613 0.117422,0.26505 0.263548,0.26562 h 0.265618 v 0.52917 h -0.265618 c -0.145319,5.5e-4 -0.262982,0.11823 -0.263548,0.26355 -5.3e-4,0.14612 0.117422,0.26504 0.263548,0.26561 h 0.265618 v 0.52762 h -0.265618 c -0.146126,5.8e-4 -0.26412,0.11949 -0.263548,0.26562 5.29e-4,0.14531 0.118229,0.26298 0.263548,0.26355 h 0.265618 v 1.32395 h -1.058333 z m 2.380734,0 c -0.14532,5.5e-4 -0.262985,0.11823 -0.263551,0.26355 -5.3e-4,0.14612 0.117424,0.26505 0.263551,0.26562 h 0.265615 c 0.146127,-5.9e-4 0.264123,-0.1195 0.263552,-0.26562 -5.29e-4,-0.14532 -0.118232,-0.26299 -0.263552,-0.26355 z m 1.323949,0 c -0.146125,-5.8e-4 -0.265047,0.11742 -0.265616,0.26355 -5.29e-4,0.14693 0.118682,0.26619 0.265616,0.26562 h 0.264067 c 0.146127,-5.9e-4 0.26412,-0.1195 0.263549,-0.26562 -5.29e-4,-0.14532 -0.118229,-0.26298 -0.263549,-0.26355 z m -9.804054,1.05885 c -0.283051,0.007 -0.516258,0.24456 -0.516247,0.52917 v 0.52916 c 10e-6,0.28911 0.240578,0.52762 0.529685,0.52762 h 0.529167 c 0.289113,0 0.529166,-0.2385 0.529166,-0.52762 v -0.52916 c 0,-0.28911 -0.240053,-0.52917 -0.529166,-0.52917 z m 2.117185,0 c -0.283046,0.007 -0.516247,0.24457 -0.516247,0.52917 v 0.52916 c 0,0.28912 0.240567,0.52762 0.529683,0.52762 h 0.529166 c 0.289116,0 0.529167,-0.2385 0.529167,-0.52762 v -0.52916 c 0,-0.28911 -0.240051,-0.52917 -0.529167,-0.52917 z m 6.36292,0 c -0.14532,5.5e-4 -0.262985,0.11823 -0.263551,0.26355 -5.3e-4,0.14612 0.117424,0.26505 0.263551,0.26562 h 0.265615 c 0.146127,-5.9e-4 0.264123,-0.1195 0.263552,-0.26562 -5.29e-4,-0.14532 -0.118232,-0.26299 -0.263552,-0.26355 z m 1.323949,0 c -0.146125,-5.8e-4 -0.265047,0.11742 -0.265616,0.26355 -5.29e-4,0.14693 0.118682,0.26619 0.265616,0.26562 h 0.264067 c 0.146127,-5.9e-4 0.26412,-0.1195 0.263549,-0.26562 -5.29e-4,-0.14532 -0.118229,-0.26298 -0.263549,-0.26355 z m -9.790616,0.52917 h 0.529167 v 0.52916 H 34.72088 Z m 2.117183,0 h 0.529166 v 0.52916 h -0.529166 z m -4.246253,1.58595 c -0.283046,0.007 -0.515731,0.24456 -0.515731,0.52916 v 0.52917 c 0,0.28911 0.240051,0.52968 0.529166,0.52968 h 0.527617 c 0.289115,0 0.529166,-0.24057 0.529166,-0.52968 v -0.52917 c 0,-0.28912 -0.240051,-0.52916 -0.529166,-0.52916 z m 2.115632,0 c -0.283051,0.007 -0.516258,0.24456 -0.516247,0.52916 v 0.52917 c 10e-6,0.2891 0.240578,0.52968 0.529685,0.52968 h 0.529167 c 0.289113,0 0.529166,-0.24057 0.529166,-0.52968 v -0.52917 c 0,-0.28912 -0.240053,-0.52916 -0.529166,-0.52916 z m 2.130621,0 c -0.289118,0 -0.529683,0.24005 -0.529683,0.52916 v 2.64635 c 0,0.28912 0.240565,0.52969 0.529683,0.52969 h 0.529166 c 0.289119,0 0.529167,-0.24057 0.529167,-0.52969 v -2.64635 c 0,-0.28911 -0.240048,-0.52916 -0.529167,-0.52916 z m 6.878651,0.26561 h 0.529166 v 1.05834 h -0.529166 z m -11.111469,0.26355 h 0.527617 v 0.52917 h -0.527617 z m 2.115635,0 h 0.529167 v 0.52917 H 34.72088 Z m 2.117183,0 h 0.529166 v 2.64635 h -0.529166 z m -4.246253,1.58802 c -0.283046,0.007 -0.515731,0.24456 -0.515731,0.52917 v 0.52916 c 0,0.28912 0.240051,0.52969 0.529166,0.52969 h 0.527617 c 0.289115,0 0.529166,-0.24057 0.529166,-0.52969 v -0.52916 c 0,-0.28912 -0.240051,-0.52917 -0.529166,-0.52917 z m 2.115632,0 c -0.283051,0.007 -0.516258,0.24455 -0.516247,0.52917 v 0.52916 c 10e-6,0.28911 0.240578,0.52969 0.529685,0.52969 h 0.529167 c 0.289113,0 0.529166,-0.24057 0.529166,-0.52969 v -0.52916 c 0,-0.28912 -0.240053,-0.52917 -0.529166,-0.52917 z m -2.102197,0.52917 h 0.527617 v 0.52916 h -0.527617 z m 2.115635,0 h 0.529167 v 0.52916 H 34.72088 Z"
         sodipodi:nodetypes="csssssscsccsccccccccsscsscsscssccccccccsccscccsccsccccccccccsccscccsccsccssssssssssscsscssscccssccsssccssscsscssccccccccccccsccscccsccscccccccccccsccccsccccccsccscccsccscccccsssscccsssssscccsccscccsccscccccccccccccsssssscccccssssccssssssssscccccccccccccccccccccsssssscccccsssscccccccccccc" />
    </g>
  </g>
</svg>
