<?xml version="1.0" standalone="no"?>
<!DOCTYPE svg PUBLIC "-//W3C//DTD SVG 1.1//EN" "http://www.w3.org/Graphics/SVG/1.1/DTD/svg11.dtd" >
<svg>
<metadata>
Created by FontForge 20120731 at Thu Sep 13 09:59:40 2018
 By www
</metadata>
<defs>
<font id="QuartzMSW01-Regular" horiz-adv-x="626" >
  <font-face 
    font-family="QuartzMSW01-Regular"
    font-weight="400"
    font-stretch="normal"
    units-per-em="1000"
    panose-1="2 1 6 4 2 2 4 4 2 1"
    ascent="850"
    descent="-150"
    x-height="676"
    cap-height="693"
    bbox="-50 -244 1184 922"
    underline-thickness="58"
    underline-position="-116"
    unicode-range="U+0020-2122"
  />
<missing-glyph horiz-adv-x="0" 
 />
    <glyph glyph-name=".notdef" horiz-adv-x="0" 
 />
    <glyph glyph-name="glyph1" horiz-adv-x="0" 
 />
    <glyph glyph-name="glyph2" horiz-adv-x="0" 
 />
    <glyph glyph-name="space" unicode=" " horiz-adv-x="265" 
 />
    <glyph glyph-name="exclam" unicode="!" horiz-adv-x="280" 
d="M80 134l60 60l60 -60v-61l-60 -60l-60 60v61zM192 293l-53 -53l-52 53v348l53 52l52 -52v-348z" />
    <glyph glyph-name="quotedbl" unicode="&#x22;" horiz-adv-x="340" 
d="M190 700h100v-159l-50 -50l-50 50v159zM50 700h100v-159l-50 -50l-50 50v159z" />
    <glyph glyph-name="numbersign" unicode="#" horiz-adv-x="674" 
d="M494 542l-40 -40l-39 40v114l40 40l39 -40v-114zM634 519l40 -41l-39 -40h-128l-40 40l41 41h126zM494 55l-39 -40l-40 40v119l40 40l39 -40v-119zM494 302l-40 -40l-39 40v113l40 41l39 -41v-113zM633 277l40 -40l-39 -39h-128l-39 39l40 40h126zM260 542l-40 -40
l-39 40v114l40 40l39 -40v-114zM400 519l40 -41l-39 -40h-128l-40 40l41 41h126zM167 519l41 -41l-40 -40h-128l-39 40l40 41h126zM260 55l-39 -40l-40 40v119l40 40l39 -40v-119zM260 302l-40 -40l-39 40v113l40 41l39 -41v-113zM399 277l41 -40l-40 -39h-128l-39 39l40 40
h126zM167 277l40 -40l-40 -39h-128l-39 39l40 40h127z" />
    <glyph glyph-name="dollar" unicode="$" 
d="M185 421l-53 -53l-52 53v152l52 51l53 -53v-150zM546 123l-52 -53l-53 53v156l53 53l52 -53v-156zM410 402l53 -53l-52 -52h-195l-52 52l53 53h193zM418 105l53 -53l-53 -52h-314l105 105h209zM523 700l-105 -105h-209l-52 52l53 53h313zM376 740h-105v106l53 53l52 -53
v-106zM376 -146l-52 -53l-53 53v106h105v-106z" />
    <glyph glyph-name="percent" unicode="%" horiz-adv-x="830" 
d="M452 234l41 44l43 -41v-147l-43 -43l-41 43v144zM694 68l41 -42l-41 -41h-140l-41 41l41 42h140zM712 237l42 41l41 -44v-144l-41 -43l-42 43v147zM694 339l41 -41l-41 -43h-140l-41 43l41 41h140zM402 370v47l173 283h48v-55l-167 -275h-54zM402 329v-49l-170 -280h-45
v63l162 266h53zM23 595l41 44l43 -41v-147l-43 -43l-41 43v144zM265 429l41 -42l-41 -41h-140l-41 41l41 42h140zM283 598l42 41l41 -44v-144l-41 -43l-42 43v147zM265 700l41 -41l-41 -43h-140l-41 43l41 41h140z" />
    <glyph glyph-name="ampersand" unicode="&#x26;" horiz-adv-x="706" 
d="M409 105l49 -55l-55 -50h-191l-53 52l53 53h197zM83 373l52 53l53 -72v-231l-53 -53l-52 53v250zM618 237l-52 -53l-53 68v121l53 53l52 -53v-136zM543 700l-105 -105h-168l-72 105h345zM83 625v75h73l163 -257v-73h-75zM605 75v-75h-73l-197 256v73h75z" />
    <glyph glyph-name="quotesingle" unicode="'" horiz-adv-x="200" 
d="M50 700h100v-159l-50 -50l-50 50v159z" />
    <glyph glyph-name="parenleft" unicode="(" horiz-adv-x="371" 
d="M318 -30l53 -53l-53 -52h-110l-52 52l53 53h109zM185 -12l-52 -52l-53 52v291l53 52l52 -52v-291zM185 421l-53 -53l-52 53v150l53 52l52 -52v-150zM318 700l52 -53l-52 -52h-109l-52 52l53 53h108z" />
    <glyph glyph-name="parenright" unicode=")" horiz-adv-x="371" 
d="M162 -30l53 -53l-52 -52h-110l-53 52l53 53h109zM186 279l52 52l53 -52v-291l-53 -52l-52 52v291zM186 571l52 52l53 -52v-150l-52 -53l-53 53v150zM161 700l53 -53l-52 -52h-109l-52 52l52 53h108z" />
    <glyph glyph-name="asterisk" unicode="*" horiz-adv-x="439" 
d="M259 509h-79v165l40 40l39 -40v-165zM339 509h-57v56l51 60h56v-56zM379 420v-57h-56l-91 70v56h58zM157 566v-57h-57l-50 60v56h58zM116 363h-56v55l91 71h56v-56z" />
    <glyph glyph-name="plus" unicode="+" 
d="M539 402l53 -53l-52 -52h-145l-52 52l53 53h143zM365 123l-52 -53l-53 53v156l53 53l52 -53v-156zM229 402l53 -53l-52 -52h-145l-52 52l53 53h143zM365 421l-52 -53l-53 53v150l53 53l52 -53v-150z" />
    <glyph glyph-name="comma" unicode="," horiz-adv-x="260" 
d="M104 141l64 43l32 -73l-54 -201l-64 -42l-32 73z" />
    <glyph glyph-name="hyphen" unicode="-" horiz-adv-x="399" 
d="M296 402l53 -53l-52 -52h-195l-52 52l53 53h193z" />
    <glyph glyph-name="period" unicode="." horiz-adv-x="280" 
d="M80 134l60 60l60 -60v-61l-60 -60l-60 60v61z" />
    <glyph glyph-name="slash" unicode="/" horiz-adv-x="390" 
d="M66 -116h-55v73l305 743h53v-75z" />
    <glyph glyph-name="zero" unicode="0" 
d="M546 370h-54l-51 51v150l105 105v-306zM80 676l105 -105v-150l-51 -51h-54v306zM80 329h55l50 -50v-156l-105 -105v311zM546 23l-105 100v156l50 50h55v-306zM523 700l-105 -105h-209l-105 105h419zM104 0l105 105h214l100 -105h-419z" />
    <glyph glyph-name="one" unicode="1" 
d="M546 370h-54l-51 51v150l105 105v-306zM546 18l-105 105v156l50 50h55v-311z" />
    <glyph glyph-name="two" unicode="2" 
d="M410 402l53 -53l-52 -52h-195l-52 52l53 53h193zM546 421l-52 -53l-53 53v150l105 105v-255zM80 279l52 53l53 -53v-156l-105 -105v261zM523 700l-105 -105h-209l-105 105h419zM104 0l105 105h209l105 -105h-419z" />
    <glyph glyph-name="three" unicode="3" 
d="M410 402l53 -53l-52 -52h-195l-52 52l53 53h193zM546 370h-54l-51 51v150l105 105v-306zM546 18l-105 105v156l50 50h55v-311zM523 700l-105 -105h-209l-105 105h419zM104 0l105 105h209l105 -105h-419z" />
    <glyph glyph-name="four" unicode="4" 
d="M410 402l53 -53l-52 -52h-195l-52 52l53 53h193zM546 370h-54l-51 51v150l105 105v-306zM80 676l105 -105v-150l-53 -53l-52 53v255zM546 18l-105 105v156l50 50h55v-311z" />
    <glyph glyph-name="five" unicode="5" 
d="M410 402l53 -53l-52 -52h-195l-52 52l53 53h193zM80 676l105 -105v-150l-53 -53l-52 53v255zM546 18l-105 105v156l53 53l52 -53v-261zM523 700l-105 -105h-209l-105 105h419zM104 0l105 105h209l105 -105h-419z" />
    <glyph glyph-name="six" unicode="6" 
d="M410 402l53 -53l-52 -52h-195l-52 52l53 53h193zM80 676l105 -105v-150l-51 -51h-54v306zM80 329h55l50 -50v-156l-105 -105v311zM546 18l-105 105v156l53 53l52 -53v-261zM523 700l-105 -105h-209l-105 105h419zM104 0l105 105h209l105 -105h-419z" />
    <glyph glyph-name="seven" unicode="7" 
d="M546 370h-54l-51 51v150l105 105v-306zM546 18l-105 105v156l50 50h55v-311zM523 700l-105 -105h-209l-105 105h419z" />
    <glyph glyph-name="eight" unicode="8" 
d="M410 402l53 -53l-52 -52h-195l-52 52l53 53h193zM546 370h-54l-51 51v150l105 105v-306zM80 676l105 -105v-150l-51 -51h-54v306zM80 329h55l50 -50v-156l-105 -105v311zM546 18l-105 105v156l50 50h55v-311zM523 700l-105 -105h-209l-105 105h419zM104 0l105 105h209
l105 -105h-419z" />
    <glyph glyph-name="nine" unicode="9" 
d="M410 402l53 -53l-52 -52h-195l-52 52l53 53h193zM546 370h-54l-51 51v150l105 105v-306zM80 676l105 -105v-150l-53 -53l-52 53v255zM546 18l-105 105v156l50 50h55v-311zM523 700l-105 -105h-209l-105 105h419zM104 0l105 105h209l105 -105h-419z" />
    <glyph glyph-name="colon" unicode=":" horiz-adv-x="280" 
d="M80 132l60 62l60 -60v-61l-60 -60l-60 60v59zM80 506l60 60l60 -62v-58l-60 -60l-60 60v60z" />
    <glyph glyph-name="semicolon" unicode=";" horiz-adv-x="280" 
d="M84 141l69 43l37 -73l-54 -201l-69 -42l-37 73zM80 506l60 60l60 -62v-58l-60 -60l-60 60v60z" />
    <glyph glyph-name="less" unicode="&#x3c;" 
d="M265 370h-75v73l181 181h73v-75zM444 150v-75h-73l-181 181v73h75z" />
    <glyph glyph-name="equal" unicode="=" 
d="M520 296l53 -53l-52 -52h-145l-52 52l53 53h143zM250 296l53 -53l-52 -52h-145l-52 52l53 53h143zM520 504l53 -53l-52 -52h-145l-52 52l53 53h143zM250 504l53 -53l-52 -52h-145l-52 52l53 53h143z" />
    <glyph glyph-name="greater" unicode="&#x3e;" 
d="M182 549v75h73l181 -181v-73h-75zM361 329h75v-73l-181 -181h-73v75z" />
    <glyph glyph-name="question" unicode="?" horiz-adv-x="529" 
d="M184 134l60 60l60 -60v-61l-60 -60l-60 60v61zM280 229h-68v70l102 103l69 -69zM321 700l52 -53l-52 -52h-209l-52 52l53 53h208zM449 421l-52 -53l-53 53v150l53 53l52 -53v-150z" />
    <glyph glyph-name="at" unicode="@" horiz-adv-x="826" 
d="M456 226l51 51l54 -51v-61h-54h-51v61zM355 440l-53 53v52h126l52 -52l-53 -53h-72zM456 425l52 53l53 -53v-61l-53 -53l-52 53v61zM246 226l52 53l53 -53v-61l-53 -53l-52 53v61zM374 46l-52 43l52 52h257l105 -95h-362zM382 245l-53 53l52 52h44l52 -52l-53 -53h-42z
M588 -30l53 -53l-53 -52h-380l-52 52l53 53h379zM746 71l-105 104v104l53 53l52 -53v-208zM185 -12l-52 -52l-53 52v291l53 52l52 -52v-291zM185 421l-53 -53l-52 53v150l53 52l52 -52v-150zM618 700l52 -53l-52 -52h-409l-52 52l53 53h408zM746 421l-52 -53l-53 53v150
l53 53l52 -53v-150z" />
    <glyph glyph-name="A" unicode="A" 
d="M80 571l52 53l53 -53v-150l-51 -51h-54v201zM546 18l-105 105v156l50 50h55v-311zM546 370h-54l-51 51v150l53 53l52 -53v-201zM418 700l52 -53l-52 -52h-209l-52 52l53 53h208zM410 402l53 -53l-52 -52h-195l-52 52l53 53h193zM80 329h55l50 -50v-156l-105 -105v311z
" />
    <glyph glyph-name="B" unicode="B" 
d="M80 676l105 -105v-150l-51 -51h-54v306zM546 123l-52 -53l-53 53v156l53 53l52 -53v-156zM104 0l105 105h209l54 -54l-54 -51h-314zM418 700l52 -53l-52 -52h-209l-105 105h314zM410 402l53 -53l-52 -52h-195l-52 52l53 53h193zM546 421l-52 -53l-53 53v150l53 53l52 -53
v-150zM80 329h55l50 -50v-156l-105 -105v311z" />
    <glyph glyph-name="C" unicode="C" horiz-adv-x="572" 
d="M80 329h55l50 -50v-156l-53 -53l-52 53v206zM80 571l52 53l53 -53v-150l-51 -51h-54v201zM523 700l-105 -105h-209l-52 52l52 53h314zM209 0l-52 53l52 52h209l105 -105h-314z" />
    <glyph glyph-name="D" unicode="D" 
d="M80 676l105 -105v-150l-51 -51h-54v306zM546 123l-52 -53l-53 53v156l50 50h55v-206zM104 0l105 105h209l52 -52l-52 -53h-314zM418 700l52 -53l-52 -52h-209l-105 105h314zM546 370h-54l-51 51v150l53 53l52 -53v-201zM80 329h55l50 -50v-156l-105 -105v311z" />
    <glyph glyph-name="E" unicode="E" horiz-adv-x="573" 
d="M410 402l53 -53l-52 -52h-195l-52 52l53 53h193zM80 676l105 -105v-150l-51 -51h-54v306zM80 329h55l50 -50v-156l-105 -105v311zM523 700l-105 -105h-209l-105 105h419zM104 0l105 105h209l105 -105h-419z" />
    <glyph glyph-name="F" unicode="F" horiz-adv-x="573" 
d="M410 402l53 -53l-52 -52h-195l-52 52l53 53h193zM80 676l105 -105v-150l-51 -51h-54v306zM80 329h55l50 -50v-156l-105 -105v311zM523 700l-105 -105h-209l-105 105h419z" />
    <glyph glyph-name="G" unicode="G" 
d="M546 18l-105 105v156l50 50h55v-311zM80 329h55l50 -50v-156l-53 -53l-52 53v206zM80 571l52 53l53 -53v-150l-51 -51h-54v201zM523 700l-105 -105h-209l-52 52l52 53h314zM209 0l-52 53l52 52h209l105 -105h-314z" />
    <glyph glyph-name="H" unicode="H" 
d="M410 402l53 -53l-52 -52h-195l-52 52l53 53h193zM546 370h-54l-51 51v150l105 105v-306zM80 676l105 -105v-150l-51 -51h-54v306zM80 329h55l50 -50v-156l-105 -105v311zM546 18l-105 105v156l50 50h55v-311z" />
    <glyph glyph-name="I" unicode="I" horiz-adv-x="265" 
d="M185 53l-52 -52l-53 52v226l53 52l52 -52v-226zM185 421l-53 -53l-52 53v220l53 52l52 -52v-220z" />
    <glyph glyph-name="J" unicode="J" horiz-adv-x="572" 
d="M492 370h-54l-51 51v150l105 105v-306zM492 123l-52 -53l-53 53v156l50 50h55v-206zM50 0l105 105h209l52 -52l-52 -53h-314z" />
    <glyph glyph-name="K" unicode="K" horiz-adv-x="571" 
d="M292 370h-75v73l231 231h73v-75zM521 100v-75h-73l-231 231v73h75zM80 676l105 -105v-150l-51 -51h-54v306zM80 329h55l50 -50v-156l-105 -105v311z" />
    <glyph glyph-name="L" unicode="L" horiz-adv-x="553" 
d="M80 676l105 -105v-150l-51 -51h-54v306zM80 329h55l50 -50v-156l-105 -104v310zM104 0l105 105h209l105 -105h-419z" />
    <glyph glyph-name="M" unicode="M" horiz-adv-x="987" 
d="M546 93l-52 -53l-53 53v186l53 53l52 -53v-186zM546 421l-53 -52l-52 52v150l53 53l52 -53v-150zM884 700l-105 -105h-209l-52 52v53h366zM470 700v-53l-52 -52h-209l-105 105h366zM907 370h-54l-51 51v150l105 105v-306zM907 18l-105 105v156l50 50h55v-311zM80 676
l105 -105v-150l-51 -51h-54v306zM80 329h55l50 -50v-156l-105 -105v311z" />
    <glyph glyph-name="N" unicode="N" 
d="M546 370h-54l-51 51v150l105 105v-306zM80 676l105 -105v-150l-51 -51h-54v306zM80 329h55l50 -50v-156l-105 -105v311zM546 18l-105 105v156l50 50h55v-311zM523 700l-105 -105h-209l-105 105h419z" />
    <glyph glyph-name="O" unicode="O" 
d="M80 329h55l50 -50v-156l-53 -53l-52 53v206zM80 571l52 53l53 -53v-150l-51 -51h-54v201zM546 123l-52 -53l-53 53v156l50 50h55v-206zM418 105l53 -53l-53 -52h-209l-53 52l53 53h209zM418 700l52 -53l-52 -52h-209l-52 52l53 53h208zM546 370h-54l-51 51v150l53 53
l52 -53v-201z" />
    <glyph glyph-name="P" unicode="P" 
d="M80 676l105 -105v-150l-51 -51h-54v306zM418 700l52 -53l-52 -52h-209l-105 105h314zM410 402l53 -53l-52 -52h-195l-52 52l53 53h193zM546 421l-52 -53l-53 53v150l53 53l52 -53v-150zM80 329h55l50 -50v-156l-105 -105v311z" />
    <glyph glyph-name="Q" unicode="Q" 
d="M536 -23v-75h-73l-130 130v73h75zM80 329h55l50 -50v-156l-53 -53l-52 53v206zM80 571l52 53l53 -53v-150l-51 -51h-54v201zM546 123l-52 -53l-53 53v156l50 50h55v-206zM298 105v-105h-89l-53 52l53 53h89zM418 700l52 -53l-52 -52h-209l-52 52l53 53h208zM546 370h-54
l-51 51v150l53 53l52 -53v-201z" />
    <glyph glyph-name="R" unicode="R" 
d="M546 18l-105 105v156l53 53l52 -53v-261zM80 676l105 -105v-150l-51 -51h-54v306zM418 700l52 -53l-52 -52h-209l-105 105h314zM410 402l53 -53l-52 -52h-195l-52 52l53 53h193zM546 421l-52 -53l-53 53v150l53 53l52 -53v-150zM80 329h55l50 -50v-156l-105 -105v311z
" />
    <glyph glyph-name="S" unicode="S" 
d="M185 421l-53 -53l-52 53v152l52 51l53 -53v-150zM546 123l-52 -53l-53 53v156l53 53l52 -53v-156zM410 402l53 -53l-52 -52h-195l-52 52l53 53h193zM418 105l53 -53l-53 -52h-314l105 105h209zM523 700l-105 -105h-209l-52 52l53 53h313z" />
    <glyph glyph-name="T" unicode="T" horiz-adv-x="679" 
d="M391 53l-52 -53l-53 53v226l53 53l52 -53v-226zM391 421l-53 -52l-52 52v150l53 53l52 -53v-150zM649 700l-105 -105h-129l-52 52v53h286zM316 700v-53l-52 -52h-129l-105 105h286z" />
    <glyph glyph-name="U" unicode="U" 
d="M80 329h55l50 -50v-156l-53 -53l-52 53v206zM546 123l-52 -53l-53 53v156l50 50h55v-206zM418 105l53 -53l-53 -52h-209l-53 52l53 53h209zM546 370h-54l-51 51v150l105 105v-306zM80 676l105 -105v-150l-51 -51h-54v306z" />
    <glyph glyph-name="V" unicode="V" 
d="M471 329h75v-73l-280 -256h-153zM80 329h55l50 -50v-156l-105 -105v105v206zM546 370h-54l-51 51v150l105 105v-306zM80 676l105 -105v-150l-51 -51h-54v306z" />
    <glyph glyph-name="W" unicode="W" horiz-adv-x="987" 
d="M546 123l-52 -53l-53 53v156l53 53l52 -53v-156zM546 421l-53 -52l-52 52v150l53 53l52 -53v-150zM782 105l53 -53l-53 -52h-209l-53 52l53 53h209zM80 329h55l50 -50v-156l-53 -53l-52 53v206zM418 105l53 -53l-53 -52h-209l-53 52l53 53h209zM907 129l-49 -59l-56 59
v150l51 51h54v-201zM907 370h-54l-51 51v150l105 105v-306zM80 676l105 -105v-150l-51 -51h-54v306z" />
    <glyph glyph-name="X" unicode="X" horiz-adv-x="633" 
d="M56 625v75h73l157 -257v-73h-75zM211 329h75v-73l-157 -256h-73v75zM391 370h-75v73l157 257h73v-75zM546 75v-75h-73l-157 256v73h75z" />
    <glyph glyph-name="Y" unicode="Y" 
d="M368 53l-52 -53l-53 53v206h105v-206zM80 676l105 -105v-150l-53 -53l-52 53v255zM546 421l-52 -53l-53 53v150l105 105v-255zM410 402l53 -53l-52 -52h-195l-52 52l53 53h193z" />
    <glyph glyph-name="Z" unicode="Z" horiz-adv-x="587" 
d="M375 700l-64 -105h-147l-105 105h316zM173 0l64 105h200l100 -105h-364zM215 329h75v-73l-157 -256h-73v75zM333 370h-75v73l157 257h73v-75z" />
    <glyph glyph-name="bracketleft" unicode="[" horiz-adv-x="423" 
d="M80 676l105 -105v-150l-51 -51h-54v306zM80 329h55l50 -50v-291l-105 -105v446zM423 700l-105 -105h-109l-105 105h319zM104 -135l105 105h109l105 -105h-319z" />
    <glyph glyph-name="backslash" unicode="\" horiz-adv-x="390" 
d="M11 625v75h53l305 -743v-73h-55z" />
    <glyph glyph-name="bracketright" unicode="]" horiz-adv-x="423" 
d="M343 370h-54l-51 51v150l105 105v-306zM343 -117l-105 105v291l50 50h55v-446zM319 700l-105 -105h-109l-105 105h319zM0 -135l105 105h109l105 -105h-319z" />
    <glyph glyph-name="asciicircum" unicode="^" 
d="M143 315h-75v73l224 324v-178zM333 534v178l224 -324v-73h-75z" />
    <glyph glyph-name="underscore" unicode="_" horiz-adv-x="422" 
d="M369 -40l53 -53l-52 -52h-318l-52 52l53 53h316z" />
    <glyph glyph-name="grave" unicode="`" horiz-adv-x="268" 
d="M62 660v75h53l109 -87v-73h-55z" />
    <glyph glyph-name="a" unicode="a" 
d="M80 571l52 53l53 -53v-150l-51 -51h-54v201zM546 18l-105 105v156l50 50h55v-311zM546 370h-54l-51 51v150l53 53l52 -53v-201zM418 700l52 -53l-52 -52h-209l-52 52l53 53h208zM410 402l53 -53l-52 -52h-195l-52 52l53 53h193zM80 329h55l50 -50v-156l-105 -105v311z
" />
    <glyph glyph-name="b" unicode="b" 
d="M80 676l105 -105v-150l-51 -51h-54v306zM546 123l-52 -53l-53 53v156l53 53l52 -53v-156zM104 0l105 105h209l54 -54l-54 -51h-314zM418 700l52 -53l-52 -52h-209l-105 105h314zM410 402l53 -53l-52 -52h-195l-52 52l53 53h193zM546 421l-52 -53l-53 53v150l53 53l52 -53
v-150zM80 329h55l50 -50v-156l-105 -105v311z" />
    <glyph glyph-name="c" unicode="c" horiz-adv-x="572" 
d="M80 329h55l50 -50v-156l-53 -53l-52 53v206zM80 571l52 53l53 -53v-150l-51 -51h-54v201zM523 700l-105 -105h-209l-52 52l52 53h314zM209 0l-52 53l52 52h209l105 -105h-314z" />
    <glyph glyph-name="d" unicode="d" 
d="M80 676l105 -105v-150l-51 -51h-54v306zM546 123l-52 -53l-53 53v156l50 50h55v-206zM104 0l105 105h209l52 -52l-52 -53h-314zM418 700l52 -53l-52 -52h-209l-105 105h314zM546 370h-54l-51 51v150l53 53l52 -53v-201zM80 329h55l50 -50v-156l-105 -105v311z" />
    <glyph glyph-name="e" unicode="e" horiz-adv-x="573" 
d="M410 402l53 -53l-52 -52h-195l-52 52l53 53h193zM80 676l105 -105v-150l-51 -51h-54v306zM80 329h55l50 -50v-156l-105 -105v311zM523 700l-105 -105h-209l-105 105h419zM104 0l105 105h209l105 -105h-419z" />
    <glyph glyph-name="f" unicode="f" horiz-adv-x="573" 
d="M410 402l53 -53l-52 -52h-195l-52 52l53 53h193zM80 676l105 -105v-150l-51 -51h-54v306zM80 329h55l50 -50v-156l-105 -105v311zM523 700l-105 -105h-209l-105 105h419z" />
    <glyph glyph-name="g" unicode="g" 
d="M546 18l-105 105v156l50 50h55v-311zM80 329h55l50 -50v-156l-53 -53l-52 53v206zM80 571l52 53l53 -53v-150l-51 -51h-54v201zM523 700l-105 -105h-209l-52 52l52 53h314zM209 0l-52 53l52 52h209l105 -105h-314z" />
    <glyph glyph-name="h" unicode="h" 
d="M410 402l53 -53l-52 -52h-195l-52 52l53 53h193zM546 370h-54l-51 51v150l105 105v-306zM80 676l105 -105v-150l-51 -51h-54v306zM80 329h55l50 -50v-156l-105 -105v311zM546 18l-105 105v156l50 50h55v-311z" />
    <glyph glyph-name="i" unicode="i" horiz-adv-x="265" 
d="M185 53l-52 -52l-53 52v226l53 52l52 -52v-226zM185 421l-53 -53l-52 53v220l53 52l52 -52v-220z" />
    <glyph glyph-name="j" unicode="j" horiz-adv-x="572" 
d="M492 370h-54l-51 51v150l105 105v-306zM492 123l-52 -53l-53 53v156l50 50h55v-206zM50 0l105 105h209l52 -52l-52 -53h-314z" />
    <glyph glyph-name="k" unicode="k" horiz-adv-x="571" 
d="M292 370h-75v73l231 231h73v-75zM521 100v-75h-73l-231 231v73h75zM80 676l105 -105v-150l-51 -51h-54v306zM80 329h55l50 -50v-156l-105 -105v311z" />
    <glyph glyph-name="l" unicode="l" horiz-adv-x="553" 
d="M80 676l105 -105v-150l-51 -51h-54v306zM80 329h55l50 -50v-156l-105 -104v310zM104 0l105 105h209l105 -105h-419z" />
    <glyph glyph-name="m" unicode="m" horiz-adv-x="987" 
d="M546 93l-52 -53l-53 53v186l53 53l52 -53v-186zM546 421l-53 -52l-52 52v150l53 53l52 -53v-150zM884 700l-105 -105h-209l-52 52v53h366zM470 700v-53l-52 -52h-209l-105 105h366zM907 370h-54l-51 51v150l105 105v-306zM907 18l-105 105v156l50 50h55v-311zM80 676
l105 -105v-150l-51 -51h-54v306zM80 329h55l50 -50v-156l-105 -105v311z" />
    <glyph glyph-name="n" unicode="n" 
d="M546 370h-54l-51 51v150l105 105v-306zM80 676l105 -105v-150l-51 -51h-54v306zM80 329h55l50 -50v-156l-105 -105v311zM546 18l-105 105v156l50 50h55v-311zM523 700l-105 -105h-209l-105 105h419z" />
    <glyph glyph-name="o" unicode="o" 
d="M80 329h55l50 -50v-156l-53 -53l-52 53v206zM80 571l52 53l53 -53v-150l-51 -51h-54v201zM546 123l-52 -53l-53 53v156l50 50h55v-206zM418 105l53 -53l-53 -52h-209l-53 52l53 53h209zM418 700l52 -53l-52 -52h-209l-52 52l53 53h208zM546 370h-54l-51 51v150l53 53
l52 -53v-201z" />
    <glyph glyph-name="p" unicode="p" 
d="M80 676l105 -105v-150l-51 -51h-54v306zM418 700l52 -53l-52 -52h-209l-105 105h314zM410 402l53 -53l-52 -52h-195l-52 52l53 53h193zM546 421l-52 -53l-53 53v150l53 53l52 -53v-150zM80 329h55l50 -50v-156l-105 -105v311z" />
    <glyph glyph-name="q" unicode="q" 
d="M536 -23v-75h-73l-130 130v73h75zM80 329h55l50 -50v-156l-53 -53l-52 53v206zM80 571l52 53l53 -53v-150l-51 -51h-54v201zM546 123l-52 -53l-53 53v156l50 50h55v-206zM298 105v-105h-89l-53 52l53 53h89zM418 700l52 -53l-52 -52h-209l-52 52l53 53h208zM546 370h-54
l-51 51v150l53 53l52 -53v-201z" />
    <glyph glyph-name="r" unicode="r" 
d="M546 18l-105 105v156l53 53l52 -53v-261zM80 676l105 -105v-150l-51 -51h-54v306zM418 700l52 -53l-52 -52h-209l-105 105h314zM410 402l53 -53l-52 -52h-195l-52 52l53 53h193zM546 421l-52 -53l-53 53v150l53 53l52 -53v-150zM80 329h55l50 -50v-156l-105 -105v311z
" />
    <glyph glyph-name="s" unicode="s" 
d="M185 421l-53 -53l-52 53v152l52 51l53 -53v-150zM546 123l-52 -53l-53 53v156l53 53l52 -53v-156zM410 402l53 -53l-52 -52h-195l-52 52l53 53h193zM418 105l53 -53l-53 -52h-314l105 105h209zM523 700l-105 -105h-209l-52 52l53 53h313z" />
    <glyph glyph-name="t" unicode="t" horiz-adv-x="679" 
d="M391 53l-52 -53l-53 53v226l53 53l52 -53v-226zM391 421l-53 -52l-52 52v150l53 53l52 -53v-150zM649 700l-105 -105h-129l-52 52v53h286zM316 700v-53l-52 -52h-129l-105 105h286z" />
    <glyph glyph-name="u" unicode="u" 
d="M80 329h55l50 -50v-156l-53 -53l-52 53v206zM546 123l-52 -53l-53 53v156l50 50h55v-206zM418 105l53 -53l-53 -52h-209l-53 52l53 53h209zM546 370h-54l-51 51v150l105 105v-306zM80 676l105 -105v-150l-51 -51h-54v306z" />
    <glyph glyph-name="v" unicode="v" 
d="M471 329h75v-73l-280 -256h-153zM80 329h55l50 -50v-156l-105 -105v105v206zM546 370h-54l-51 51v150l105 105v-306zM80 676l105 -105v-150l-51 -51h-54v306z" />
    <glyph glyph-name="w" unicode="w" horiz-adv-x="987" 
d="M546 123l-52 -53l-53 53v156l53 53l52 -53v-156zM546 421l-53 -52l-52 52v150l53 53l52 -53v-150zM782 105l53 -53l-53 -52h-209l-53 52l53 53h209zM80 329h55l50 -50v-156l-53 -53l-52 53v206zM418 105l53 -53l-53 -52h-209l-53 52l53 53h209zM907 129l-49 -59l-56 59
v150l51 51h54v-201zM907 370h-54l-51 51v150l105 105v-306zM80 676l105 -105v-150l-51 -51h-54v306z" />
    <glyph glyph-name="x" unicode="x" horiz-adv-x="633" 
d="M56 625v75h73l157 -257v-73h-75zM211 329h75v-73l-157 -256h-73v75zM391 370h-75v73l157 257h73v-75zM546 75v-75h-73l-157 256v73h75z" />
    <glyph glyph-name="y" unicode="y" 
d="M368 53l-52 -53l-53 53v206h105v-206zM80 676l105 -105v-150l-53 -53l-52 53v255zM546 421l-52 -53l-53 53v150l105 105v-255zM410 402l53 -53l-52 -52h-195l-52 52l53 53h193z" />
    <glyph glyph-name="z" unicode="z" horiz-adv-x="587" 
d="M375 700l-64 -105h-147l-105 105h316zM173 0l64 105h200l100 -105h-364zM215 329h75v-73l-157 -256h-73v75zM333 370h-75v73l157 257h73v-75z" />
    <glyph glyph-name="braceleft" unicode="{" horiz-adv-x="462" 
d="M146 402l53 -53l-52 -52h-95l-52 52l53 53h93zM409 -30l53 -53l-53 -52h-110l-52 52l53 53h109zM276 -12l-52 -52l-53 52v291l53 52l52 -52v-291zM276 421l-53 -53l-52 53v150l53 52l52 -52v-150zM409 700l52 -53l-52 -52h-109l-52 52l53 53h108z" />
    <glyph glyph-name="bar" unicode="|" horiz-adv-x="265" 
d="M185 -182l-52 -52l-53 52v893l53 52l52 -52v-893z" />
    <glyph glyph-name="braceright" unicode="}" horiz-adv-x="462" 
d="M409 402l53 -53l-52 -52h-95l-52 52l53 53h93zM162 -30l53 -53l-52 -52h-110l-53 52l53 53h109zM186 279l52 52l53 -52v-291l-53 -52l-52 52v291zM186 571l52 52l53 -52v-150l-52 -53l-53 53v150zM161 700l53 -53l-52 -52h-109l-52 52l52 53h108z" />
    <glyph glyph-name="asciitilde" unicode="~" 
d="M138 285h-75v73l63 63h73v-75zM505 269h-75v73l63 63h73v-75zM400 342v-73h-52l-119 78v74h53z" />
    <glyph glyph-name="uni00A0" unicode="&#xa0;" horiz-adv-x="265" 
 />
    <glyph glyph-name="exclamdown" unicode="&#xa1;" horiz-adv-x="280" 
d="M80 633l60 60l60 -60v-61l-60 -60l-60 60v61zM192 65l-52 -52l-53 52v348l52 53l53 -53v-348z" />
    <glyph glyph-name="cent" unicode="&#xa2;" horiz-adv-x="572" 
d="M376 740h-105v106l53 53l52 -53v-106zM376 -146l-52 -53l-53 53v106h105v-106zM80 329h55l50 -50v-156l-53 -53l-52 53v206zM80 571l52 53l53 -53v-150l-51 -51h-54v201zM523 700l-105 -105h-209l-52 52l52 53h314zM209 0l-52 53l52 52h209l105 -105h-314z" />
    <glyph glyph-name="sterling" unicode="&#xa3;" 
d="M128 390l40 -41l-39 -40h-49l-40 40l41 41h47zM442 390l40 -41l-39 -40h-179l-40 40l41 41h177zM245 145h-105v134l53 52l52 -52v-134zM121 0l-53 53l53 52h357l105 -105h-462zM245 421l-53 -53l-52 53v152l52 51l53 -53v-150zM583 700l-105 -105h-209l-52 52l52 53h314z
" />
    <glyph glyph-name="currency" unicode="&#xa4;" 
d="M533 205v-75h-73l-45 45l75 73zM166 130h-74v74l43 44l74 -75zM209 534l-73 -75l-44 43v74h75zM487 456l-74 75l46 45h74v-74zM139 426l41 44l43 -41v-147l-43 -43l-41 43v144zM381 260l41 -42l-41 -41h-140l-41 41l41 42h140zM399 429l42 41l41 -44v-144l-41 -43l-42 43
v147zM381 531l41 -41l-41 -43h-140l-41 43l41 41h140z" />
    <glyph glyph-name="yen" unicode="&#xa5;" 
d="M504 309l41 -41l-40 -40h-97v81h96zM504 154l40 -40l-39 -39h-97v79h96zM223 309v-81h-97l-40 40l41 41h96zM223 154v-79h-97l-39 39l40 40h96zM368 53l-52 -53l-53 53v256h105v-256zM80 676l105 -105v-100l-53 -53l-52 53v205zM546 471l-52 -53l-53 53v100l105 105v-205
zM410 452l53 -53l-52 -52h-195l-52 52l53 53h193z" />
    <glyph glyph-name="brokenbar" unicode="&#xa6;" horiz-adv-x="265" 
d="M185 -182l-52 -52l-53 52v461l53 52l52 -52v-461zM185 421l-53 -53l-52 53v290l53 52l52 -52v-290z" />
    <glyph glyph-name="section" unicode="&#xa7;" 
d="M185 203l-53 -53l-52 53v112l52 51l53 -53v-110zM546 -55l-52 -53l-53 53v116l53 53l52 -53v-116zM410 184l53 -53l-52 -52h-195l-52 52l53 53h193zM418 -73l53 -53l-53 -52h-314l105 105h209zM185 461l-53 -53l-52 53v112l52 51l53 -53v-110zM546 203l-52 -53l-53 53
v116l53 53l52 -53v-116zM410 442l53 -53l-52 -52h-195l-52 52l53 53h193zM523 700l-105 -105h-209l-52 52l53 53h313z" />
    <glyph glyph-name="dieresis" unicode="&#xa8;" horiz-adv-x="413" 
d="M243 692l60 60l60 -60v-61l-60 -60l-60 60v61zM50 692l60 60l60 -60v-61l-60 -60l-60 60v61z" />
    <glyph glyph-name="copyright" unicode="&#xa9;" horiz-adv-x="796" 
d="M470 125l52 -53l-52 -52h-89l-52 52l53 53h88zM470 545l52 -53l-52 -52h-89l-52 52l53 53h88zM252 264h55l50 -50v-71l-53 -53l-52 53v121zM252 416l52 53l53 -53v-60l-51 -51h-54v111zM588 -30l53 -53l-53 -52h-380l-52 52l53 53h379zM716 -12l-52 -53l-53 53v291l53 53
l52 -53v-291zM185 -12l-52 -52l-53 52v291l53 52l52 -52v-291zM185 421l-53 -53l-52 53v150l53 52l52 -52v-150zM588 700l52 -53l-52 -52h-379l-52 52l53 53h378zM716 421l-52 -53l-53 53v150l53 53l52 -53v-150z" />
    <glyph glyph-name="ordfeminine" unicode="&#xaa;" horiz-adv-x="503" 
d="M80 595l41 44l43 -41v-147l-43 -43l-41 43v144zM312 429v-83h-130l-41 41l41 42h130zM340 598l42 41l41 -44v-249h-83v252zM322 700l41 -41l-41 -43h-140l-41 43l41 41h140z" />
    <glyph glyph-name="guillemotleft" unicode="&#xab;" horiz-adv-x="635" 
d="M386 370h-148l254 254h73v-75zM565 150v-75h-73l-254 254h148zM178 370h-148l254 254h73v-75zM357 150v-75h-73l-254 254h148z" />
    <glyph glyph-name="logicalnot" unicode="&#xac;" 
d="M478 402l53 -53l-52 -52h-145l-52 52l53 53h143zM614 123l-52 -53l-53 53v156l53 53l52 -53v-156zM208 402l53 -53l-52 -52h-145l-52 52l53 53h143z" />
    <glyph glyph-name="uni00AD" unicode="&#xad;" horiz-adv-x="399" 
d="M296 402l53 -53l-52 -52h-195l-52 52l53 53h193z" />
    <glyph glyph-name="registered" unicode="&#xae;" horiz-adv-x="796" 
d="M561 33l-105 105v61l53 53l52 -53v-166zM246 507l105 -105v-61l-51 -51h-54v217zM433 531l52 -53l-52 -52h-58l-105 105h163zM425 322l53 -53l-52 -52h-44l-52 52l53 53h42zM561 341l-52 -53l-53 53v61l53 53l52 -53v-61zM246 249h55l50 -50v-61l-105 -105v216zM588 -30
l53 -53l-53 -52h-380l-52 52l53 53h379zM716 -12l-52 -53l-53 53v291l53 53l52 -53v-291zM185 -12l-52 -52l-53 52v291l53 52l52 -52v-291zM185 421l-53 -53l-52 53v150l53 52l52 -52v-150zM588 700l52 -53l-52 -52h-379l-52 52l53 53h378zM716 421l-52 -53l-53 53v150
l53 53l52 -53v-150z" />
    <glyph glyph-name="macron" unicode="&#xaf;" horiz-adv-x="432" 
d="M341 700l41 -42l-41 -41h-250l-41 41l41 42h250z" />
    <glyph glyph-name="degree" unicode="&#xb0;" horiz-adv-x="453" 
d="M80 595l41 44l43 -41v-77l-43 -43l-41 43v74zM272 499l41 -42l-41 -41h-90l-41 41l41 42h90zM290 598l42 41l41 -44v-74l-41 -43l-42 43v77zM272 700l41 -41l-41 -43h-90l-41 43l41 41h90z" />
    <glyph glyph-name="plusminus" unicode="&#xb1;" 
d="M539 105l53 -53l-52 -52h-455l-52 52l53 53h453zM539 478l53 -53l-52 -52h-145l-52 52l53 53h143zM365 199l-52 -53l-53 53v156l53 53l52 -53v-156zM229 478l53 -53l-52 -52h-145l-52 52l53 53h143zM365 497l-52 -53l-53 53v150l53 53l52 -53v-150z" />
    <glyph glyph-name="uni00B2" unicode="&#xb2;" horiz-adv-x="504" 
d="M314 490l49 -49l-49 -49h-123l-49 49l49 49h123zM424 456h-40l-58 59v70l98 97v-226zM80 426h41l57 -57v-75l-98 -98v230zM407 700l-97 -98h-115l-97 98h309zM98 183l97 98h115l97 -98h-309z" />
    <glyph glyph-name="uni00B3" unicode="&#xb3;" horiz-adv-x="486" 
d="M296 490l49 -49l-49 -49h-123l-49 49l49 49h123zM406 456h-40l-58 59v70l98 97v-226zM406 196l-98 98v75l57 57h41v-230zM389 700l-97 -98h-115l-97 98h309zM80 183l97 98h115l97 -98h-309z" />
    <glyph glyph-name="acute" unicode="&#xb4;" horiz-adv-x="268" 
d="M117 575h-55v73l109 87h53v-75z" />
    <glyph glyph-name="mu" unicode="&#xb5;" 
d="M546 370h-54l-51 51v150l105 105v-306zM80 676l105 -105v-150l-51 -51h-54v306zM80 329h55l50 -50v-291l-105 -105v446zM546 18l-105 105v156l50 50h55v-311zM209 0v105h209l105 -105h-314z" />
    <glyph glyph-name="mu" unicode="&#x3bc;" 
d="M546 370h-54l-51 51v150l105 105v-306zM80 676l105 -105v-150l-51 -51h-54v306zM80 329h55l50 -50v-291l-105 -105v446zM546 18l-105 105v156l50 50h55v-311zM209 0v105h209l105 -105h-314z" />
    <glyph glyph-name="paragraph" unicode="&#xb6;" horiz-adv-x="681" 
d="M80 571l52 53l53 -53v-150l-53 -53l-52 53v150zM546 370h-54l-51 51v150h105v-201zM409 402l53 -53l-52 -52h-195l-52 52l53 53h193zM546 18l-105 105v156l50 50h55v-311zM681 700l-105 -105h-368l-52 52l52 53h473zM219 561h187v-130h-187v130z" />
    <glyph glyph-name="periodcentered" unicode="&#xb7;" horiz-adv-x="280" 
d="M80 379l60 60l60 -60v-61l-60 -60l-60 60v61z" />
    <glyph glyph-name="cedilla" unicode="&#xb8;" horiz-adv-x="205" 
d="M131 -179l32 -33l-32 -32h-72l-32 32l32 33h72zM145 -100l33 32l32 -35v-58l-32 -34l-33 34v61zM131 -20l32 -32l-32 -34h-72l-32 34l32 32h72z" />
    <glyph glyph-name="uni00B9" unicode="&#xb9;" horiz-adv-x="258" 
d="M178 456h-40l-58 59v70l98 97v-226zM178 196l-98 98v75l57 57h41v-230z" />
    <glyph glyph-name="ordmasculine" unicode="&#xba;" horiz-adv-x="503" 
d="M80 595l41 44l43 -41v-147l-43 -43l-41 43v144zM322 429l41 -42l-41 -41h-140l-41 41l41 42h140zM340 598l42 41l41 -44v-144l-41 -43l-42 43v147zM322 700l41 -41l-41 -43h-140l-41 43l41 41h140z" />
    <glyph glyph-name="guillemotright" unicode="&#xbb;" horiz-adv-x="635" 
d="M278 549v75h73l254 -254h-148zM457 329h148l-254 -254h-73v75zM70 549v75h73l254 -254h-148zM249 329h148l-254 -254h-73v75z" />
    <glyph glyph-name="onequarter" unicode="&#xbc;" horiz-adv-x="957" 
d="M359 370v47l173 283h48v-55l-167 -275h-54zM359 329v-49l-170 -280h-45v63l162 266h53zM767 295l49 -49l-49 -49h-123l-49 49l49 49h123zM877 261h-40l-58 59v70l98 97v-226zM533 487l98 -97v-71l-58 -58h-40v226zM877 1l-98 98v75l57 57h41v-230zM178 456h-40l-58 59v70
l98 97v-226zM178 196l-98 98v75l57 57h41v-230z" />
    <glyph glyph-name="onehalf" unicode="&#xbd;" horiz-adv-x="957" 
d="M359 370v47l173 283h48v-55l-167 -275h-54zM359 329v-49l-170 -280h-45v63l162 266h53zM767 295l49 -49l-49 -49h-123l-49 49l49 49h123zM877 261h-40l-58 59v70l98 97v-226zM533 231h41l57 -57v-75l-98 -98v230zM860 505l-97 -98h-115l-97 98h309zM551 -12l97 98h115
l97 -98h-309zM178 456h-40l-58 59v70l98 97v-226zM178 196l-98 98v75l57 57h41v-230z" />
    <glyph glyph-name="threequarters" unicode="&#xbe;" horiz-adv-x="1183" 
d="M585 370v47l173 283h48v-55l-167 -275h-54zM585 329v-49l-170 -280h-45v63l162 266h53zM993 295l49 -49l-49 -49h-123l-49 49l49 49h123zM1103 261h-40l-58 59v70l98 97v-226zM759 487l98 -97v-71l-58 -58h-40v226zM1103 1l-98 98v75l57 57h41v-230zM296 490l49 -49
l-49 -49h-123l-49 49l49 49h123zM406 456h-40l-58 59v70l98 97v-226zM406 196l-98 98v75l57 57h41v-230zM389 700l-97 -98h-115l-97 98h309zM80 183l97 98h115l97 -98h-309z" />
    <glyph glyph-name="questiondown" unicode="&#xbf;" horiz-adv-x="529" 
d="M345 566l-60 -60l-60 60v61l60 60l60 -60v-61zM249 471h68v-70l-102 -103l-69 69zM208 0l-52 53l52 52h209l52 -52l-53 -53h-208zM80 279l52 53l53 -53v-150l-53 -53l-52 53v150z" />
    <glyph glyph-name="Agrave" unicode="&#xc0;" 
d="M202 830v75h53l109 -87v-73h-55zM80 571l52 53l53 -53v-150l-51 -51h-54v201zM546 18l-105 105v156l50 50h55v-311zM546 370h-54l-51 51v150l53 53l52 -53v-201zM418 700l52 -53l-52 -52h-209l-52 52l53 53h208zM410 402l53 -53l-52 -52h-195l-52 52l53 53h193zM80 329
h55l50 -50v-156l-105 -105v311z" />
    <glyph glyph-name="Aacute" unicode="&#xc1;" 
d="M312 745h-55v73l109 87h53v-75zM80 571l52 53l53 -53v-150l-51 -51h-54v201zM546 18l-105 105v156l50 50h55v-311zM546 370h-54l-51 51v150l53 53l52 -53v-201zM418 700l52 -53l-52 -52h-209l-52 52l53 53h208zM410 402l53 -53l-52 -52h-195l-52 52l53 53h193zM80 329h55
l50 -50v-156l-105 -105v311z" />
    <glyph glyph-name="Acircumflex" unicode="&#xc2;" 
d="M332 829v75h53l109 -87v-73h-55zM185 744h-55v73l109 87h53v-75zM80 571l52 53l53 -53v-150l-51 -51h-54v201zM546 18l-105 105v156l50 50h55v-311zM546 370h-54l-51 51v150l53 53l52 -53v-201zM418 700l52 -53l-52 -52h-209l-52 52l53 53h208zM410 402l53 -53l-52 -52
h-195l-52 52l53 53h193zM80 329h55l50 -50v-156l-105 -105v311z" />
    <glyph glyph-name="Atilde" unicode="&#xc3;" 
d="M172 883h55v-73l-69 -67h-53v75zM456 903h55v-73l-69 -67h-53v75zM369 838v-75h-53l-69 47v73h55zM80 571l52 53l53 -53v-150l-51 -51h-54v201zM546 18l-105 105v156l50 50h55v-311zM546 370h-54l-51 51v150l53 53l52 -53v-201zM418 700l52 -53l-52 -52h-209l-52 52
l53 53h208zM410 402l53 -53l-52 -52h-195l-52 52l53 53h193zM80 329h55l50 -50v-156l-105 -105v311z" />
    <glyph glyph-name="Adieresis" unicode="&#xc4;" 
d="M350 861l60 60l60 -60v-61l-60 -60l-60 60v61zM157 861l60 60l60 -60v-61l-60 -60l-60 60v61zM80 571l52 53l53 -53v-150l-51 -51h-54v201zM546 18l-105 105v156l50 50h55v-311zM546 370h-54l-51 51v150l53 53l52 -53v-201zM418 700l52 -53l-52 -52h-209l-52 52l53 53
h208zM410 402l53 -53l-52 -52h-195l-52 52l53 53h193zM80 329h55l50 -50v-156l-105 -105v311z" />
    <glyph glyph-name="Aring" unicode="&#xc5;" 
d="M364 799l33 32l32 -35v-58l-32 -34l-33 34v61zM198 796l32 35l34 -32v-61l-34 -34l-32 34v58zM350 879l32 -32l-32 -34h-72l-32 34l32 32h72zM80 571l52 53l53 -53v-150l-51 -51h-54v201zM546 370h-54l-51 51v150l53 53l52 -53v-201zM410 402l53 -53l-52 -52h-195l-52 52
l53 53h193zM80 329h55l50 -50v-156l-105 -105v311zM546 18l-105 105v156l50 50h55v-311zM350 720l19 -20h49l52 -53l-52 -52h-209l-52 52l53 53h48l20 20h72z" />
    <glyph glyph-name="AE" unicode="&#xc6;" horiz-adv-x="934" 
d="M80 571l52 53l53 -53v-150l-51 -51h-54v201zM546 421l-54 -51l-51 51v150l53 53l52 -53v-150zM418 700l52 -53l-52 -52h-209l-52 52l53 53h208zM410 402l53 -53l-52 -52h-195l-52 52l53 53h193zM80 329h55l50 -50v-156l-105 -105v311zM771 402l53 -53l-52 -52h-195
l-52 52l53 53h193zM441 279l52 52l53 -52v-156l-105 -105v261zM884 700l-105 -105h-209l-105 105h419zM465 0l105 105h209l105 -105h-419z" />
    <glyph glyph-name="Ccedilla" unicode="&#xc7;" horiz-adv-x="572" 
d="M342 -179l32 -33l-32 -32h-72l-32 32l32 33h72zM356 -100l33 32l32 -35v-58l-32 -34l-33 34v61zM342 -20l32 -32l-32 -34h-72l-32 34l32 32h72zM80 329h55l50 -50v-156l-53 -53l-52 53v206zM80 571l52 53l53 -53v-150l-51 -51h-54v201zM523 700l-105 -105h-209l-52 52
l52 53h314zM209 0l-52 53l52 52h209l105 -105h-314z" />
    <glyph glyph-name="Egrave" unicode="&#xc8;" horiz-adv-x="573" 
d="M185 830v75h53l109 -87v-73h-55zM410 402l53 -53l-52 -52h-195l-52 52l53 53h193zM80 676l105 -105v-150l-51 -51h-54v306zM80 329h55l50 -50v-156l-105 -105v311zM523 700l-105 -105h-209l-105 105h419zM104 0l105 105h209l105 -105h-419z" />
    <glyph glyph-name="Eacute" unicode="&#xc9;" horiz-adv-x="573" 
d="M290 745h-55v73l109 87h53v-75zM410 402l53 -53l-52 -52h-195l-52 52l53 53h193zM80 676l105 -105v-150l-51 -51h-54v306zM80 329h55l50 -50v-156l-105 -105v311zM523 700l-105 -105h-209l-105 105h419zM104 0l105 105h209l105 -105h-419z" />
    <glyph glyph-name="Ecircumflex" unicode="&#xca;" horiz-adv-x="573" 
d="M320 830v75h53l109 -87v-73h-55zM173 745h-55v73l109 87h53v-75zM410 402l53 -53l-52 -52h-195l-52 52l53 53h193zM80 676l105 -105v-150l-51 -51h-54v306zM80 329h55l50 -50v-156l-105 -105v311zM523 700l-105 -105h-209l-105 105h419zM104 0l105 105h209l105 -105h-419
z" />
    <glyph glyph-name="Edieresis" unicode="&#xcb;" horiz-adv-x="573" 
d="M326 862l60 60l60 -60v-61l-60 -60l-60 60v61zM133 862l60 60l60 -60v-61l-60 -60l-60 60v61zM410 402l53 -53l-52 -52h-195l-52 52l53 53h193zM80 676l105 -105v-150l-51 -51h-54v306zM80 329h55l50 -50v-156l-105 -105v311zM523 700l-105 -105h-209l-105 105h419z
M104 0l105 105h209l105 -105h-419z" />
    <glyph glyph-name="Igrave" unicode="&#xcc;" horiz-adv-x="265" 
d="M2 830v75h53l109 -87v-73h-55zM185 53l-52 -52l-53 52v226l53 52l52 -52v-226zM185 421l-53 -53l-52 53v220l53 52l52 -52v-220z" />
    <glyph glyph-name="Iacute" unicode="&#xcd;" horiz-adv-x="265" 
d="M158 745h-55v73l109 87h53v-75zM185 53l-52 -52l-53 52v226l53 52l52 -52v-226zM185 421l-53 -53l-52 53v220l53 52l52 -52v-220z" />
    <glyph glyph-name="Icircumflex" unicode="&#xce;" horiz-adv-x="265" 
d="M152 830v75h53l109 -87v-73h-55zM5 745h-55v73l109 87h53v-75zM185 53l-52 -52l-53 52v226l53 52l52 -52v-226zM185 421l-53 -53l-52 53v220l53 52l52 -52v-220z" />
    <glyph glyph-name="Idieresis" unicode="&#xcf;" horiz-adv-x="265" 
d="M169 862l60 60l60 -60v-61l-60 -60l-60 60v61zM-24 862l60 60l60 -60v-61l-60 -60l-60 60v61zM185 53l-52 -52l-53 52v226l53 52l52 -52v-226zM185 421l-53 -53l-52 53v220l53 52l52 -52v-220z" />
    <glyph glyph-name="Eth" unicode="&#xd0;" horiz-adv-x="658" 
d="M317 402l53 -53l-52 -52h-70l-52 52l53 53h68zM112 279l52 53l53 -53v-156l-105 -105v261zM112 676l105 -105v-150l-53 -53l-52 53v255zM80 402l53 -53l-52 -52h-29l-52 52l53 53h27zM578 123l-52 -53l-53 53v156l50 50h55v-206zM136 0l105 105h209l52 -52l-52 -53h-314z
M450 700l52 -53l-52 -52h-209l-105 105h314zM578 370h-54l-51 51v150l53 53l52 -53v-201z" />
    <glyph glyph-name="Ntilde" unicode="&#xd1;" 
d="M177 885h55v-73l-69 -67h-53v75zM461 905h55v-73l-69 -67h-53v75zM374 840v-75h-53l-69 47v73h55zM546 370h-54l-51 51v150l105 105v-306zM80 676l105 -105v-150l-51 -51h-54v306zM80 329h55l50 -50v-156l-105 -105v311zM546 18l-105 105v156l50 50h55v-311zM523 700
l-105 -105h-209l-105 105h419z" />
    <glyph glyph-name="Ograve" unicode="&#xd2;" 
d="M179 830v75h53l109 -87v-73h-55zM80 329h55l50 -50v-156l-53 -53l-52 53v206zM80 571l52 53l53 -53v-150l-51 -51h-54v201zM546 123l-52 -53l-53 53v156l50 50h55v-206zM418 105l53 -53l-53 -52h-209l-53 52l53 53h209zM418 700l52 -53l-52 -52h-209l-52 52l53 53h208z
M546 370h-54l-51 51v150l53 53l52 -53v-201z" />
    <glyph glyph-name="Oacute" unicode="&#xd3;" 
d="M336 745h-55v73l109 87h53v-75zM80 329h55l50 -50v-156l-53 -53l-52 53v206zM80 571l52 53l53 -53v-150l-51 -51h-54v201zM546 123l-52 -53l-53 53v156l50 50h55v-206zM418 105l53 -53l-53 -52h-209l-53 52l53 53h209zM418 700l52 -53l-52 -52h-209l-52 52l53 53h208z
M546 370h-54l-51 51v150l53 53l52 -53v-201z" />
    <glyph glyph-name="Ocircumflex" unicode="&#xd4;" 
d="M333 830v75h53l109 -87v-73h-55zM186 745h-55v73l109 87h53v-75zM80 329h55l50 -50v-156l-53 -53l-52 53v206zM80 571l52 53l53 -53v-150l-51 -51h-54v201zM546 123l-52 -53l-53 53v156l50 50h55v-206zM418 105l53 -53l-53 -52h-209l-53 52l53 53h209zM418 700l52 -53
l-52 -52h-209l-52 52l53 53h208zM546 370h-54l-51 51v150l53 53l52 -53v-201z" />
    <glyph glyph-name="Otilde" unicode="&#xd5;" 
d="M177 883h55v-73l-69 -67h-53v75zM461 903h55v-73l-69 -67h-53v75zM374 838v-75h-53l-69 47v73h55zM80 329h55l50 -50v-156l-53 -53l-52 53v206zM80 571l52 53l53 -53v-150l-51 -51h-54v201zM546 123l-52 -53l-53 53v156l50 50h55v-206zM418 105l53 -53l-53 -52h-209
l-53 52l53 53h209zM418 700l52 -53l-52 -52h-209l-52 52l53 53h208zM546 370h-54l-51 51v150l53 53l52 -53v-201z" />
    <glyph glyph-name="Odieresis" unicode="&#xd6;" 
d="M350 862l60 60l60 -60v-61l-60 -60l-60 60v61zM157 862l60 60l60 -60v-61l-60 -60l-60 60v61zM80 329h55l50 -50v-156l-53 -53l-52 53v206zM80 571l52 53l53 -53v-150l-51 -51h-54v201zM546 123l-52 -53l-53 53v156l50 50h55v-206zM418 105l53 -53l-53 -52h-209l-53 52
l53 53h209zM418 700l52 -53l-52 -52h-209l-52 52l53 53h208zM546 370h-54l-51 51v150l53 53l52 -53v-201z" />
    <glyph glyph-name="multiply" unicode="&#xd7;" 
d="M525 215v-75h-73l-127 123v73h75zM178 140h-74v74l122 122h74v-75zM300 445v-75h-73l-123 122v74h75zM399 370h-74v75l126 121h74v-74z" />
    <glyph glyph-name="Oslash" unicode="&#xd8;" 
d="M80 329h55l50 -50v-156l-105 -105v311zM80 571l52 53l53 -53v-150l-51 -51h-54v201zM546 123l-52 -53l-53 53v156l50 50h55v-206zM418 105l53 -53l-53 -52h-314l105 105h209zM523 700l-105 -105h-209l-52 52l53 53h313zM546 370h-54l-51 51v150l105 105v-306zM341 570h77
v-71l-126 -368h-75v73z" />
    <glyph glyph-name="Ugrave" unicode="&#xd9;" 
d="M197 830v75h53l109 -87v-73h-55zM80 329h55l50 -50v-156l-53 -53l-52 53v206zM546 123l-52 -53l-53 53v156l50 50h55v-206zM418 105l53 -53l-53 -52h-209l-53 52l53 53h209zM546 370h-54l-51 51v150l105 105v-306zM80 676l105 -105v-150l-51 -51h-54v306z" />
    <glyph glyph-name="Uacute" unicode="&#xda;" 
d="M318 744h-55v73l109 87h53v-75zM80 329h55l50 -50v-156l-53 -53l-52 53v206zM546 123l-52 -53l-53 53v156l50 50h55v-206zM418 105l53 -53l-53 -52h-209l-53 52l53 53h209zM546 370h-54l-51 51v150l105 105v-306zM80 676l105 -105v-150l-51 -51h-54v306z" />
    <glyph glyph-name="Ucircumflex" unicode="&#xdb;" 
d="M333 830v75h53l109 -87v-73h-55zM186 745h-55v73l109 87h53v-75zM80 329h55l50 -50v-156l-53 -53l-52 53v206zM546 123l-52 -53l-53 53v156l50 50h55v-206zM418 105l53 -53l-53 -52h-209l-53 52l53 53h209zM546 370h-54l-51 51v150l105 105v-306zM80 676l105 -105v-150
l-51 -51h-54v306z" />
    <glyph glyph-name="Udieresis" unicode="&#xdc;" 
d="M350 862l60 60l60 -60v-61l-60 -60l-60 60v61zM157 862l60 60l60 -60v-61l-60 -60l-60 60v61zM80 329h55l50 -50v-156l-53 -53l-52 53v206zM546 123l-52 -53l-53 53v156l50 50h55v-206zM418 105l53 -53l-53 -52h-209l-53 52l53 53h209zM546 370h-54l-51 51v150l105 105
v-306zM80 676l105 -105v-150l-51 -51h-54v306z" />
    <glyph glyph-name="Yacute" unicode="&#xdd;" 
d="M315 745h-55v73l109 87h53v-75zM368 53l-52 -53l-53 53v206h105v-206zM80 676l105 -105v-150l-53 -53l-52 53v255zM546 421l-52 -53l-53 53v150l105 105v-255zM410 402l53 -53l-52 -52h-195l-52 52l53 53h193z" />
    <glyph glyph-name="Thorn" unicode="&#xde;" 
d="M80 456h55l50 -50v-122l-51 -51h-54v223zM80 676l105 -105v-19l-50 -50h-55v174zM418 531l52 -53l-52 -52h-209l-52 52l53 53h208zM410 265l53 -53l-52 -52h-195l-52 52l53 53h193zM546 284l-52 -53l-53 53v118l53 53l52 -53v-118zM80 192h55l50 -50v-19l-105 -105v174z
" />
    <glyph glyph-name="germandbls" unicode="&#xdf;" 
d="M418 700l52 -53l-52 -52h-209l-52 52l53 53h208zM80 571l52 53l53 -53v-150l-51 -51h-54v201zM418 105l53 -53l-52 -52h-115l-52 52l53 53h113zM546 123l-52 -53l-53 53v156l53 53l52 -53v-156zM410 402l53 -53l-52 -52h-115l-52 52l53 53h113zM546 421l-52 -53l-53 53
v150l53 53l52 -53v-150zM80 329h55l50 -50v-156l-105 -105v311z" />
    <glyph glyph-name="agrave" unicode="&#xe0;" 
d="M202 830v75h53l109 -87v-73h-55zM80 571l52 53l53 -53v-150l-51 -51h-54v201zM546 18l-105 105v156l50 50h55v-311zM546 370h-54l-51 51v150l53 53l52 -53v-201zM418 700l52 -53l-52 -52h-209l-52 52l53 53h208zM410 402l53 -53l-52 -52h-195l-52 52l53 53h193zM80 329
h55l50 -50v-156l-105 -105v311z" />
    <glyph glyph-name="aacute" unicode="&#xe1;" 
d="M312 745h-55v73l109 87h53v-75zM80 571l52 53l53 -53v-150l-51 -51h-54v201zM546 18l-105 105v156l50 50h55v-311zM546 370h-54l-51 51v150l53 53l52 -53v-201zM418 700l52 -53l-52 -52h-209l-52 52l53 53h208zM410 402l53 -53l-52 -52h-195l-52 52l53 53h193zM80 329h55
l50 -50v-156l-105 -105v311z" />
    <glyph glyph-name="acircumflex" unicode="&#xe2;" 
d="M332 829v75h53l109 -87v-73h-55zM185 744h-55v73l109 87h53v-75zM80 571l52 53l53 -53v-150l-51 -51h-54v201zM546 18l-105 105v156l50 50h55v-311zM546 370h-54l-51 51v150l53 53l52 -53v-201zM418 700l52 -53l-52 -52h-209l-52 52l53 53h208zM410 402l53 -53l-52 -52
h-195l-52 52l53 53h193zM80 329h55l50 -50v-156l-105 -105v311z" />
    <glyph glyph-name="atilde" unicode="&#xe3;" 
d="M172 883h55v-73l-69 -67h-53v75zM456 903h55v-73l-69 -67h-53v75zM369 838v-75h-53l-69 47v73h55zM80 571l52 53l53 -53v-150l-51 -51h-54v201zM546 18l-105 105v156l50 50h55v-311zM546 370h-54l-51 51v150l53 53l52 -53v-201zM418 700l52 -53l-52 -52h-209l-52 52
l53 53h208zM410 402l53 -53l-52 -52h-195l-52 52l53 53h193zM80 329h55l50 -50v-156l-105 -105v311z" />
    <glyph glyph-name="adieresis" unicode="&#xe4;" 
d="M350 861l60 60l60 -60v-61l-60 -60l-60 60v61zM157 861l60 60l60 -60v-61l-60 -60l-60 60v61zM80 571l52 53l53 -53v-150l-51 -51h-54v201zM546 18l-105 105v156l50 50h55v-311zM546 370h-54l-51 51v150l53 53l52 -53v-201zM418 700l52 -53l-52 -52h-209l-52 52l53 53
h208zM410 402l53 -53l-52 -52h-195l-52 52l53 53h193zM80 329h55l50 -50v-156l-105 -105v311z" />
    <glyph glyph-name="aring" unicode="&#xe5;" 
d="M364 799l33 32l32 -35v-58l-32 -34l-33 34v61zM198 796l32 35l34 -32v-61l-34 -34l-32 34v58zM350 879l32 -32l-32 -34h-72l-32 34l32 32h72zM80 571l52 53l53 -53v-150l-51 -51h-54v201zM546 370h-54l-51 51v150l53 53l52 -53v-201zM410 402l53 -53l-52 -52h-195l-52 52
l53 53h193zM80 329h55l50 -50v-156l-105 -105v311zM546 18l-105 105v156l50 50h55v-311zM350 720l19 -20h49l52 -53l-52 -52h-209l-52 52l53 53h48l20 20h72z" />
    <glyph glyph-name="ae" unicode="&#xe6;" horiz-adv-x="934" 
d="M80 571l52 53l53 -53v-150l-51 -51h-54v201zM546 421l-54 -51l-51 51v150l53 53l52 -53v-150zM418 700l52 -53l-52 -52h-209l-52 52l53 53h208zM410 402l53 -53l-52 -52h-195l-52 52l53 53h193zM80 329h55l50 -50v-156l-105 -105v311zM771 402l53 -53l-52 -52h-195
l-52 52l53 53h193zM441 279l52 52l53 -52v-156l-105 -105v261zM884 700l-105 -105h-209l-105 105h419zM465 0l105 105h209l105 -105h-419z" />
    <glyph glyph-name="ccedilla" unicode="&#xe7;" horiz-adv-x="572" 
d="M342 -179l32 -33l-32 -32h-72l-32 32l32 33h72zM356 -100l33 32l32 -35v-58l-32 -34l-33 34v61zM342 -20l32 -32l-32 -34h-72l-32 34l32 32h72zM80 329h55l50 -50v-156l-53 -53l-52 53v206zM80 571l52 53l53 -53v-150l-51 -51h-54v201zM523 700l-105 -105h-209l-52 52
l52 53h314zM209 0l-52 53l52 52h209l105 -105h-314z" />
    <glyph glyph-name="egrave" unicode="&#xe8;" horiz-adv-x="573" 
d="M185 830v75h53l109 -87v-73h-55zM410 402l53 -53l-52 -52h-195l-52 52l53 53h193zM80 676l105 -105v-150l-51 -51h-54v306zM80 329h55l50 -50v-156l-105 -105v311zM523 700l-105 -105h-209l-105 105h419zM104 0l105 105h209l105 -105h-419z" />
    <glyph glyph-name="eacute" unicode="&#xe9;" horiz-adv-x="573" 
d="M290 745h-55v73l109 87h53v-75zM410 402l53 -53l-52 -52h-195l-52 52l53 53h193zM80 676l105 -105v-150l-51 -51h-54v306zM80 329h55l50 -50v-156l-105 -105v311zM523 700l-105 -105h-209l-105 105h419zM104 0l105 105h209l105 -105h-419z" />
    <glyph glyph-name="ecircumflex" unicode="&#xea;" horiz-adv-x="573" 
d="M320 830v75h53l109 -87v-73h-55zM173 745h-55v73l109 87h53v-75zM410 402l53 -53l-52 -52h-195l-52 52l53 53h193zM80 676l105 -105v-150l-51 -51h-54v306zM80 329h55l50 -50v-156l-105 -105v311zM523 700l-105 -105h-209l-105 105h419zM104 0l105 105h209l105 -105h-419
z" />
    <glyph glyph-name="edieresis" unicode="&#xeb;" horiz-adv-x="573" 
d="M326 862l60 60l60 -60v-61l-60 -60l-60 60v61zM133 862l60 60l60 -60v-61l-60 -60l-60 60v61zM410 402l53 -53l-52 -52h-195l-52 52l53 53h193zM80 676l105 -105v-150l-51 -51h-54v306zM80 329h55l50 -50v-156l-105 -105v311zM523 700l-105 -105h-209l-105 105h419z
M104 0l105 105h209l105 -105h-419z" />
    <glyph glyph-name="igrave" unicode="&#xec;" horiz-adv-x="265" 
d="M2 830v75h53l109 -87v-73h-55zM185 53l-52 -52l-53 52v226l53 52l52 -52v-226zM185 421l-53 -53l-52 53v220l53 52l52 -52v-220z" />
    <glyph glyph-name="iacute" unicode="&#xed;" horiz-adv-x="265" 
d="M158 745h-55v73l109 87h53v-75zM185 53l-52 -52l-53 52v226l53 52l52 -52v-226zM185 421l-53 -53l-52 53v220l53 52l52 -52v-220z" />
    <glyph glyph-name="icircumflex" unicode="&#xee;" horiz-adv-x="265" 
d="M152 830v75h53l109 -87v-73h-55zM5 745h-55v73l109 87h53v-75zM185 53l-52 -52l-53 52v226l53 52l52 -52v-226zM185 421l-53 -53l-52 53v220l53 52l52 -52v-220z" />
    <glyph glyph-name="idieresis" unicode="&#xef;" horiz-adv-x="265" 
d="M169 862l60 60l60 -60v-61l-60 -60l-60 60v61zM-24 862l60 60l60 -60v-61l-60 -60l-60 60v61zM185 53l-52 -52l-53 52v226l53 52l52 -52v-226zM185 421l-53 -53l-52 53v220l53 52l52 -52v-220z" />
    <glyph glyph-name="eth" unicode="&#xf0;" 
d="M328 700l-105 -105h-14l-105 105h224zM427 752h75v-73l-138 -138h-73v75zM546 123l-52 -53l-53 53v156l50 50h55v-206zM546 370h-54l-51 51v150l53 53l52 -53v-201zM417 105l53 -53l-53 -52h-209l-53 52l53 53h209zM409 402l53 -53l-52 -52h-195l-52 52l53 53h193z
M80 279l52 53l53 -53v-156l-53 -53l-52 53v156z" />
    <glyph glyph-name="ntilde" unicode="&#xf1;" 
d="M177 885h55v-73l-69 -67h-53v75zM461 905h55v-73l-69 -67h-53v75zM374 840v-75h-53l-69 47v73h55zM546 370h-54l-51 51v150l105 105v-306zM80 676l105 -105v-150l-51 -51h-54v306zM80 329h55l50 -50v-156l-105 -105v311zM546 18l-105 105v156l50 50h55v-311zM523 700
l-105 -105h-209l-105 105h419z" />
    <glyph glyph-name="ograve" unicode="&#xf2;" 
d="M179 830v75h53l109 -87v-73h-55zM80 329h55l50 -50v-156l-53 -53l-52 53v206zM80 571l52 53l53 -53v-150l-51 -51h-54v201zM546 123l-52 -53l-53 53v156l50 50h55v-206zM418 105l53 -53l-53 -52h-209l-53 52l53 53h209zM418 700l52 -53l-52 -52h-209l-52 52l53 53h208z
M546 370h-54l-51 51v150l53 53l52 -53v-201z" />
    <glyph glyph-name="oacute" unicode="&#xf3;" 
d="M336 745h-55v73l109 87h53v-75zM80 329h55l50 -50v-156l-53 -53l-52 53v206zM80 571l52 53l53 -53v-150l-51 -51h-54v201zM546 123l-52 -53l-53 53v156l50 50h55v-206zM418 105l53 -53l-53 -52h-209l-53 52l53 53h209zM418 700l52 -53l-52 -52h-209l-52 52l53 53h208z
M546 370h-54l-51 51v150l53 53l52 -53v-201z" />
    <glyph glyph-name="ocircumflex" unicode="&#xf4;" 
d="M333 830v75h53l109 -87v-73h-55zM186 745h-55v73l109 87h53v-75zM80 329h55l50 -50v-156l-53 -53l-52 53v206zM80 571l52 53l53 -53v-150l-51 -51h-54v201zM546 123l-52 -53l-53 53v156l50 50h55v-206zM418 105l53 -53l-53 -52h-209l-53 52l53 53h209zM418 700l52 -53
l-52 -52h-209l-52 52l53 53h208zM546 370h-54l-51 51v150l53 53l52 -53v-201z" />
    <glyph glyph-name="otilde" unicode="&#xf5;" 
d="M177 883h55v-73l-69 -67h-53v75zM461 903h55v-73l-69 -67h-53v75zM374 838v-75h-53l-69 47v73h55zM80 329h55l50 -50v-156l-53 -53l-52 53v206zM80 571l52 53l53 -53v-150l-51 -51h-54v201zM546 123l-52 -53l-53 53v156l50 50h55v-206zM418 105l53 -53l-53 -52h-209
l-53 52l53 53h209zM418 700l52 -53l-52 -52h-209l-52 52l53 53h208zM546 370h-54l-51 51v150l53 53l52 -53v-201z" />
    <glyph glyph-name="odieresis" unicode="&#xf6;" 
d="M350 862l60 60l60 -60v-61l-60 -60l-60 60v61zM157 862l60 60l60 -60v-61l-60 -60l-60 60v61zM80 329h55l50 -50v-156l-53 -53l-52 53v206zM80 571l52 53l53 -53v-150l-51 -51h-54v201zM546 123l-52 -53l-53 53v156l50 50h55v-206zM418 105l53 -53l-53 -52h-209l-53 52
l53 53h209zM418 700l52 -53l-52 -52h-209l-52 52l53 53h208zM546 370h-54l-51 51v150l53 53l52 -53v-201z" />
    <glyph glyph-name="divide" unicode="&#xf7;" 
d="M365 501l-52 -53l-53 53v70l53 53l52 -53v-70zM365 123l-52 -53l-53 53v76l53 53l52 -53v-76zM539 402l53 -53l-52 -52h-455l-52 52l53 53h453z" />
    <glyph glyph-name="oslash" unicode="&#xf8;" 
d="M80 329h55l50 -50v-156l-105 -105v311zM80 571l52 53l53 -53v-150l-51 -51h-54v201zM546 123l-52 -53l-53 53v156l50 50h55v-206zM418 105l53 -53l-53 -52h-314l105 105h209zM523 700l-105 -105h-209l-52 52l53 53h313zM546 370h-54l-51 51v150l105 105v-306zM341 570h77
v-71l-126 -368h-75v73z" />
    <glyph glyph-name="ugrave" unicode="&#xf9;" 
d="M197 830v75h53l109 -87v-73h-55zM80 329h55l50 -50v-156l-53 -53l-52 53v206zM546 123l-52 -53l-53 53v156l50 50h55v-206zM418 105l53 -53l-53 -52h-209l-53 52l53 53h209zM546 370h-54l-51 51v150l105 105v-306zM80 676l105 -105v-150l-51 -51h-54v306z" />
    <glyph glyph-name="uacute" unicode="&#xfa;" 
d="M318 744h-55v73l109 87h53v-75zM80 329h55l50 -50v-156l-53 -53l-52 53v206zM546 123l-52 -53l-53 53v156l50 50h55v-206zM418 105l53 -53l-53 -52h-209l-53 52l53 53h209zM546 370h-54l-51 51v150l105 105v-306zM80 676l105 -105v-150l-51 -51h-54v306z" />
    <glyph glyph-name="ucircumflex" unicode="&#xfb;" 
d="M333 830v75h53l109 -87v-73h-55zM186 745h-55v73l109 87h53v-75zM80 329h55l50 -50v-156l-53 -53l-52 53v206zM546 123l-52 -53l-53 53v156l50 50h55v-206zM418 105l53 -53l-53 -52h-209l-53 52l53 53h209zM546 370h-54l-51 51v150l105 105v-306zM80 676l105 -105v-150
l-51 -51h-54v306z" />
    <glyph glyph-name="udieresis" unicode="&#xfc;" 
d="M350 862l60 60l60 -60v-61l-60 -60l-60 60v61zM157 862l60 60l60 -60v-61l-60 -60l-60 60v61zM80 329h55l50 -50v-156l-53 -53l-52 53v206zM546 123l-52 -53l-53 53v156l50 50h55v-206zM418 105l53 -53l-53 -52h-209l-53 52l53 53h209zM546 370h-54l-51 51v150l105 105
v-306zM80 676l105 -105v-150l-51 -51h-54v306z" />
    <glyph glyph-name="yacute" unicode="&#xfd;" 
d="M315 745h-55v73l109 87h53v-75zM368 53l-52 -53l-53 53v206h105v-206zM80 676l105 -105v-150l-53 -53l-52 53v255zM546 421l-52 -53l-53 53v150l105 105v-255zM410 402l53 -53l-52 -52h-195l-52 52l53 53h193z" />
    <glyph glyph-name="thorn" unicode="&#xfe;" 
d="M80 327h55l50 -50v-122l-51 -51h-54v223zM80 676l105 -105v-148l-50 -50h-55v303zM418 402l52 -53l-52 -52h-209l-52 52l53 53h208zM410 136l53 -53l-52 -52h-195l-52 52l53 53h193zM546 155l-52 -53l-53 53v118l53 53l52 -53v-118zM80 63h55l50 -50v-25l-105 -105v180z
" />
    <glyph glyph-name="ydieresis" unicode="&#xff;" 
d="M350 862l60 60l60 -60v-61l-60 -60l-60 60v61zM157 862l60 60l60 -60v-61l-60 -60l-60 60v61zM368 53l-52 -53l-53 53v206h105v-206zM80 676l105 -105v-150l-53 -53l-52 53v255zM546 421l-52 -53l-53 53v150l105 105v-255zM410 402l53 -53l-52 -52h-195l-52 52l53 53h193
z" />
    <glyph glyph-name="OE" unicode="&#x152;" horiz-adv-x="934" 
d="M80 329h55l50 -50v-156l-53 -53l-52 53v206zM80 571l52 53l53 -53v-150l-51 -51h-54v201zM418 105l53 -53l-53 -52h-209l-53 52l53 53h209zM418 700l52 -53l-52 -52h-209l-52 52l53 53h208zM546 421l-54 -51l-51 51v150l53 53l52 -53v-150zM771 402l53 -53l-52 -52h-195
l-52 52l53 53h193zM441 279l52 52l53 -52v-156l-53 -52l-52 52v156zM884 700l-105 -105h-209l-105 105h419zM465 0l105 105h209l105 -105h-419z" />
    <glyph glyph-name="oe" unicode="&#x153;" horiz-adv-x="934" 
d="M80 329h55l50 -50v-156l-53 -53l-52 53v206zM80 571l52 53l53 -53v-150l-51 -51h-54v201zM418 105l53 -53l-53 -52h-209l-53 52l53 53h209zM418 700l52 -53l-52 -52h-209l-52 52l53 53h208zM546 421l-54 -51l-51 51v150l53 53l52 -53v-150zM771 402l53 -53l-52 -52h-195
l-52 52l53 53h193zM441 279l52 52l53 -52v-156l-53 -52l-52 52v156zM884 700l-105 -105h-209l-105 105h419zM465 0l105 105h209l105 -105h-419z" />
    <glyph glyph-name="Scaron" unicode="&#x160;" 
d="M440 905h55v-73l-109 -87h-53v75zM293 820v-75h-53l-109 87v73h55zM185 421l-53 -53l-52 53v152l52 51l53 -53v-150zM546 123l-52 -53l-53 53v156l53 53l52 -53v-156zM410 402l53 -53l-52 -52h-195l-52 52l53 53h193zM418 105l53 -53l-53 -52h-314l105 105h209zM523 700
l-105 -105h-209l-52 52l53 53h313z" />
    <glyph glyph-name="scaron" unicode="&#x161;" 
d="M440 905h55v-73l-109 -87h-53v75zM293 820v-75h-53l-109 87v73h55zM185 421l-53 -53l-52 53v152l52 51l53 -53v-150zM546 123l-52 -53l-53 53v156l53 53l52 -53v-156zM410 402l53 -53l-52 -52h-195l-52 52l53 53h193zM418 105l53 -53l-53 -52h-314l105 105h209zM523 700
l-105 -105h-209l-52 52l53 53h313z" />
    <glyph glyph-name="Ydieresis" unicode="&#x178;" 
d="M350 862l60 60l60 -60v-61l-60 -60l-60 60v61zM157 862l60 60l60 -60v-61l-60 -60l-60 60v61zM368 53l-52 -53l-53 53v206h105v-206zM80 676l105 -105v-150l-53 -53l-52 53v255zM546 421l-52 -53l-53 53v150l105 105v-255zM410 402l53 -53l-52 -52h-195l-52 52l53 53h193
z" />
    <glyph glyph-name="Zcaron" unicode="&#x17d;" horiz-adv-x="587" 
d="M420 905h55v-73l-109 -87h-53v75zM273 820v-75h-53l-109 87v73h55zM375 700l-64 -105h-147l-105 105h316zM173 0l64 105h200l100 -105h-364zM215 329h75v-73l-157 -256h-73v75zM333 370h-75v73l157 257h73v-75z" />
    <glyph glyph-name="zcaron" unicode="&#x17e;" horiz-adv-x="587" 
d="M420 905h55v-73l-109 -87h-53v75zM273 820v-75h-53l-109 87v73h55zM375 700l-64 -105h-147l-105 105h316zM173 0l64 105h200l100 -105h-364zM215 329h75v-73l-157 -256h-73v75zM333 370h-75v73l157 257h73v-75z" />
    <glyph glyph-name="florin" unicode="&#x192;" 
d="M205 402l53 -53l-52 -52h-95l-52 52l53 53h93zM206 -30l53 -53l-52 -52h-110l-53 52l53 53h109zM230 279l53 52l52 -52v-291l-53 -52l-52 52v291zM335 421l-53 -53l-52 53v150l53 52l52 -52v-150zM518 700l52 -53l-52 -52h-159l-52 52l53 53h158zM510 402l53 -53l-52 -52
h-145l-52 52l53 53h143z" />
    <glyph glyph-name="circumflex" unicode="&#x2c6;" horiz-adv-x="464" 
d="M252 660v75h53l109 -87v-73h-55zM105 575h-55v73l109 87h53v-75z" />
    <glyph glyph-name="tilde" unicode="&#x2dc;" horiz-adv-x="506" 
d="M117 715h55v-73l-69 -67h-53v75zM401 735h55v-73l-69 -67h-53v75zM314 670v-75h-53l-69 47v73h55z" />
    <glyph glyph-name="endash" unicode="&#x2013;" horiz-adv-x="602" 
d="M499 402l53 -53l-52 -52h-398l-52 52l53 53h396z" />
    <glyph glyph-name="emdash" unicode="&#x2014;" horiz-adv-x="1102" 
d="M999 402l53 -53l-52 -52h-898l-52 52l53 53h896z" />
    <glyph glyph-name="quoteleft" unicode="&#x2018;" horiz-adv-x="260" 
d="M114 679l64 43l32 -73l-54 -171l-64 -42l-32 73z" />
    <glyph glyph-name="quoteright" unicode="&#x2019;" horiz-adv-x="280" 
d="M156 479l-59 -43l-27 73l54 171l59 42h47z" />
    <glyph glyph-name="quotesinglbase" unicode="&#x201a;" horiz-adv-x="290" 
d="M166 -59l-64 -43l-32 73l54 171l64 42h52z" />
    <glyph glyph-name="quotedblleft" unicode="&#x201c;" horiz-adv-x="448" 
d="M312 679l59 43l27 -73l-54 -171l-59 -42h-47zM144 679l59 43l27 -73l-54 -171l-59 -42h-47z" />
    <glyph glyph-name="quotedblright" unicode="&#x201d;" horiz-adv-x="448" 
d="M156 479l-59 -43l-27 73l54 171l59 42h47zM324 479l-59 -43l-27 73l54 171l59 42h47z" />
    <glyph glyph-name="quotedblbase" unicode="&#x201e;" horiz-adv-x="451" 
d="M327 -89l-64 -43l-32 73l54 201l64 42h52zM166 -89l-64 -43l-32 73l54 201l64 42h52z" />
    <glyph glyph-name="dagger" unicode="&#x2020;" 
d="M353 546l-40 -40l-39 40v114l40 40l39 -40v-114zM493 523l40 -41l-39 -40h-128l-40 40l41 41h126zM260 523l41 -41l-40 -40h-128l-39 40l40 41h126zM353 159l-40 -40l-39 40v260l40 41l39 -41v-260z" />
    <glyph glyph-name="daggerdbl" unicode="&#x2021;" 
d="M352 159l-40 -40l-39 40v83l40 41l39 -41v-83zM352 366l-40 -40l-39 40v83l40 41l39 -41v-83zM492 343l40 -41l-39 -40h-128l-40 40l41 41h126zM259 343l41 -41l-40 -40h-128l-39 40l40 41h126zM352 576l-40 -40l-39 40v84l40 40l39 -40v-84zM492 553l40 -41l-39 -40
h-128l-40 40l41 41h126zM259 553l41 -41l-40 -40h-128l-39 40l40 41h126z" />
    <glyph glyph-name="bullet" unicode="&#x2022;" horiz-adv-x="453" 
d="M187 383h81v-67h-81v67zM290 388l42 41l41 -44v-74l-41 -43l-42 43v77zM80 385l41 44l43 -41v-77l-43 -43l-41 43v74zM272 293l41 -42l-41 -41h-90l-41 41l41 42h90zM272 490l41 -41l-41 -43h-90l-41 43l41 41h90z" />
    <glyph glyph-name="ellipsis" unicode="&#x2026;" horiz-adv-x="840" 
d="M640 134l60 60l60 -60v-61l-60 -60l-60 60v61zM360 134l60 60l60 -60v-61l-60 -60l-60 60v61zM80 134l60 60l60 -60v-61l-60 -60l-60 60v61z" />
    <glyph glyph-name="perthousand" unicode="&#x2030;" horiz-adv-x="1210" 
d="M841 234l41 44l43 -41v-147l-43 -43l-41 43v144zM1083 68l41 -42l-41 -41h-140l-41 41l41 42h140zM1101 237l42 41l41 -44v-144l-41 -43l-42 43v147zM1083 339l41 -41l-41 -43h-140l-41 43l41 41h140zM452 234l41 44l43 -41v-147l-43 -43l-41 43v144zM694 68l41 -42
l-41 -41h-140l-41 41l41 42h140zM712 237l42 41l41 -44v-144l-41 -43l-42 43v147zM694 339l41 -41l-41 -43h-140l-41 43l41 41h140zM402 370v47l173 283h48v-55l-167 -275h-54zM402 329v-49l-170 -280h-45v63l162 266h53zM23 595l41 44l43 -41v-147l-43 -43l-41 43v144z
M265 429l41 -42l-41 -41h-140l-41 41l41 42h140zM283 598l42 41l41 -44v-144l-41 -43l-42 43v147zM265 700l41 -41l-41 -43h-140l-41 43l41 41h140z" />
    <glyph glyph-name="guilsinglleft" unicode="&#x2039;" horiz-adv-x="427" 
d="M178 370h-148l254 254h73v-75zM357 150v-75h-73l-254 254h148z" />
    <glyph glyph-name="guilsinglright" unicode="&#x203a;" horiz-adv-x="427" 
d="M70 549v75h73l254 -254h-148zM249 329h148l-254 -254h-73v75z" />
    <glyph glyph-name="Euro" unicode="&#x20ac;" 
d="M153 469v-81h-57l-40 40l41 41h56zM152 300v-79h-57l-39 39l40 40h56zM481 469l40 -41l-39 -40h-163v81h162zM480 300l41 -40l-40 -39h-163v79h162zM180 329h55l50 -50v-156l-53 -53l-52 53v206zM180 571l52 53l53 -53v-150l-51 -51h-54v201zM518 105l53 -53l-53 -52
h-209l-53 52l53 53h209zM518 700l52 -53l-52 -52h-209l-52 52l53 53h208z" />
    <glyph glyph-name="trademark" unicode="&#x2122;" horiz-adv-x="838" 
d="M628 387l-36 -27l-37 27v93l37 26l36 -26v-93zM628 551l-37 -26l-36 26v75l37 26l36 -26v-75zM787 700l-63 -62h-84l-36 26v36h183zM580 700v-36l-36 -26h-95l-62 62h193zM798 525h-37l-25 26v75l62 62v-163zM798 349l-62 53v78l25 25h37v-156zM375 688l62 -62v-75
l-25 -26h-37v163zM375 505h37l25 -25v-78l-62 -53v156zM200 366l-36 -26l-36 26v113l36 27l36 -27v-113zM200 550l-36 -26l-36 26v75l36 27l36 -27v-75zM329 700l-52 -63h-65l-36 26v37h153zM153 700v-37l-36 -26h-65l-52 63h153z" />
  </font>
</defs>
</svg>
