<?xml version="1.0" encoding="iso-8859-1"?>
<!-- Generator: Adobe Illustrator 19.1.0, SVG Export Plug-In . SVG Version: 6.00 Build 0)  -->
<svg version="1.1" id="Capa_1" xmlns="http://www.w3.org/2000/svg" xmlns:xlink="http://www.w3.org/1999/xlink" x="0px" y="0px"
	 viewBox="0 0 63.5 63.5" style="enable-background:new 0 0 63.5 63.5;" xml:space="preserve">
<g>
	<g id="group-6svg">
		<path id="path-1_36_" style="fill:#E56A77;" d="M63.5,40.629c0,7.119-5.767,12.891-12.881,12.891
			c-7.115,0-12.882-5.772-12.882-12.891c0-7.12,5.767-12.891,12.882-12.891C57.733,27.739,63.5,33.509,63.5,40.629z"/>
		<path id="path-2_36_" style="fill:#E56A77;" d="M29.264,40.629c0,7.119-5.767,12.891-12.882,12.891
			C9.268,53.52,3.5,47.748,3.5,40.629c0-7.12,5.768-12.891,12.882-12.891C23.497,27.739,29.264,33.509,29.264,40.629z"/>
		<path id="path-3_34_" style="fill:#53ECF4;" d="M54.908,40.629c0,2.371-1.92,4.293-4.289,4.293c-2.37,0-4.29-1.922-4.29-4.293
			c0-2.371,1.92-4.293,4.29-4.293C52.988,36.336,54.908,38.258,54.908,40.629z"/>
		<path id="path-4_34_" style="fill:#53ECF4;" d="M20.672,40.629c0,2.371-1.921,4.293-4.29,4.293S12.093,43,12.093,40.629
			c0-2.371,1.92-4.293,4.289-4.293S20.672,38.258,20.672,40.629z"/>
		<path id="path-5_34_" d="M48.619,45.422c-3.193,0-5.79-2.599-5.79-5.794c0-3.194,2.597-5.793,5.79-5.793
			c3.192,0,5.79,2.599,5.79,5.793C54.409,42.823,51.811,45.422,48.619,45.422z M48.619,36.837c-1.539,0-2.79,1.252-2.79,2.791
			c0,1.539,1.251,2.792,2.79,2.792c1.538,0,2.79-1.253,2.79-2.792C51.409,38.09,50.157,36.837,48.619,36.837z"/>
		<path id="path-6_32_" d="M48.619,54.02c-7.931,0-14.382-6.456-14.382-14.392s6.451-14.392,14.382-14.392
			c7.93,0,14.381,6.456,14.381,14.392S56.549,54.02,48.619,54.02z M48.619,28.239c-6.276,0-11.382,5.11-11.382,11.39
			c0,6.281,5.106,11.39,11.382,11.39c6.275,0,11.381-5.109,11.381-11.39C60,33.348,54.894,28.239,48.619,28.239z"/>
		<path id="path-7_31_" d="M14.382,45.422c-3.192,0-5.789-2.599-5.789-5.794c0-3.194,2.597-5.793,5.789-5.793
			c3.193,0,5.79,2.599,5.79,5.793C20.172,42.823,17.575,45.422,14.382,45.422z M14.382,36.837c-1.538,0-2.789,1.252-2.789,2.791
			c0,1.539,1.251,2.792,2.789,2.792c1.539,0,2.79-1.253,2.79-2.792C17.172,38.09,15.921,36.837,14.382,36.837z"/>
		<path id="path-8_29_" d="M14.382,54.02C6.452,54.02,0,47.564,0,39.628s6.452-14.392,14.382-14.392s14.382,6.456,14.382,14.392
			S22.312,54.02,14.382,54.02z M14.382,28.239C8.106,28.239,3,33.348,3,39.628c0,6.281,5.106,11.39,11.382,11.39
			s11.382-5.109,11.382-11.39C25.764,33.348,20.658,28.239,14.382,28.239z"/>
		<path id="path-9_24_" d="M44.558,39c-0.785,0-1.445-0.611-1.496-1.405l-0.984-15.449l-4.325-10.599
			c-0.189-0.462-0.135-0.989,0.143-1.404c0.279-0.415,0.746-0.664,1.246-0.664h6.225c0.583,0,1.114,0.339,1.36,0.868l1.69,3.638
			c0.349,0.751,0.023,1.644-0.728,1.994c-0.75,0.349-1.643,0.023-1.993-0.729l-1.286-2.769h-3.036l3.574,8.757
			c0.062,0.151,0.098,0.31,0.109,0.472l1,15.693c0.052,0.828-0.575,1.541-1.402,1.594C44.622,39,44.59,39,44.558,39z"/>
		<path id="path-10_20_" d="M13.893,36.24c-0.334,0-0.67-0.111-0.949-0.339c-0.641-0.526-0.736-1.471-0.211-2.113l10.431-12.751
			c0.285-0.348,0.711-0.55,1.161-0.55h18.734c0.829,0,1.5,0.672,1.5,1.501c0,0.829-0.671,1.501-1.5,1.501H25.035l-9.98,12.2
			C14.758,36.052,14.328,36.24,13.893,36.24z"/>
		<path id="path-11_19_" d="M35.059,39.5h-7c-0.828,0-1.5-0.672-1.5-1.501c0-0.829,0.672-1.501,1.5-1.501h7
			c0.829,0,1.5,0.672,1.5,1.501C36.559,38.828,35.888,39.5,35.059,39.5z"/>
		<path id="path-12_16_" d="M32.105,44.368c-0.673,0-1.284-0.455-1.454-1.137l-1.038-4.153c-0.201-0.804,0.288-1.619,1.092-1.82
			c0.803-0.202,1.618,0.288,1.818,1.092l1.038,4.153c0.201,0.804-0.288,1.619-1.091,1.82C32.348,44.354,32.225,44.368,32.105,44.368
			z"/>
		<path id="path-13_14_" d="M24.582,23.345c-0.704,0-1.332-0.499-1.471-1.216l-0.662-3.412c-0.158-0.813,0.374-1.601,1.187-1.759
			c0.812-0.158,1.6,0.374,1.758,1.188l0.662,3.411c0.158,0.814-0.374,1.602-1.187,1.76C24.773,23.337,24.677,23.345,24.582,23.345z"
			/>
		<path id="path-14_11_" d="M26.059,15.984c0,1.381-1.119,2.501-2.5,2.501h-6c-1.38,0-2.5-1.12-2.5-2.501l0,0
			c0-1.382,1.12-2.502,2.5-2.502h6C24.94,13.483,26.059,14.602,26.059,15.984L26.059,15.984z"/>
	</g>
</g>
<g>
</g>
<g>
</g>
<g>
</g>
<g>
</g>
<g>
</g>
<g>
</g>
<g>
</g>
<g>
</g>
<g>
</g>
<g>
</g>
<g>
</g>
<g>
</g>
<g>
</g>
<g>
</g>
<g>
</g>
</svg>
