<?xml version="1.0" encoding="iso-8859-1"?>
<!-- Generator: Adobe Illustrator 19.1.0, SVG Export Plug-In . SVG Version: 6.00 Build 0)  -->
<svg version="1.1" id="Capa_1" xmlns="http://www.w3.org/2000/svg" xmlns:xlink="http://www.w3.org/1999/xlink" x="0px" y="0px"
	 viewBox="0 0 63.722 63.722" style="enable-background:new 0 0 63.722 63.722;" xml:space="preserve">
<g>
	<g id="group-2svg">
		<path id="path-1_10_" style="fill:#FF917B;" d="M28.629,53.88c-3.803,0-7.268-3.085-7.268-6.891V24.593
			c0-3.806,3.847-7.905,7.65-7.905h12.051c3.803,0,7.299,4.099,7.299,7.905v22.396c0,3.806-3.481,6.891-7.284,6.891l0,0"/>
		<path id="path-2_10_" d="M38.452,54.38c-0.828,0-1.5-0.672-1.5-1.501c0-0.829,0.672-1.501,1.5-1.501
			c3.093,0,5.909-2.569,5.909-5.39V23.592c0-3.097-3.474-6.904-6.299-6.904H26.011c-2.91,0-5.65,3.889-5.65,6.904v22.396
			c0,2.922,2.527,5.39,5.518,5.39c0.829,0,1.5,0.672,1.5,1.501c0,0.829-0.671,1.501-1.5,1.501c-4.697,0-8.518-3.765-8.518-8.392
			V23.592c0-4.487,3.858-9.906,8.65-9.906h12.051c4.519,0,9.299,5.092,9.299,9.906v22.396C47.361,50.458,43.198,54.38,38.452,54.38z
			"/>
		<path id="path-3_10_" style="fill:#EDC951;" d="M31.508,44.91c-2.142,0-4.147-1.739-4.147-3.884V28.408
			c0-2.144,2.272-3.714,4.415-3.714h6.79c2.143,0,2.795,1.57,2.795,3.714v12.618c0,2.145-1.329,3.884-3.471,3.884l0,0"/>
		<path id="path-4_10_" d="M35.265,45.41c-0.829,0-1.5-0.672-1.5-1.501s0.671-1.501,1.5-1.501c1.44,0,2.096-1.235,2.096-2.382
			V27.407c0-1.091-0.478-2.713-1.795-2.713h-6.79c-1.241,0-2.415,1.318-2.415,2.713v12.619c0,1.313,1.076,2.382,2.397,2.382
			c0.829,0,1.5,0.672,1.5,1.501s-0.671,1.501-1.5,1.501c-2.976,0-5.397-2.415-5.397-5.384V27.407c0-3.044,2.53-5.715,5.415-5.715
			h6.79c2.778,0,4.795,2.404,4.795,5.715v12.619C40.361,43.095,38.17,45.41,35.265,45.41z"/>
		<path id="path-5_10_" style="fill:#81BDA4;" d="M39.361,53.864c0-2.293-1.858-4.152-4.149-4.152H33.51
			c-2.291,0-4.149,1.859-4.149,4.152v5.705c0,2.294,1.858,4.153,4.149,4.153h1.702c2.291,0,4.149-1.859,4.149-4.153V53.864z"/>
		<path id="path-6_9_" d="M32.712,62.721H31.01c-3.115,0-5.649-2.536-5.649-5.653v-5.706c0-3.117,2.534-5.653,5.649-5.653h1.702
			c3.115,0,5.649,2.536,5.649,5.653v5.706C38.361,60.185,35.827,62.721,32.712,62.721z M31.01,48.711
			c-1.461,0-2.649,1.189-2.649,2.651v5.706c0,1.462,1.188,2.651,2.649,2.651h1.702c1.461,0,2.649-1.189,2.649-2.651v-5.706
			c0-1.462-1.188-2.651-2.649-2.651H31.01z"/>
		<path id="path-7_9_" style="fill:#81BDA4;" d="M40.59,5.794l0.134,0.482c-1.18-2.242-3.455-3.774-6.164-3.774
			c-3.071,0-5.639,1.969-6.605,4.711l-0.853-1.419L15.361,8.63v6.057H28.85l-0.58-1.944c1.054,2.568,3.418,4.063,6.363,4.063
			c2.588,0,4.845-1.107,6.07-3.188l-0.018,1.069h11.676V8.63L40.59,5.794z"/>
		<path id="path-8_8_" d="M31.633,17.11c-4.713,0-8.548-3.838-8.548-8.555S26.92,0,31.633,0s8.548,3.838,8.548,8.555
			S36.346,17.11,31.633,17.11z M31.633,3.003c-3.06,0-5.548,2.491-5.548,5.552c0,3.062,2.488,5.553,5.548,5.553
			s5.548-2.491,5.548-5.553C37.181,5.494,34.693,3.003,31.633,3.003z"/>
		<path id="path-9_6_" d="M33.84,8.555c0,1.22-0.988,2.209-2.207,2.209c-1.219,0-2.207-0.989-2.207-2.209s0.988-2.208,2.207-2.208
			C32.852,6.347,33.84,7.335,33.84,8.555z"/>
		<path id="path-10_6_" d="M31.633,17.181c-2.377,0-4.514-0.912-6.044-2.494H12.861c-0.829,0-1.5-0.672-1.5-1.501V7.629
			c0-0.691,0.471-1.293,1.141-1.458l11.507-2.836c0.283-0.069,0.569-0.053,0.829,0.033C26.426,1.287,28.919,0,31.623,0
			c2.701,0,5.2,1.27,6.799,3.388l11.783,2.78c0.677,0.16,1.156,0.765,1.156,1.461v5.557c0,0.829-0.671,1.501-1.5,1.501h-12.11
			C36.182,16.274,34.008,17.181,31.633,17.181z M25.27,9.991c0.591,0,1.15,0.353,1.388,0.931c0.837,2.039,2.697,3.257,4.975,3.257
			c2.02,0,3.807-0.986,4.778-2.636c0.346-0.589,1.047-0.869,1.703-0.682c0.435,0.124,0.778,0.432,0.956,0.824h9.291V8.817
			l-9.69-2.286c-0.135,0.088-0.286,0.156-0.449,0.198c-0.671,0.173-1.376-0.14-1.7-0.754c-0.965-1.833-2.842-2.972-4.899-2.972
			c-2.342,0-4.441,1.49-5.222,3.708c-0.206,0.582-0.745,0.979-1.361,1.001c-0.628,0.022-1.183-0.335-1.429-0.9l-0.113-0.259
			l-9.137,2.252v2.88h9.421c-0.088-0.677,0.297-1.348,0.96-1.597C24.916,10.022,25.094,9.991,25.27,9.991z"/>
		<path id="path-11_6_" d="M58.361,10.684h-4c-0.829,0-1.5-0.672-1.5-1.501c0-0.829,0.671-1.501,1.5-1.501h4
			c0.829,0,1.5,0.672,1.5,1.501C59.861,10.012,59.19,10.684,58.361,10.684z"/>
		<path id="path-12_6_" d="M9.361,10.684h-4c-0.829,0-1.5-0.672-1.5-1.501c0-0.829,0.671-1.501,1.5-1.501h4
			c0.829,0,1.5,0.672,1.5,1.501C10.861,10.012,10.19,10.684,9.361,10.684z"/>
	</g>
</g>
<g>
</g>
<g>
</g>
<g>
</g>
<g>
</g>
<g>
</g>
<g>
</g>
<g>
</g>
<g>
</g>
<g>
</g>
<g>
</g>
<g>
</g>
<g>
</g>
<g>
</g>
<g>
</g>
<g>
</g>
</svg>
